%TF.GenerationSoftware,KiCad,Pcbnew,9.0.2+dfsg-1*%
%TF.CreationDate,2026-10-08T02:08:59+08:00*%
%TF.ProjectId,creative-controller,63726561-7469-4766-952d-636f6e74726f,rev?*%
%TF.SameCoordinates,Original*%
%TF.FileFunction,Drillmap*%
%TF.FilePolarity,Positive*%
%FSLAX45Y45*%
G04 Gerber Fmt 4.5, Leading zero omitted, Abs format (unit mm)*
G04 Created by KiCad (PCBNEW 9.0.2+dfsg-1) date 2026-10-08 02:08:59*
%MOMM*%
%LPD*%
G01*
G04 APERTURE LIST*
%ADD10C,0.100000*%
%ADD11C,0.200000*%
%ADD12C,0.150000*%
G04 APERTURE END LIST*
D10*
X6570350Y-5723090D02*
X6667370Y-5694600D01*
X9349030Y-5527270D02*
X9350060Y-5490060D01*
X5898250Y-6212810D02*
X5952750Y-6132940D01*
X13247780Y-5591550D02*
X13404390Y-5631660D01*
X6377000Y-5797950D02*
X6459230Y-5762690D01*
X14384970Y-7540800D02*
X14393450Y-8147910D01*
X9299650Y-5567470D02*
X9323360Y-5561680D01*
X10700350Y-5567470D02*
X11920940Y-5563110D01*
X13738380Y-14074300D02*
X13603190Y-14129710D01*
X14175760Y-13628280D02*
X14117780Y-13734260D01*
X5658690Y-6981000D02*
X5686590Y-6806580D01*
X7598230Y-14239020D02*
X7154570Y-14240060D01*
X5727840Y-6623840D02*
X5770900Y-6483790D01*
X14117780Y-13734260D02*
X14041800Y-13839960D01*
X13949940Y-5912060D02*
X13950230Y-6005290D01*
X7526510Y-5578390D02*
X7782730Y-5568400D01*
X7330000Y-8300000D02*
G75*
G02*
X7530000Y-8500000I0J-200000D01*
G01*
X13854530Y-14008150D02*
X13738380Y-14074300D01*
X5829680Y-6339520D02*
X5898250Y-6212810D01*
X7530000Y-10300000D02*
X7530000Y-8500000D01*
X14370820Y-12722600D02*
X14352390Y-12924280D01*
X11920940Y-5563110D02*
X12349330Y-5572770D01*
X13603190Y-14129710D02*
X13447420Y-14173990D01*
X13880810Y-5856810D02*
X13949940Y-5912060D01*
X5634410Y-7207380D02*
X5658690Y-6981000D01*
X12349330Y-5572770D02*
X12676440Y-5591470D01*
X6214590Y-5887860D02*
X6283570Y-5845830D01*
X12845710Y-14240060D02*
X12521000Y-14241330D01*
X14301390Y-13244870D02*
X14263570Y-13395120D01*
X13677310Y-5735170D02*
X13811200Y-5809300D01*
X14047250Y-6132940D02*
X14122260Y-6247160D01*
X5750730Y-13441840D02*
X5698610Y-13244870D01*
X14122260Y-6247160D02*
X14187960Y-6378530D01*
X6626470Y-14189600D02*
X6483020Y-14156330D01*
X5606930Y-8262430D02*
X5610200Y-7708480D01*
X6570000Y-10300000D02*
X6570000Y-8500000D01*
X13548020Y-5679700D02*
X13677310Y-5735170D01*
X5798110Y-13570300D02*
X5750730Y-13441840D01*
X14226460Y-13508060D02*
X14175760Y-13628280D01*
X5862190Y-13700640D02*
X5798110Y-13570300D01*
X7154570Y-14240060D02*
X6961710Y-14231030D01*
X14327460Y-13106550D02*
X14301390Y-13244870D01*
X14390660Y-12247360D02*
X14383350Y-12498670D01*
X10002000Y-14180010D02*
X9198780Y-14187860D01*
X6136140Y-5944520D02*
X6214590Y-5887860D01*
X6115390Y-13987230D02*
X6019430Y-13906350D01*
X6226180Y-14056270D02*
X6115390Y-13987230D01*
X13447420Y-14173990D02*
X13295910Y-14203040D01*
X14187960Y-6378530D02*
X14236860Y-6506360D01*
X6355720Y-14114820D02*
X6226180Y-14056270D01*
X5626710Y-12687210D02*
X5611240Y-12334810D01*
X5611240Y-12334810D02*
X5606690Y-11795860D01*
X14272080Y-6623540D02*
X14296820Y-6725270D01*
X6770000Y-10500000D02*
G75*
G02*
X6570000Y-10300000I0J200000D01*
G01*
X5952750Y-6132940D02*
X6000630Y-6073720D01*
X5655230Y-12987480D02*
X5626710Y-12687210D01*
X14393450Y-8147910D02*
X14380000Y-10001120D01*
X9350060Y-5490060D02*
X10648770Y-5490000D01*
X5686590Y-6806580D02*
X5727840Y-6623840D01*
X9341500Y-5545360D02*
X9349030Y-5527270D01*
X6019430Y-13906350D02*
X5935400Y-13811370D01*
X6910860Y-5641700D02*
X7194640Y-5603330D01*
X8133500Y-5562650D02*
X9299650Y-5567470D01*
X5620000Y-9999040D02*
X5606930Y-8262430D01*
X5610200Y-7708480D02*
X5620110Y-7423770D01*
X6459230Y-5762690D02*
X6570350Y-5723090D01*
X14383350Y-12498670D02*
X14370820Y-12722600D01*
X14296820Y-6725270D02*
X14337070Y-6950320D01*
X6065340Y-6006060D02*
X6136140Y-5944520D01*
X6961710Y-14231030D02*
X6785530Y-14214360D01*
X6785530Y-14214360D02*
X6626470Y-14189600D01*
X12521000Y-14241330D02*
X11023450Y-14192810D01*
X14365570Y-7207060D02*
X14384970Y-7540800D01*
X10475290Y-14182770D02*
X10002000Y-14180010D01*
X13950230Y-6005290D02*
X13955570Y-6023470D01*
X6770000Y-10500000D02*
X7330000Y-10500000D01*
X13954530Y-13930740D02*
X13854530Y-14008150D01*
X14041800Y-13839960D02*
X13954530Y-13930740D01*
X13295910Y-14203040D02*
X13099180Y-14226330D01*
X6770000Y-8300000D02*
X7330000Y-8300000D01*
X12676440Y-5591470D02*
X13247780Y-5591550D01*
X9323360Y-5561680D02*
X9341500Y-5545360D01*
X10676640Y-5561680D02*
X10700350Y-5567470D01*
X7782730Y-5568400D02*
X8133500Y-5562650D01*
X10650970Y-5527270D02*
X10658500Y-5545360D01*
X13811200Y-5809300D02*
X13880810Y-5856810D01*
X5620110Y-7423770D02*
X5634410Y-7207380D01*
X5935400Y-13811370D02*
X5862190Y-13700640D01*
X6570000Y-8500000D02*
G75*
G02*
X6770000Y-8300000I200000J0D01*
G01*
X6000630Y-6073720D02*
X6065340Y-6006060D01*
X14263570Y-13395120D02*
X14226460Y-13508060D01*
X6483020Y-14156330D02*
X6355720Y-14114820D01*
X7530000Y-10300000D02*
G75*
G02*
X7330000Y-10500000I-200000J0D01*
G01*
X14236860Y-6506360D02*
X14272080Y-6623540D01*
X6283570Y-5845830D02*
X6377000Y-5797950D01*
X10648770Y-5490000D02*
X10650970Y-5527270D01*
X14352390Y-12924280D02*
X14327460Y-13106550D01*
X5606690Y-11795860D02*
X5620000Y-9999040D01*
X13955570Y-6023470D02*
X14047250Y-6132940D01*
X5770900Y-6483790D02*
X5829680Y-6339520D01*
X11023450Y-14192810D02*
X10475290Y-14182770D01*
X6667370Y-5694600D02*
X6910860Y-5641700D01*
X10658500Y-5545360D02*
X10676640Y-5561680D01*
X14337070Y-6950320D02*
X14365570Y-7207060D01*
X14393490Y-11906410D02*
X14390660Y-12247360D01*
X14380000Y-10001120D02*
X14393490Y-11906410D01*
X13404390Y-5631660D02*
X13548020Y-5679700D01*
X7194640Y-5603330D02*
X7526510Y-5578390D01*
X13099180Y-14226330D02*
X12845710Y-14240060D01*
X9198780Y-14187860D02*
X7598230Y-14239020D01*
X5698610Y-13244870D02*
X5655230Y-12987480D01*
D11*
D10*
X5985000Y-6385000D02*
X6015000Y-6415000D01*
X6015000Y-6385000D02*
X5985000Y-6415000D01*
X5985000Y-6785000D02*
X6015000Y-6815000D01*
X6015000Y-6785000D02*
X5985000Y-6815000D01*
X5985000Y-7185000D02*
X6015000Y-7215000D01*
X6015000Y-7185000D02*
X5985000Y-7215000D01*
X5985000Y-7985000D02*
X6015000Y-8015000D01*
X6015000Y-7985000D02*
X5985000Y-8015000D01*
X5985000Y-8385000D02*
X6015000Y-8415000D01*
X6015000Y-8385000D02*
X5985000Y-8415000D01*
X5985000Y-8785000D02*
X6015000Y-8815000D01*
X6015000Y-8785000D02*
X5985000Y-8815000D01*
X5985000Y-9985000D02*
X6015000Y-10015000D01*
X6015000Y-9985000D02*
X5985000Y-10015000D01*
X5985000Y-10385000D02*
X6015000Y-10415000D01*
X6015000Y-10385000D02*
X5985000Y-10415000D01*
X5985000Y-10785000D02*
X6015000Y-10815000D01*
X6015000Y-10785000D02*
X5985000Y-10815000D01*
X5985000Y-11185000D02*
X6015000Y-11215000D01*
X6015000Y-11185000D02*
X5985000Y-11215000D01*
X5985000Y-11585000D02*
X6015000Y-11615000D01*
X6015000Y-11585000D02*
X5985000Y-11615000D01*
X5985000Y-11985000D02*
X6015000Y-12015000D01*
X6015000Y-11985000D02*
X5985000Y-12015000D01*
X5985000Y-12385000D02*
X6015000Y-12415000D01*
X6015000Y-12385000D02*
X5985000Y-12415000D01*
X5985000Y-12785000D02*
X6015000Y-12815000D01*
X6015000Y-12785000D02*
X5985000Y-12815000D01*
X6385000Y-5985000D02*
X6415000Y-6015000D01*
X6415000Y-5985000D02*
X6385000Y-6015000D01*
X6385000Y-6385000D02*
X6415000Y-6415000D01*
X6415000Y-6385000D02*
X6385000Y-6415000D01*
X6385000Y-6785000D02*
X6415000Y-6815000D01*
X6415000Y-6785000D02*
X6385000Y-6815000D01*
X6385000Y-7185000D02*
X6415000Y-7215000D01*
X6415000Y-7185000D02*
X6385000Y-7215000D01*
X6385000Y-7585000D02*
X6415000Y-7615000D01*
X6415000Y-7585000D02*
X6385000Y-7615000D01*
X6385000Y-7985000D02*
X6415000Y-8015000D01*
X6415000Y-7985000D02*
X6385000Y-8015000D01*
X6385000Y-8385000D02*
X6415000Y-8415000D01*
X6415000Y-8385000D02*
X6385000Y-8415000D01*
X6385000Y-8785000D02*
X6415000Y-8815000D01*
X6415000Y-8785000D02*
X6385000Y-8815000D01*
X6385000Y-9185000D02*
X6415000Y-9215000D01*
X6415000Y-9185000D02*
X6385000Y-9215000D01*
X6385000Y-9585000D02*
X6415000Y-9615000D01*
X6415000Y-9585000D02*
X6385000Y-9615000D01*
X6385000Y-9985000D02*
X6415000Y-10015000D01*
X6415000Y-9985000D02*
X6385000Y-10015000D01*
X6385000Y-10385000D02*
X6415000Y-10415000D01*
X6415000Y-10385000D02*
X6385000Y-10415000D01*
X6385000Y-10785000D02*
X6415000Y-10815000D01*
X6415000Y-10785000D02*
X6385000Y-10815000D01*
X6385000Y-11185000D02*
X6415000Y-11215000D01*
X6415000Y-11185000D02*
X6385000Y-11215000D01*
X6385000Y-11585000D02*
X6415000Y-11615000D01*
X6415000Y-11585000D02*
X6385000Y-11615000D01*
X6385000Y-12385000D02*
X6415000Y-12415000D01*
X6415000Y-12385000D02*
X6385000Y-12415000D01*
X6385000Y-12785000D02*
X6415000Y-12815000D01*
X6415000Y-12785000D02*
X6385000Y-12815000D01*
X6785000Y-5985000D02*
X6815000Y-6015000D01*
X6815000Y-5985000D02*
X6785000Y-6015000D01*
X6785000Y-6385000D02*
X6815000Y-6415000D01*
X6815000Y-6385000D02*
X6785000Y-6415000D01*
X6785000Y-6785000D02*
X6815000Y-6815000D01*
X6815000Y-6785000D02*
X6785000Y-6815000D01*
X6785000Y-7185000D02*
X6815000Y-7215000D01*
X6815000Y-7185000D02*
X6785000Y-7215000D01*
X6785000Y-7585000D02*
X6815000Y-7615000D01*
X6815000Y-7585000D02*
X6785000Y-7615000D01*
X6785000Y-7985000D02*
X6815000Y-8015000D01*
X6815000Y-7985000D02*
X6785000Y-8015000D01*
X6785000Y-10785000D02*
X6815000Y-10815000D01*
X6815000Y-10785000D02*
X6785000Y-10815000D01*
X6785000Y-11185000D02*
X6815000Y-11215000D01*
X6815000Y-11185000D02*
X6785000Y-11215000D01*
X6785000Y-11585000D02*
X6815000Y-11615000D01*
X6815000Y-11585000D02*
X6785000Y-11615000D01*
X6785000Y-12385000D02*
X6815000Y-12415000D01*
X6815000Y-12385000D02*
X6785000Y-12415000D01*
X6785000Y-12785000D02*
X6815000Y-12815000D01*
X6815000Y-12785000D02*
X6785000Y-12815000D01*
X6785000Y-13185000D02*
X6815000Y-13215000D01*
X6815000Y-13185000D02*
X6785000Y-13215000D01*
X6785000Y-13585000D02*
X6815000Y-13615000D01*
X6815000Y-13585000D02*
X6785000Y-13615000D01*
X6785000Y-13985000D02*
X6815000Y-14015000D01*
X6815000Y-13985000D02*
X6785000Y-14015000D01*
X7185000Y-5985000D02*
X7215000Y-6015000D01*
X7215000Y-5985000D02*
X7185000Y-6015000D01*
X7185000Y-6385000D02*
X7215000Y-6415000D01*
X7215000Y-6385000D02*
X7185000Y-6415000D01*
X7185000Y-6785000D02*
X7215000Y-6815000D01*
X7215000Y-6785000D02*
X7185000Y-6815000D01*
X7185000Y-7185000D02*
X7215000Y-7215000D01*
X7215000Y-7185000D02*
X7185000Y-7215000D01*
X7185000Y-7585000D02*
X7215000Y-7615000D01*
X7215000Y-7585000D02*
X7185000Y-7615000D01*
X7185000Y-7985000D02*
X7215000Y-8015000D01*
X7215000Y-7985000D02*
X7185000Y-8015000D01*
X7185000Y-10785000D02*
X7215000Y-10815000D01*
X7215000Y-10785000D02*
X7185000Y-10815000D01*
X7185000Y-11185000D02*
X7215000Y-11215000D01*
X7215000Y-11185000D02*
X7185000Y-11215000D01*
X7185000Y-11585000D02*
X7215000Y-11615000D01*
X7215000Y-11585000D02*
X7185000Y-11615000D01*
X7185000Y-12385000D02*
X7215000Y-12415000D01*
X7215000Y-12385000D02*
X7185000Y-12415000D01*
X7185000Y-12785000D02*
X7215000Y-12815000D01*
X7215000Y-12785000D02*
X7185000Y-12815000D01*
X7185000Y-13185000D02*
X7215000Y-13215000D01*
X7215000Y-13185000D02*
X7185000Y-13215000D01*
X7185000Y-13585000D02*
X7215000Y-13615000D01*
X7215000Y-13585000D02*
X7185000Y-13615000D01*
X7185000Y-13985000D02*
X7215000Y-14015000D01*
X7215000Y-13985000D02*
X7185000Y-14015000D01*
X7585000Y-5985000D02*
X7615000Y-6015000D01*
X7615000Y-5985000D02*
X7585000Y-6015000D01*
X7585000Y-6385000D02*
X7615000Y-6415000D01*
X7615000Y-6385000D02*
X7585000Y-6415000D01*
X7585000Y-6785000D02*
X7615000Y-6815000D01*
X7615000Y-6785000D02*
X7585000Y-6815000D01*
X7585000Y-7185000D02*
X7615000Y-7215000D01*
X7615000Y-7185000D02*
X7585000Y-7215000D01*
X7585000Y-7585000D02*
X7615000Y-7615000D01*
X7615000Y-7585000D02*
X7585000Y-7615000D01*
X7585000Y-7985000D02*
X7615000Y-8015000D01*
X7615000Y-7985000D02*
X7585000Y-8015000D01*
X7585000Y-11185000D02*
X7615000Y-11215000D01*
X7615000Y-11185000D02*
X7585000Y-11215000D01*
X7985000Y-5985000D02*
X8015000Y-6015000D01*
X8015000Y-5985000D02*
X7985000Y-6015000D01*
X7985000Y-6385000D02*
X8015000Y-6415000D01*
X8015000Y-6385000D02*
X7985000Y-6415000D01*
X7985000Y-7585000D02*
X8015000Y-7615000D01*
X8015000Y-7585000D02*
X7985000Y-7615000D01*
X7985000Y-7985000D02*
X8015000Y-8015000D01*
X8015000Y-7985000D02*
X7985000Y-8015000D01*
X7985000Y-8385000D02*
X8015000Y-8415000D01*
X8015000Y-8385000D02*
X7985000Y-8415000D01*
X7985000Y-11185000D02*
X8015000Y-11215000D01*
X8015000Y-11185000D02*
X7985000Y-11215000D01*
X8385000Y-5985000D02*
X8415000Y-6015000D01*
X8415000Y-5985000D02*
X8385000Y-6015000D01*
X8385000Y-6385000D02*
X8415000Y-6415000D01*
X8415000Y-6385000D02*
X8385000Y-6415000D01*
X8385000Y-8385000D02*
X8415000Y-8415000D01*
X8415000Y-8385000D02*
X8385000Y-8415000D01*
X8385000Y-9185000D02*
X8415000Y-9215000D01*
X8415000Y-9185000D02*
X8385000Y-9215000D01*
X8385000Y-9985000D02*
X8415000Y-10015000D01*
X8415000Y-9985000D02*
X8385000Y-10015000D01*
X8385000Y-11185000D02*
X8415000Y-11215000D01*
X8415000Y-11185000D02*
X8385000Y-11215000D01*
X8653550Y-12043450D02*
X8683550Y-12073450D01*
X8683550Y-12043450D02*
X8653550Y-12073450D01*
X8783040Y-12241790D02*
X8813040Y-12271790D01*
X8813040Y-12241790D02*
X8783040Y-12271790D01*
X8785000Y-5985000D02*
X8815000Y-6015000D01*
X8815000Y-5985000D02*
X8785000Y-6015000D01*
X8785000Y-6385000D02*
X8815000Y-6415000D01*
X8815000Y-6385000D02*
X8785000Y-6415000D01*
X8785000Y-8385000D02*
X8815000Y-8415000D01*
X8815000Y-8385000D02*
X8785000Y-8415000D01*
X8785000Y-9185000D02*
X8815000Y-9215000D01*
X8815000Y-9185000D02*
X8785000Y-9215000D01*
X8785000Y-9985000D02*
X8815000Y-10015000D01*
X8815000Y-9985000D02*
X8785000Y-10015000D01*
X8785000Y-10385000D02*
X8815000Y-10415000D01*
X8815000Y-10385000D02*
X8785000Y-10415000D01*
X8785000Y-10785000D02*
X8815000Y-10815000D01*
X8815000Y-10785000D02*
X8785000Y-10815000D01*
X8951220Y-7856440D02*
X8981220Y-7886440D01*
X8981220Y-7856440D02*
X8951220Y-7886440D01*
X8982230Y-12553160D02*
X9012230Y-12583160D01*
X9012230Y-12553160D02*
X8982230Y-12583160D01*
X9152280Y-11140330D02*
X9182280Y-11170330D01*
X9182280Y-11140330D02*
X9152280Y-11170330D01*
X9154740Y-7110000D02*
X9184740Y-7140000D01*
X9184740Y-7110000D02*
X9154740Y-7140000D01*
X9185000Y-5985000D02*
X9215000Y-6015000D01*
X9215000Y-5985000D02*
X9185000Y-6015000D01*
X9185000Y-6385000D02*
X9215000Y-6415000D01*
X9215000Y-6385000D02*
X9185000Y-6415000D01*
X9185000Y-6785000D02*
X9215000Y-6815000D01*
X9215000Y-6785000D02*
X9185000Y-6815000D01*
X9185000Y-8385000D02*
X9215000Y-8415000D01*
X9215000Y-8385000D02*
X9185000Y-8415000D01*
X9289730Y-11828930D02*
X9319730Y-11858930D01*
X9319730Y-11828930D02*
X9289730Y-11858930D01*
X9296070Y-12361010D02*
X9326070Y-12391010D01*
X9326070Y-12361010D02*
X9296070Y-12391010D01*
X9298570Y-11711560D02*
X9328570Y-11741560D01*
X9328570Y-11711560D02*
X9298570Y-11741560D01*
X9428300Y-11457500D02*
X9458300Y-11487500D01*
X9458300Y-11457500D02*
X9428300Y-11487500D01*
X9455550Y-12043450D02*
X9485550Y-12073450D01*
X9485550Y-12043450D02*
X9455550Y-12073450D01*
X9585000Y-6385000D02*
X9615000Y-6415000D01*
X9615000Y-6385000D02*
X9585000Y-6415000D01*
X9585000Y-6785000D02*
X9615000Y-6815000D01*
X9615000Y-6785000D02*
X9585000Y-6815000D01*
X9585000Y-7585000D02*
X9615000Y-7615000D01*
X9615000Y-7585000D02*
X9585000Y-7615000D01*
X9585000Y-7985000D02*
X9615000Y-8015000D01*
X9615000Y-7985000D02*
X9585000Y-8015000D01*
X9585000Y-8385000D02*
X9615000Y-8415000D01*
X9615000Y-8385000D02*
X9585000Y-8415000D01*
X9585000Y-8785000D02*
X9615000Y-8815000D01*
X9615000Y-8785000D02*
X9585000Y-8815000D01*
X9585000Y-10785000D02*
X9615000Y-10815000D01*
X9615000Y-10785000D02*
X9585000Y-10815000D01*
X9665400Y-7180000D02*
X9695400Y-7210000D01*
X9695400Y-7180000D02*
X9665400Y-7210000D01*
X9824250Y-6103340D02*
X9854250Y-6133340D01*
X9854250Y-6103340D02*
X9824250Y-6133340D01*
X9898290Y-12875330D02*
X9928290Y-12905330D01*
X9928290Y-12875330D02*
X9898290Y-12905330D01*
X9925080Y-6369470D02*
X9955080Y-6399470D01*
X9955080Y-6369470D02*
X9925080Y-6399470D01*
X9964900Y-13104170D02*
X9994900Y-13134170D01*
X9994900Y-13104170D02*
X9964900Y-13134170D01*
X9980120Y-6103340D02*
X10010120Y-6133340D01*
X10010120Y-6103340D02*
X9980120Y-6133340D01*
X9985000Y-7585000D02*
X10015000Y-7615000D01*
X10015000Y-7585000D02*
X9985000Y-7615000D01*
X9985000Y-8785000D02*
X10015000Y-8815000D01*
X10015000Y-8785000D02*
X9985000Y-8815000D01*
X9985540Y-12844710D02*
X10015540Y-12874710D01*
X10015540Y-12844710D02*
X9985540Y-12874710D01*
X10106230Y-11388660D02*
X10136230Y-11418660D01*
X10136230Y-11388660D02*
X10106230Y-11418660D01*
X10241230Y-7110000D02*
X10271230Y-7140000D01*
X10271230Y-7110000D02*
X10241230Y-7140000D01*
X10289740Y-11710910D02*
X10319740Y-11740910D01*
X10319740Y-11710910D02*
X10289740Y-11740910D01*
X10294540Y-11166310D02*
X10324540Y-11196310D01*
X10324540Y-11166310D02*
X10294540Y-11196310D01*
X10385000Y-7585000D02*
X10415000Y-7615000D01*
X10415000Y-7585000D02*
X10385000Y-7615000D01*
X10385000Y-7985000D02*
X10415000Y-8015000D01*
X10415000Y-7985000D02*
X10385000Y-8015000D01*
X10385000Y-8785000D02*
X10415000Y-8815000D01*
X10415000Y-8785000D02*
X10385000Y-8815000D01*
X10406110Y-11710220D02*
X10436110Y-11740220D01*
X10436110Y-11710220D02*
X10406110Y-11740220D01*
X10453940Y-10586350D02*
X10483940Y-10616350D01*
X10483940Y-10586350D02*
X10453940Y-10616350D01*
X10478040Y-6275810D02*
X10508040Y-6305810D01*
X10508040Y-6275810D02*
X10478040Y-6305810D01*
X10514700Y-12511020D02*
X10544700Y-12541020D01*
X10544700Y-12511020D02*
X10514700Y-12541020D01*
X10555460Y-6829080D02*
X10585460Y-6859080D01*
X10585460Y-6829080D02*
X10555460Y-6859080D01*
X10613190Y-12807700D02*
X10643190Y-12837700D01*
X10643190Y-12807700D02*
X10613190Y-12837700D01*
X10631370Y-11778630D02*
X10661370Y-11808630D01*
X10661370Y-11778630D02*
X10631370Y-11808630D01*
X10702850Y-12091000D02*
X10732850Y-12121000D01*
X10732850Y-12091000D02*
X10702850Y-12121000D01*
X10732970Y-12652520D02*
X10762970Y-12682520D01*
X10762970Y-12652520D02*
X10732970Y-12682520D01*
X10776400Y-11388660D02*
X10806400Y-11418660D01*
X10806400Y-11388660D02*
X10776400Y-11418660D01*
X10785000Y-5985000D02*
X10815000Y-6015000D01*
X10815000Y-5985000D02*
X10785000Y-6015000D01*
X10785000Y-6385000D02*
X10815000Y-6415000D01*
X10815000Y-6385000D02*
X10785000Y-6415000D01*
X10820090Y-6697310D02*
X10850090Y-6727310D01*
X10850090Y-6697310D02*
X10820090Y-6727310D01*
X10998670Y-6533030D02*
X11028670Y-6563030D01*
X11028670Y-6533030D02*
X10998670Y-6563030D01*
X11001280Y-12623930D02*
X11031280Y-12653930D01*
X11031280Y-12623930D02*
X11001280Y-12653930D01*
X11080460Y-7029800D02*
X11110460Y-7059800D01*
X11110460Y-7029800D02*
X11080460Y-7059800D01*
X11096740Y-11547350D02*
X11126740Y-11577350D01*
X11126740Y-11547350D02*
X11096740Y-11577350D01*
X11185000Y-5985000D02*
X11215000Y-6015000D01*
X11215000Y-5985000D02*
X11185000Y-6015000D01*
X11185000Y-6785000D02*
X11215000Y-6815000D01*
X11215000Y-6785000D02*
X11185000Y-6815000D01*
X11185000Y-7585000D02*
X11215000Y-7615000D01*
X11215000Y-7585000D02*
X11185000Y-7615000D01*
X11185000Y-7985000D02*
X11215000Y-8015000D01*
X11215000Y-7985000D02*
X11185000Y-8015000D01*
X11185000Y-8785000D02*
X11215000Y-8815000D01*
X11215000Y-8785000D02*
X11185000Y-8815000D01*
X11255720Y-12341280D02*
X11285720Y-12371280D01*
X11285720Y-12341280D02*
X11255720Y-12371280D01*
X11363860Y-12476190D02*
X11393860Y-12506190D01*
X11393860Y-12476190D02*
X11363860Y-12506190D01*
X11585000Y-5985000D02*
X11615000Y-6015000D01*
X11615000Y-5985000D02*
X11585000Y-6015000D01*
X11585000Y-6785000D02*
X11615000Y-6815000D01*
X11615000Y-6785000D02*
X11585000Y-6815000D01*
X11585000Y-7985000D02*
X11615000Y-8015000D01*
X11615000Y-7985000D02*
X11585000Y-8015000D01*
X11585000Y-9185000D02*
X11615000Y-9215000D01*
X11615000Y-9185000D02*
X11585000Y-9215000D01*
X11585000Y-9585000D02*
X11615000Y-9615000D01*
X11615000Y-9585000D02*
X11585000Y-9615000D01*
X11585000Y-9985000D02*
X11615000Y-10015000D01*
X11615000Y-9985000D02*
X11585000Y-10015000D01*
X11585000Y-10385000D02*
X11615000Y-10415000D01*
X11615000Y-10385000D02*
X11585000Y-10415000D01*
X11589820Y-11263690D02*
X11619820Y-11293690D01*
X11619820Y-11263690D02*
X11589820Y-11293690D01*
X11985000Y-5985000D02*
X12015000Y-6015000D01*
X12015000Y-5985000D02*
X11985000Y-6015000D01*
X11985000Y-6785000D02*
X12015000Y-6815000D01*
X12015000Y-6785000D02*
X11985000Y-6815000D01*
X11985000Y-8785000D02*
X12015000Y-8815000D01*
X12015000Y-8785000D02*
X11985000Y-8815000D01*
X12315700Y-8011420D02*
X12345700Y-8041420D01*
X12345700Y-8011420D02*
X12315700Y-8041420D01*
X12385000Y-5985000D02*
X12415000Y-6015000D01*
X12415000Y-5985000D02*
X12385000Y-6015000D01*
X12385000Y-6785000D02*
X12415000Y-6815000D01*
X12415000Y-6785000D02*
X12385000Y-6815000D01*
X12385000Y-7585000D02*
X12415000Y-7615000D01*
X12415000Y-7585000D02*
X12385000Y-7615000D01*
X12385000Y-8385000D02*
X12415000Y-8415000D01*
X12415000Y-8385000D02*
X12385000Y-8415000D01*
X12385000Y-8785000D02*
X12415000Y-8815000D01*
X12415000Y-8785000D02*
X12385000Y-8815000D01*
X12385000Y-9185000D02*
X12415000Y-9215000D01*
X12415000Y-9185000D02*
X12385000Y-9215000D01*
X12385000Y-9585000D02*
X12415000Y-9615000D01*
X12415000Y-9585000D02*
X12385000Y-9615000D01*
X12385000Y-9985000D02*
X12415000Y-10015000D01*
X12415000Y-9985000D02*
X12385000Y-10015000D01*
X12385000Y-10385000D02*
X12415000Y-10415000D01*
X12415000Y-10385000D02*
X12385000Y-10415000D01*
X12385000Y-10785000D02*
X12415000Y-10815000D01*
X12415000Y-10785000D02*
X12385000Y-10815000D01*
X12388580Y-8236000D02*
X12418580Y-8266000D01*
X12418580Y-8236000D02*
X12388580Y-8266000D01*
X12785000Y-6385000D02*
X12815000Y-6415000D01*
X12815000Y-6385000D02*
X12785000Y-6415000D01*
X12785000Y-7185000D02*
X12815000Y-7215000D01*
X12815000Y-7185000D02*
X12785000Y-7215000D01*
X12785000Y-7985000D02*
X12815000Y-8015000D01*
X12815000Y-7985000D02*
X12785000Y-8015000D01*
X12785000Y-8385000D02*
X12815000Y-8415000D01*
X12815000Y-8385000D02*
X12785000Y-8415000D01*
X12785000Y-8785000D02*
X12815000Y-8815000D01*
X12815000Y-8785000D02*
X12785000Y-8815000D01*
X12785000Y-9185000D02*
X12815000Y-9215000D01*
X12815000Y-9185000D02*
X12785000Y-9215000D01*
X12785000Y-9585000D02*
X12815000Y-9615000D01*
X12815000Y-9585000D02*
X12785000Y-9615000D01*
X12785000Y-9985000D02*
X12815000Y-10015000D01*
X12815000Y-9985000D02*
X12785000Y-10015000D01*
X12785000Y-10385000D02*
X12815000Y-10415000D01*
X12815000Y-10385000D02*
X12785000Y-10415000D01*
X12785000Y-11585000D02*
X12815000Y-11615000D01*
X12815000Y-11585000D02*
X12785000Y-11615000D01*
X12785000Y-11985000D02*
X12815000Y-12015000D01*
X12815000Y-11985000D02*
X12785000Y-12015000D01*
X12785000Y-12385000D02*
X12815000Y-12415000D01*
X12815000Y-12385000D02*
X12785000Y-12415000D01*
X12785000Y-12785000D02*
X12815000Y-12815000D01*
X12815000Y-12785000D02*
X12785000Y-12815000D01*
X12785000Y-13185000D02*
X12815000Y-13215000D01*
X12815000Y-13185000D02*
X12785000Y-13215000D01*
X12785000Y-13585000D02*
X12815000Y-13615000D01*
X12815000Y-13585000D02*
X12785000Y-13615000D01*
X12785000Y-13985000D02*
X12815000Y-14015000D01*
X12815000Y-13985000D02*
X12785000Y-14015000D01*
X13185000Y-6785000D02*
X13215000Y-6815000D01*
X13215000Y-6785000D02*
X13185000Y-6815000D01*
X13185000Y-7185000D02*
X13215000Y-7215000D01*
X13215000Y-7185000D02*
X13185000Y-7215000D01*
X13185000Y-7585000D02*
X13215000Y-7615000D01*
X13215000Y-7585000D02*
X13185000Y-7615000D01*
X13185000Y-7985000D02*
X13215000Y-8015000D01*
X13215000Y-7985000D02*
X13185000Y-8015000D01*
X13185000Y-8385000D02*
X13215000Y-8415000D01*
X13215000Y-8385000D02*
X13185000Y-8415000D01*
X13185000Y-8785000D02*
X13215000Y-8815000D01*
X13215000Y-8785000D02*
X13185000Y-8815000D01*
X13185000Y-9185000D02*
X13215000Y-9215000D01*
X13215000Y-9185000D02*
X13185000Y-9215000D01*
X13185000Y-9585000D02*
X13215000Y-9615000D01*
X13215000Y-9585000D02*
X13185000Y-9615000D01*
X13185000Y-9985000D02*
X13215000Y-10015000D01*
X13215000Y-9985000D02*
X13185000Y-10015000D01*
X13185000Y-11185000D02*
X13215000Y-11215000D01*
X13215000Y-11185000D02*
X13185000Y-11215000D01*
X13185000Y-11585000D02*
X13215000Y-11615000D01*
X13215000Y-11585000D02*
X13185000Y-11615000D01*
X13185000Y-11985000D02*
X13215000Y-12015000D01*
X13215000Y-11985000D02*
X13185000Y-12015000D01*
X13185000Y-13185000D02*
X13215000Y-13215000D01*
X13215000Y-13185000D02*
X13185000Y-13215000D01*
X13185000Y-13585000D02*
X13215000Y-13615000D01*
X13215000Y-13585000D02*
X13185000Y-13615000D01*
X13185000Y-13985000D02*
X13215000Y-14015000D01*
X13215000Y-13985000D02*
X13185000Y-14015000D01*
X13585000Y-6385000D02*
X13615000Y-6415000D01*
X13615000Y-6385000D02*
X13585000Y-6415000D01*
X13585000Y-6785000D02*
X13615000Y-6815000D01*
X13615000Y-6785000D02*
X13585000Y-6815000D01*
X13585000Y-7985000D02*
X13615000Y-8015000D01*
X13615000Y-7985000D02*
X13585000Y-8015000D01*
X13585000Y-8385000D02*
X13615000Y-8415000D01*
X13615000Y-8385000D02*
X13585000Y-8415000D01*
X13585000Y-8785000D02*
X13615000Y-8815000D01*
X13615000Y-8785000D02*
X13585000Y-8815000D01*
X13585000Y-9185000D02*
X13615000Y-9215000D01*
X13615000Y-9185000D02*
X13585000Y-9215000D01*
X13585000Y-9585000D02*
X13615000Y-9615000D01*
X13615000Y-9585000D02*
X13585000Y-9615000D01*
X13585000Y-9985000D02*
X13615000Y-10015000D01*
X13615000Y-9985000D02*
X13585000Y-10015000D01*
X13585000Y-11185000D02*
X13615000Y-11215000D01*
X13615000Y-11185000D02*
X13585000Y-11215000D01*
X13585000Y-11585000D02*
X13615000Y-11615000D01*
X13615000Y-11585000D02*
X13585000Y-11615000D01*
X13585000Y-11985000D02*
X13615000Y-12015000D01*
X13615000Y-11985000D02*
X13585000Y-12015000D01*
X13585000Y-13185000D02*
X13615000Y-13215000D01*
X13615000Y-13185000D02*
X13585000Y-13215000D01*
X13585000Y-13585000D02*
X13615000Y-13615000D01*
X13615000Y-13585000D02*
X13585000Y-13615000D01*
X13985000Y-6385000D02*
X14015000Y-6415000D01*
X14015000Y-6385000D02*
X13985000Y-6415000D01*
X13985000Y-6785000D02*
X14015000Y-6815000D01*
X14015000Y-6785000D02*
X13985000Y-6815000D01*
X13985000Y-7985000D02*
X14015000Y-8015000D01*
X14015000Y-7985000D02*
X13985000Y-8015000D01*
X13985000Y-8385000D02*
X14015000Y-8415000D01*
X14015000Y-8385000D02*
X13985000Y-8415000D01*
X13985000Y-9185000D02*
X14015000Y-9215000D01*
X14015000Y-9185000D02*
X13985000Y-9215000D01*
X13985000Y-9585000D02*
X14015000Y-9615000D01*
X14015000Y-9585000D02*
X13985000Y-9615000D01*
X13985000Y-9985000D02*
X14015000Y-10015000D01*
X14015000Y-9985000D02*
X13985000Y-10015000D01*
X13985000Y-11185000D02*
X14015000Y-11215000D01*
X14015000Y-11185000D02*
X13985000Y-11215000D01*
X13985000Y-11585000D02*
X14015000Y-11615000D01*
X14015000Y-11585000D02*
X13985000Y-11615000D01*
X13985000Y-11985000D02*
X14015000Y-12015000D01*
X14015000Y-11985000D02*
X13985000Y-12015000D01*
X13985000Y-13185000D02*
X14015000Y-13215000D01*
X14015000Y-13185000D02*
X13985000Y-13215000D01*
X13985000Y-13585000D02*
X14015000Y-13615000D01*
X14015000Y-13585000D02*
X13985000Y-13615000D01*
X10025000Y-12534000D02*
G75*
G02*
X9995000Y-12534000I-15000J0D01*
G01*
X9995000Y-12534000D02*
G75*
G02*
X10025000Y-12534000I15000J0D01*
G01*
X10025000Y-12674000D02*
G75*
G02*
X9995000Y-12674000I-15000J0D01*
G01*
X9995000Y-12674000D02*
G75*
G02*
X10025000Y-12674000I15000J0D01*
G01*
X10095000Y-12464000D02*
G75*
G02*
X10065000Y-12464000I-15000J0D01*
G01*
X10065000Y-12464000D02*
G75*
G02*
X10095000Y-12464000I15000J0D01*
G01*
X10095000Y-12604000D02*
G75*
G02*
X10065000Y-12604000I-15000J0D01*
G01*
X10065000Y-12604000D02*
G75*
G02*
X10095000Y-12604000I15000J0D01*
G01*
X10095000Y-12744000D02*
G75*
G02*
X10065000Y-12744000I-15000J0D01*
G01*
X10065000Y-12744000D02*
G75*
G02*
X10095000Y-12744000I15000J0D01*
G01*
X10165000Y-12534000D02*
G75*
G02*
X10135000Y-12534000I-15000J0D01*
G01*
X10135000Y-12534000D02*
G75*
G02*
X10165000Y-12534000I15000J0D01*
G01*
X10165000Y-12674000D02*
G75*
G02*
X10135000Y-12674000I-15000J0D01*
G01*
X10135000Y-12674000D02*
G75*
G02*
X10165000Y-12674000I15000J0D01*
G01*
X10235000Y-12464000D02*
G75*
G02*
X10205000Y-12464000I-15000J0D01*
G01*
X10205000Y-12464000D02*
G75*
G02*
X10235000Y-12464000I15000J0D01*
G01*
X10235000Y-12604000D02*
G75*
G02*
X10205000Y-12604000I-15000J0D01*
G01*
X10205000Y-12604000D02*
G75*
G02*
X10235000Y-12604000I15000J0D01*
G01*
X10235000Y-12744000D02*
G75*
G02*
X10205000Y-12744000I-15000J0D01*
G01*
X10205000Y-12744000D02*
G75*
G02*
X10235000Y-12744000I15000J0D01*
G01*
X10305000Y-12534000D02*
G75*
G02*
X10275000Y-12534000I-15000J0D01*
G01*
X10275000Y-12534000D02*
G75*
G02*
X10305000Y-12534000I15000J0D01*
G01*
X10305000Y-12674000D02*
G75*
G02*
X10275000Y-12674000I-15000J0D01*
G01*
X10275000Y-12674000D02*
G75*
G02*
X10305000Y-12674000I15000J0D01*
G01*
X8779040Y-12362090D02*
X8779040Y-12402090D01*
X8759040Y-12382090D02*
X8799040Y-12382090D01*
X10099050Y-13205860D02*
X10099050Y-13245860D01*
X10079050Y-13225860D02*
X10119050Y-13225860D01*
X10281560Y-9358610D02*
X10281560Y-9398610D01*
X10261560Y-9378610D02*
X10301560Y-9378610D01*
X11491700Y-8309290D02*
X11491700Y-8349290D01*
X11471700Y-8329290D02*
X11511700Y-8329290D01*
X11700850Y-7568870D02*
X11700850Y-7608870D01*
X11680850Y-7588870D02*
X11720850Y-7588870D01*
X12273500Y-7365870D02*
X12273500Y-7405870D01*
X12253500Y-7385870D02*
X12293500Y-7385870D01*
X12445780Y-7018780D02*
X12445780Y-7058780D01*
X12425780Y-7038780D02*
X12465780Y-7038780D01*
X9589213Y-5756243D02*
X9589213Y-5713817D01*
X9546787Y-5713817D01*
X9546787Y-5756243D01*
X9589213Y-5756243D01*
X9598000Y-5765030D02*
X9598000Y-5705030D01*
X9538000Y-5705030D02*
G75*
G02*
X9598000Y-5705030I30000J0D01*
G01*
X9538000Y-5705030D02*
X9538000Y-5765030D01*
X9538000Y-5765030D02*
G75*
G03*
X9598000Y-5765030I30000J0D01*
G01*
X9589213Y-6174243D02*
X9589213Y-6131817D01*
X9546787Y-6131817D01*
X9546787Y-6174243D01*
X9589213Y-6174243D01*
X9598000Y-6208030D02*
X9598000Y-6098030D01*
X9538000Y-6098030D02*
G75*
G02*
X9598000Y-6098030I30000J0D01*
G01*
X9538000Y-6098030D02*
X9538000Y-6208030D01*
X9538000Y-6208030D02*
G75*
G03*
X9598000Y-6208030I30000J0D01*
G01*
X10453213Y-5756243D02*
X10453213Y-5713817D01*
X10410787Y-5713817D01*
X10410787Y-5756243D01*
X10453213Y-5756243D01*
X10462000Y-5765030D02*
X10462000Y-5705030D01*
X10402000Y-5705030D02*
G75*
G02*
X10462000Y-5705030I30000J0D01*
G01*
X10402000Y-5705030D02*
X10402000Y-5765030D01*
X10402000Y-5765030D02*
G75*
G03*
X10462000Y-5765030I30000J0D01*
G01*
X10453213Y-6174243D02*
X10453213Y-6131817D01*
X10410787Y-6131817D01*
X10410787Y-6174243D01*
X10453213Y-6174243D01*
X10462000Y-6208030D02*
X10462000Y-6098030D01*
X10402000Y-6098030D02*
G75*
G02*
X10462000Y-6098030I30000J0D01*
G01*
X10402000Y-6098030D02*
X10402000Y-6208030D01*
X10402000Y-6208030D02*
G75*
G03*
X10462000Y-6208030I30000J0D01*
G01*
X7700000Y-9450000D02*
X7750000Y-9400000D01*
X7700000Y-9350000D01*
X7650000Y-9400000D01*
X7700000Y-9450000D01*
X7950000Y-9450000D02*
X8000000Y-9400000D01*
X7950000Y-9350000D01*
X7900000Y-9400000D01*
X7950000Y-9450000D01*
X8200000Y-9450000D02*
X8250000Y-9400000D01*
X8200000Y-9350000D01*
X8150000Y-9400000D01*
X8200000Y-9450000D01*
X9250000Y-9600000D02*
X9300000Y-9550000D01*
X9250000Y-9500000D01*
X9200000Y-9550000D01*
X9250000Y-9600000D01*
X9250000Y-9850000D02*
X9300000Y-9800000D01*
X9250000Y-9750000D01*
X9200000Y-9800000D01*
X9250000Y-9850000D01*
X9250000Y-10100000D02*
X9300000Y-10050000D01*
X9250000Y-10000000D01*
X9200000Y-10050000D01*
X9250000Y-10100000D01*
X10700000Y-9600000D02*
X10750000Y-9550000D01*
X10700000Y-9500000D01*
X10650000Y-9550000D01*
X10700000Y-9600000D01*
X10700000Y-10100000D02*
X10750000Y-10050000D01*
X10700000Y-10000000D01*
X10650000Y-10050000D01*
X10700000Y-10100000D01*
D12*
X9925000Y-9165000D02*
X10075000Y-9315000D01*
X10075000Y-9165000D02*
X9925000Y-9315000D01*
X10075000Y-9240000D02*
G75*
G02*
X9925000Y-9240000I-75000J0D01*
G01*
X9925000Y-9240000D02*
G75*
G02*
X10075000Y-9240000I75000J0D01*
G01*
D10*
X9935000Y-9315000D02*
X10065000Y-9315000D01*
X10065000Y-9165000D02*
G75*
G02*
X10065000Y-9315000I0J-75000D01*
G01*
X10065000Y-9165000D02*
X9935000Y-9165000D01*
X9935000Y-9165000D02*
G75*
G03*
X9935000Y-9315000I0J-75000D01*
G01*
D12*
X9925000Y-10285000D02*
X10075000Y-10435000D01*
X10075000Y-10285000D02*
X9925000Y-10435000D01*
X10075000Y-10360000D02*
G75*
G02*
X9925000Y-10360000I-75000J0D01*
G01*
X9925000Y-10360000D02*
G75*
G02*
X10075000Y-10360000I75000J0D01*
G01*
D10*
X9935000Y-10435000D02*
X10065000Y-10435000D01*
X10065000Y-10285000D02*
G75*
G02*
X10065000Y-10435000I0J-75000D01*
G01*
X10065000Y-10285000D02*
X9935000Y-10285000D01*
X9935000Y-10285000D02*
G75*
G03*
X9935000Y-10435000I0J-75000D01*
G01*
D11*
X5862467Y-14557814D02*
X5862467Y-14357814D01*
X5862467Y-14357814D02*
X5910086Y-14357814D01*
X5910086Y-14357814D02*
X5938657Y-14367338D01*
X5938657Y-14367338D02*
X5957705Y-14386385D01*
X5957705Y-14386385D02*
X5967229Y-14405433D01*
X5967229Y-14405433D02*
X5976752Y-14443528D01*
X5976752Y-14443528D02*
X5976752Y-14472099D01*
X5976752Y-14472099D02*
X5967229Y-14510195D01*
X5967229Y-14510195D02*
X5957705Y-14529242D01*
X5957705Y-14529242D02*
X5938657Y-14548290D01*
X5938657Y-14548290D02*
X5910086Y-14557814D01*
X5910086Y-14557814D02*
X5862467Y-14557814D01*
X6062467Y-14557814D02*
X6062467Y-14424480D01*
X6062467Y-14462576D02*
X6071991Y-14443528D01*
X6071991Y-14443528D02*
X6081514Y-14434004D01*
X6081514Y-14434004D02*
X6100562Y-14424480D01*
X6100562Y-14424480D02*
X6119610Y-14424480D01*
X6186276Y-14557814D02*
X6186276Y-14424480D01*
X6186276Y-14357814D02*
X6176752Y-14367338D01*
X6176752Y-14367338D02*
X6186276Y-14376861D01*
X6186276Y-14376861D02*
X6195800Y-14367338D01*
X6195800Y-14367338D02*
X6186276Y-14357814D01*
X6186276Y-14357814D02*
X6186276Y-14376861D01*
X6310086Y-14557814D02*
X6291038Y-14548290D01*
X6291038Y-14548290D02*
X6281514Y-14529242D01*
X6281514Y-14529242D02*
X6281514Y-14357814D01*
X6414848Y-14557814D02*
X6395800Y-14548290D01*
X6395800Y-14548290D02*
X6386276Y-14529242D01*
X6386276Y-14529242D02*
X6386276Y-14357814D01*
X6643419Y-14557814D02*
X6643419Y-14357814D01*
X6643419Y-14357814D02*
X6710086Y-14500671D01*
X6710086Y-14500671D02*
X6776752Y-14357814D01*
X6776752Y-14357814D02*
X6776752Y-14557814D01*
X6957705Y-14557814D02*
X6957705Y-14453052D01*
X6957705Y-14453052D02*
X6948181Y-14434004D01*
X6948181Y-14434004D02*
X6929133Y-14424480D01*
X6929133Y-14424480D02*
X6891038Y-14424480D01*
X6891038Y-14424480D02*
X6871991Y-14434004D01*
X6957705Y-14548290D02*
X6938657Y-14557814D01*
X6938657Y-14557814D02*
X6891038Y-14557814D01*
X6891038Y-14557814D02*
X6871991Y-14548290D01*
X6871991Y-14548290D02*
X6862467Y-14529242D01*
X6862467Y-14529242D02*
X6862467Y-14510195D01*
X6862467Y-14510195D02*
X6871991Y-14491147D01*
X6871991Y-14491147D02*
X6891038Y-14481623D01*
X6891038Y-14481623D02*
X6938657Y-14481623D01*
X6938657Y-14481623D02*
X6957705Y-14472099D01*
X7052943Y-14424480D02*
X7052943Y-14624480D01*
X7052943Y-14434004D02*
X7071991Y-14424480D01*
X7071991Y-14424480D02*
X7110086Y-14424480D01*
X7110086Y-14424480D02*
X7129133Y-14434004D01*
X7129133Y-14434004D02*
X7138657Y-14443528D01*
X7138657Y-14443528D02*
X7148181Y-14462576D01*
X7148181Y-14462576D02*
X7148181Y-14519718D01*
X7148181Y-14519718D02*
X7138657Y-14538766D01*
X7138657Y-14538766D02*
X7129133Y-14548290D01*
X7129133Y-14548290D02*
X7110086Y-14557814D01*
X7110086Y-14557814D02*
X7071991Y-14557814D01*
X7071991Y-14557814D02*
X7052943Y-14548290D01*
X7233895Y-14538766D02*
X7243419Y-14548290D01*
X7243419Y-14548290D02*
X7233895Y-14557814D01*
X7233895Y-14557814D02*
X7224372Y-14548290D01*
X7224372Y-14548290D02*
X7233895Y-14538766D01*
X7233895Y-14538766D02*
X7233895Y-14557814D01*
X7233895Y-14434004D02*
X7243419Y-14443528D01*
X7243419Y-14443528D02*
X7233895Y-14453052D01*
X7233895Y-14453052D02*
X7224372Y-14443528D01*
X7224372Y-14443528D02*
X7233895Y-14434004D01*
X7233895Y-14434004D02*
X7233895Y-14453052D01*
D10*
X5571690Y-14871330D02*
X5601690Y-14901330D01*
X5601690Y-14871330D02*
X5571690Y-14901330D01*
D11*
X5900562Y-14777814D02*
X5919610Y-14777814D01*
X5919610Y-14777814D02*
X5938657Y-14787338D01*
X5938657Y-14787338D02*
X5948181Y-14796861D01*
X5948181Y-14796861D02*
X5957705Y-14815909D01*
X5957705Y-14815909D02*
X5967229Y-14854004D01*
X5967229Y-14854004D02*
X5967229Y-14901623D01*
X5967229Y-14901623D02*
X5957705Y-14939718D01*
X5957705Y-14939718D02*
X5948181Y-14958766D01*
X5948181Y-14958766D02*
X5938657Y-14968290D01*
X5938657Y-14968290D02*
X5919610Y-14977814D01*
X5919610Y-14977814D02*
X5900562Y-14977814D01*
X5900562Y-14977814D02*
X5881514Y-14968290D01*
X5881514Y-14968290D02*
X5871991Y-14958766D01*
X5871991Y-14958766D02*
X5862467Y-14939718D01*
X5862467Y-14939718D02*
X5852943Y-14901623D01*
X5852943Y-14901623D02*
X5852943Y-14854004D01*
X5852943Y-14854004D02*
X5862467Y-14815909D01*
X5862467Y-14815909D02*
X5871991Y-14796861D01*
X5871991Y-14796861D02*
X5881514Y-14787338D01*
X5881514Y-14787338D02*
X5900562Y-14777814D01*
X6052943Y-14958766D02*
X6062467Y-14968290D01*
X6062467Y-14968290D02*
X6052943Y-14977814D01*
X6052943Y-14977814D02*
X6043419Y-14968290D01*
X6043419Y-14968290D02*
X6052943Y-14958766D01*
X6052943Y-14958766D02*
X6052943Y-14977814D01*
X6129133Y-14777814D02*
X6252943Y-14777814D01*
X6252943Y-14777814D02*
X6186276Y-14854004D01*
X6186276Y-14854004D02*
X6214848Y-14854004D01*
X6214848Y-14854004D02*
X6233895Y-14863528D01*
X6233895Y-14863528D02*
X6243419Y-14873052D01*
X6243419Y-14873052D02*
X6252943Y-14892099D01*
X6252943Y-14892099D02*
X6252943Y-14939718D01*
X6252943Y-14939718D02*
X6243419Y-14958766D01*
X6243419Y-14958766D02*
X6233895Y-14968290D01*
X6233895Y-14968290D02*
X6214848Y-14977814D01*
X6214848Y-14977814D02*
X6157705Y-14977814D01*
X6157705Y-14977814D02*
X6138657Y-14968290D01*
X6138657Y-14968290D02*
X6129133Y-14958766D01*
X6376752Y-14777814D02*
X6395800Y-14777814D01*
X6395800Y-14777814D02*
X6414848Y-14787338D01*
X6414848Y-14787338D02*
X6424372Y-14796861D01*
X6424372Y-14796861D02*
X6433895Y-14815909D01*
X6433895Y-14815909D02*
X6443419Y-14854004D01*
X6443419Y-14854004D02*
X6443419Y-14901623D01*
X6443419Y-14901623D02*
X6433895Y-14939718D01*
X6433895Y-14939718D02*
X6424372Y-14958766D01*
X6424372Y-14958766D02*
X6414848Y-14968290D01*
X6414848Y-14968290D02*
X6395800Y-14977814D01*
X6395800Y-14977814D02*
X6376752Y-14977814D01*
X6376752Y-14977814D02*
X6357705Y-14968290D01*
X6357705Y-14968290D02*
X6348181Y-14958766D01*
X6348181Y-14958766D02*
X6338657Y-14939718D01*
X6338657Y-14939718D02*
X6329133Y-14901623D01*
X6329133Y-14901623D02*
X6329133Y-14854004D01*
X6329133Y-14854004D02*
X6338657Y-14815909D01*
X6338657Y-14815909D02*
X6348181Y-14796861D01*
X6348181Y-14796861D02*
X6357705Y-14787338D01*
X6357705Y-14787338D02*
X6376752Y-14777814D01*
X6567229Y-14777814D02*
X6586276Y-14777814D01*
X6586276Y-14777814D02*
X6605324Y-14787338D01*
X6605324Y-14787338D02*
X6614848Y-14796861D01*
X6614848Y-14796861D02*
X6624372Y-14815909D01*
X6624372Y-14815909D02*
X6633895Y-14854004D01*
X6633895Y-14854004D02*
X6633895Y-14901623D01*
X6633895Y-14901623D02*
X6624372Y-14939718D01*
X6624372Y-14939718D02*
X6614848Y-14958766D01*
X6614848Y-14958766D02*
X6605324Y-14968290D01*
X6605324Y-14968290D02*
X6586276Y-14977814D01*
X6586276Y-14977814D02*
X6567229Y-14977814D01*
X6567229Y-14977814D02*
X6548181Y-14968290D01*
X6548181Y-14968290D02*
X6538657Y-14958766D01*
X6538657Y-14958766D02*
X6529133Y-14939718D01*
X6529133Y-14939718D02*
X6519610Y-14901623D01*
X6519610Y-14901623D02*
X6519610Y-14854004D01*
X6519610Y-14854004D02*
X6529133Y-14815909D01*
X6529133Y-14815909D02*
X6538657Y-14796861D01*
X6538657Y-14796861D02*
X6548181Y-14787338D01*
X6548181Y-14787338D02*
X6567229Y-14777814D01*
X6719610Y-14977814D02*
X6719610Y-14844480D01*
X6719610Y-14863528D02*
X6729133Y-14854004D01*
X6729133Y-14854004D02*
X6748181Y-14844480D01*
X6748181Y-14844480D02*
X6776753Y-14844480D01*
X6776753Y-14844480D02*
X6795800Y-14854004D01*
X6795800Y-14854004D02*
X6805324Y-14873052D01*
X6805324Y-14873052D02*
X6805324Y-14977814D01*
X6805324Y-14873052D02*
X6814848Y-14854004D01*
X6814848Y-14854004D02*
X6833895Y-14844480D01*
X6833895Y-14844480D02*
X6862467Y-14844480D01*
X6862467Y-14844480D02*
X6881514Y-14854004D01*
X6881514Y-14854004D02*
X6891038Y-14873052D01*
X6891038Y-14873052D02*
X6891038Y-14977814D01*
X6986276Y-14977814D02*
X6986276Y-14844480D01*
X6986276Y-14863528D02*
X6995800Y-14854004D01*
X6995800Y-14854004D02*
X7014848Y-14844480D01*
X7014848Y-14844480D02*
X7043419Y-14844480D01*
X7043419Y-14844480D02*
X7062467Y-14854004D01*
X7062467Y-14854004D02*
X7071991Y-14873052D01*
X7071991Y-14873052D02*
X7071991Y-14977814D01*
X7071991Y-14873052D02*
X7081514Y-14854004D01*
X7081514Y-14854004D02*
X7100562Y-14844480D01*
X7100562Y-14844480D02*
X7129133Y-14844480D01*
X7129133Y-14844480D02*
X7148181Y-14854004D01*
X7148181Y-14854004D02*
X7157705Y-14873052D01*
X7157705Y-14873052D02*
X7157705Y-14977814D01*
X7548181Y-14768290D02*
X7376753Y-15025433D01*
X7805324Y-14777814D02*
X7824372Y-14777814D01*
X7824372Y-14777814D02*
X7843419Y-14787338D01*
X7843419Y-14787338D02*
X7852943Y-14796861D01*
X7852943Y-14796861D02*
X7862467Y-14815909D01*
X7862467Y-14815909D02*
X7871991Y-14854004D01*
X7871991Y-14854004D02*
X7871991Y-14901623D01*
X7871991Y-14901623D02*
X7862467Y-14939718D01*
X7862467Y-14939718D02*
X7852943Y-14958766D01*
X7852943Y-14958766D02*
X7843419Y-14968290D01*
X7843419Y-14968290D02*
X7824372Y-14977814D01*
X7824372Y-14977814D02*
X7805324Y-14977814D01*
X7805324Y-14977814D02*
X7786276Y-14968290D01*
X7786276Y-14968290D02*
X7776753Y-14958766D01*
X7776753Y-14958766D02*
X7767229Y-14939718D01*
X7767229Y-14939718D02*
X7757705Y-14901623D01*
X7757705Y-14901623D02*
X7757705Y-14854004D01*
X7757705Y-14854004D02*
X7767229Y-14815909D01*
X7767229Y-14815909D02*
X7776753Y-14796861D01*
X7776753Y-14796861D02*
X7786276Y-14787338D01*
X7786276Y-14787338D02*
X7805324Y-14777814D01*
X7957705Y-14958766D02*
X7967229Y-14968290D01*
X7967229Y-14968290D02*
X7957705Y-14977814D01*
X7957705Y-14977814D02*
X7948181Y-14968290D01*
X7948181Y-14968290D02*
X7957705Y-14958766D01*
X7957705Y-14958766D02*
X7957705Y-14977814D01*
X8091038Y-14777814D02*
X8110086Y-14777814D01*
X8110086Y-14777814D02*
X8129134Y-14787338D01*
X8129134Y-14787338D02*
X8138657Y-14796861D01*
X8138657Y-14796861D02*
X8148181Y-14815909D01*
X8148181Y-14815909D02*
X8157705Y-14854004D01*
X8157705Y-14854004D02*
X8157705Y-14901623D01*
X8157705Y-14901623D02*
X8148181Y-14939718D01*
X8148181Y-14939718D02*
X8138657Y-14958766D01*
X8138657Y-14958766D02*
X8129134Y-14968290D01*
X8129134Y-14968290D02*
X8110086Y-14977814D01*
X8110086Y-14977814D02*
X8091038Y-14977814D01*
X8091038Y-14977814D02*
X8071991Y-14968290D01*
X8071991Y-14968290D02*
X8062467Y-14958766D01*
X8062467Y-14958766D02*
X8052943Y-14939718D01*
X8052943Y-14939718D02*
X8043419Y-14901623D01*
X8043419Y-14901623D02*
X8043419Y-14854004D01*
X8043419Y-14854004D02*
X8052943Y-14815909D01*
X8052943Y-14815909D02*
X8062467Y-14796861D01*
X8062467Y-14796861D02*
X8071991Y-14787338D01*
X8071991Y-14787338D02*
X8091038Y-14777814D01*
X8348181Y-14977814D02*
X8233896Y-14977814D01*
X8291038Y-14977814D02*
X8291038Y-14777814D01*
X8291038Y-14777814D02*
X8271991Y-14806385D01*
X8271991Y-14806385D02*
X8252943Y-14825433D01*
X8252943Y-14825433D02*
X8233896Y-14834957D01*
X8538658Y-14977814D02*
X8424372Y-14977814D01*
X8481515Y-14977814D02*
X8481515Y-14777814D01*
X8481515Y-14777814D02*
X8462467Y-14806385D01*
X8462467Y-14806385D02*
X8443419Y-14825433D01*
X8443419Y-14825433D02*
X8424372Y-14834957D01*
X8652943Y-14863528D02*
X8633896Y-14854004D01*
X8633896Y-14854004D02*
X8624372Y-14844480D01*
X8624372Y-14844480D02*
X8614848Y-14825433D01*
X8614848Y-14825433D02*
X8614848Y-14815909D01*
X8614848Y-14815909D02*
X8624372Y-14796861D01*
X8624372Y-14796861D02*
X8633896Y-14787338D01*
X8633896Y-14787338D02*
X8652943Y-14777814D01*
X8652943Y-14777814D02*
X8691039Y-14777814D01*
X8691039Y-14777814D02*
X8710086Y-14787338D01*
X8710086Y-14787338D02*
X8719610Y-14796861D01*
X8719610Y-14796861D02*
X8729134Y-14815909D01*
X8729134Y-14815909D02*
X8729134Y-14825433D01*
X8729134Y-14825433D02*
X8719610Y-14844480D01*
X8719610Y-14844480D02*
X8710086Y-14854004D01*
X8710086Y-14854004D02*
X8691039Y-14863528D01*
X8691039Y-14863528D02*
X8652943Y-14863528D01*
X8652943Y-14863528D02*
X8633896Y-14873052D01*
X8633896Y-14873052D02*
X8624372Y-14882576D01*
X8624372Y-14882576D02*
X8614848Y-14901623D01*
X8614848Y-14901623D02*
X8614848Y-14939718D01*
X8614848Y-14939718D02*
X8624372Y-14958766D01*
X8624372Y-14958766D02*
X8633896Y-14968290D01*
X8633896Y-14968290D02*
X8652943Y-14977814D01*
X8652943Y-14977814D02*
X8691039Y-14977814D01*
X8691039Y-14977814D02*
X8710086Y-14968290D01*
X8710086Y-14968290D02*
X8719610Y-14958766D01*
X8719610Y-14958766D02*
X8729134Y-14939718D01*
X8729134Y-14939718D02*
X8729134Y-14901623D01*
X8729134Y-14901623D02*
X8719610Y-14882576D01*
X8719610Y-14882576D02*
X8710086Y-14873052D01*
X8710086Y-14873052D02*
X8691039Y-14863528D01*
X8805324Y-14777814D02*
X8805324Y-14815909D01*
X8881515Y-14777814D02*
X8881515Y-14815909D01*
X9176753Y-15054004D02*
X9167229Y-15044480D01*
X9167229Y-15044480D02*
X9148181Y-15015909D01*
X9148181Y-15015909D02*
X9138658Y-14996861D01*
X9138658Y-14996861D02*
X9129134Y-14968290D01*
X9129134Y-14968290D02*
X9119610Y-14920671D01*
X9119610Y-14920671D02*
X9119610Y-14882576D01*
X9119610Y-14882576D02*
X9129134Y-14834957D01*
X9129134Y-14834957D02*
X9138658Y-14806385D01*
X9138658Y-14806385D02*
X9148181Y-14787338D01*
X9148181Y-14787338D02*
X9167229Y-14758766D01*
X9167229Y-14758766D02*
X9176753Y-14749242D01*
X9243420Y-14796861D02*
X9252943Y-14787338D01*
X9252943Y-14787338D02*
X9271991Y-14777814D01*
X9271991Y-14777814D02*
X9319610Y-14777814D01*
X9319610Y-14777814D02*
X9338658Y-14787338D01*
X9338658Y-14787338D02*
X9348181Y-14796861D01*
X9348181Y-14796861D02*
X9357705Y-14815909D01*
X9357705Y-14815909D02*
X9357705Y-14834957D01*
X9357705Y-14834957D02*
X9348181Y-14863528D01*
X9348181Y-14863528D02*
X9233896Y-14977814D01*
X9233896Y-14977814D02*
X9357705Y-14977814D01*
X9433896Y-14796861D02*
X9443420Y-14787338D01*
X9443420Y-14787338D02*
X9462467Y-14777814D01*
X9462467Y-14777814D02*
X9510086Y-14777814D01*
X9510086Y-14777814D02*
X9529134Y-14787338D01*
X9529134Y-14787338D02*
X9538658Y-14796861D01*
X9538658Y-14796861D02*
X9548181Y-14815909D01*
X9548181Y-14815909D02*
X9548181Y-14834957D01*
X9548181Y-14834957D02*
X9538658Y-14863528D01*
X9538658Y-14863528D02*
X9424372Y-14977814D01*
X9424372Y-14977814D02*
X9548181Y-14977814D01*
X9719610Y-14777814D02*
X9681515Y-14777814D01*
X9681515Y-14777814D02*
X9662467Y-14787338D01*
X9662467Y-14787338D02*
X9652943Y-14796861D01*
X9652943Y-14796861D02*
X9633896Y-14825433D01*
X9633896Y-14825433D02*
X9624372Y-14863528D01*
X9624372Y-14863528D02*
X9624372Y-14939718D01*
X9624372Y-14939718D02*
X9633896Y-14958766D01*
X9633896Y-14958766D02*
X9643420Y-14968290D01*
X9643420Y-14968290D02*
X9662467Y-14977814D01*
X9662467Y-14977814D02*
X9700562Y-14977814D01*
X9700562Y-14977814D02*
X9719610Y-14968290D01*
X9719610Y-14968290D02*
X9729134Y-14958766D01*
X9729134Y-14958766D02*
X9738658Y-14939718D01*
X9738658Y-14939718D02*
X9738658Y-14892099D01*
X9738658Y-14892099D02*
X9729134Y-14873052D01*
X9729134Y-14873052D02*
X9719610Y-14863528D01*
X9719610Y-14863528D02*
X9700562Y-14854004D01*
X9700562Y-14854004D02*
X9662467Y-14854004D01*
X9662467Y-14854004D02*
X9643420Y-14863528D01*
X9643420Y-14863528D02*
X9633896Y-14873052D01*
X9633896Y-14873052D02*
X9624372Y-14892099D01*
X9976753Y-14977814D02*
X9976753Y-14777814D01*
X10062467Y-14977814D02*
X10062467Y-14873052D01*
X10062467Y-14873052D02*
X10052943Y-14854004D01*
X10052943Y-14854004D02*
X10033896Y-14844480D01*
X10033896Y-14844480D02*
X10005324Y-14844480D01*
X10005324Y-14844480D02*
X9986277Y-14854004D01*
X9986277Y-14854004D02*
X9976753Y-14863528D01*
X10186277Y-14977814D02*
X10167229Y-14968290D01*
X10167229Y-14968290D02*
X10157705Y-14958766D01*
X10157705Y-14958766D02*
X10148182Y-14939718D01*
X10148182Y-14939718D02*
X10148182Y-14882576D01*
X10148182Y-14882576D02*
X10157705Y-14863528D01*
X10157705Y-14863528D02*
X10167229Y-14854004D01*
X10167229Y-14854004D02*
X10186277Y-14844480D01*
X10186277Y-14844480D02*
X10214848Y-14844480D01*
X10214848Y-14844480D02*
X10233896Y-14854004D01*
X10233896Y-14854004D02*
X10243420Y-14863528D01*
X10243420Y-14863528D02*
X10252943Y-14882576D01*
X10252943Y-14882576D02*
X10252943Y-14939718D01*
X10252943Y-14939718D02*
X10243420Y-14958766D01*
X10243420Y-14958766D02*
X10233896Y-14968290D01*
X10233896Y-14968290D02*
X10214848Y-14977814D01*
X10214848Y-14977814D02*
X10186277Y-14977814D01*
X10367229Y-14977814D02*
X10348182Y-14968290D01*
X10348182Y-14968290D02*
X10338658Y-14949242D01*
X10338658Y-14949242D02*
X10338658Y-14777814D01*
X10519610Y-14968290D02*
X10500563Y-14977814D01*
X10500563Y-14977814D02*
X10462467Y-14977814D01*
X10462467Y-14977814D02*
X10443420Y-14968290D01*
X10443420Y-14968290D02*
X10433896Y-14949242D01*
X10433896Y-14949242D02*
X10433896Y-14873052D01*
X10433896Y-14873052D02*
X10443420Y-14854004D01*
X10443420Y-14854004D02*
X10462467Y-14844480D01*
X10462467Y-14844480D02*
X10500563Y-14844480D01*
X10500563Y-14844480D02*
X10519610Y-14854004D01*
X10519610Y-14854004D02*
X10529134Y-14873052D01*
X10529134Y-14873052D02*
X10529134Y-14892099D01*
X10529134Y-14892099D02*
X10433896Y-14911147D01*
X10605324Y-14968290D02*
X10624372Y-14977814D01*
X10624372Y-14977814D02*
X10662467Y-14977814D01*
X10662467Y-14977814D02*
X10681515Y-14968290D01*
X10681515Y-14968290D02*
X10691039Y-14949242D01*
X10691039Y-14949242D02*
X10691039Y-14939718D01*
X10691039Y-14939718D02*
X10681515Y-14920671D01*
X10681515Y-14920671D02*
X10662467Y-14911147D01*
X10662467Y-14911147D02*
X10633896Y-14911147D01*
X10633896Y-14911147D02*
X10614848Y-14901623D01*
X10614848Y-14901623D02*
X10605324Y-14882576D01*
X10605324Y-14882576D02*
X10605324Y-14873052D01*
X10605324Y-14873052D02*
X10614848Y-14854004D01*
X10614848Y-14854004D02*
X10633896Y-14844480D01*
X10633896Y-14844480D02*
X10662467Y-14844480D01*
X10662467Y-14844480D02*
X10681515Y-14854004D01*
X10757705Y-15054004D02*
X10767229Y-15044480D01*
X10767229Y-15044480D02*
X10786277Y-15015909D01*
X10786277Y-15015909D02*
X10795801Y-14996861D01*
X10795801Y-14996861D02*
X10805324Y-14968290D01*
X10805324Y-14968290D02*
X10814848Y-14920671D01*
X10814848Y-14920671D02*
X10814848Y-14882576D01*
X10814848Y-14882576D02*
X10805324Y-14834957D01*
X10805324Y-14834957D02*
X10795801Y-14806385D01*
X10795801Y-14806385D02*
X10786277Y-14787338D01*
X10786277Y-14787338D02*
X10767229Y-14758766D01*
X10767229Y-14758766D02*
X10757705Y-14749242D01*
D10*
X5601690Y-15150330D02*
G75*
G02*
X5571690Y-15150330I-15000J0D01*
G01*
X5571690Y-15150330D02*
G75*
G02*
X5601690Y-15150330I15000J0D01*
G01*
D11*
X5900562Y-15041814D02*
X5919610Y-15041814D01*
X5919610Y-15041814D02*
X5938657Y-15051338D01*
X5938657Y-15051338D02*
X5948181Y-15060861D01*
X5948181Y-15060861D02*
X5957705Y-15079909D01*
X5957705Y-15079909D02*
X5967229Y-15118004D01*
X5967229Y-15118004D02*
X5967229Y-15165623D01*
X5967229Y-15165623D02*
X5957705Y-15203718D01*
X5957705Y-15203718D02*
X5948181Y-15222766D01*
X5948181Y-15222766D02*
X5938657Y-15232290D01*
X5938657Y-15232290D02*
X5919610Y-15241814D01*
X5919610Y-15241814D02*
X5900562Y-15241814D01*
X5900562Y-15241814D02*
X5881514Y-15232290D01*
X5881514Y-15232290D02*
X5871991Y-15222766D01*
X5871991Y-15222766D02*
X5862467Y-15203718D01*
X5862467Y-15203718D02*
X5852943Y-15165623D01*
X5852943Y-15165623D02*
X5852943Y-15118004D01*
X5852943Y-15118004D02*
X5862467Y-15079909D01*
X5862467Y-15079909D02*
X5871991Y-15060861D01*
X5871991Y-15060861D02*
X5881514Y-15051338D01*
X5881514Y-15051338D02*
X5900562Y-15041814D01*
X6052943Y-15222766D02*
X6062467Y-15232290D01*
X6062467Y-15232290D02*
X6052943Y-15241814D01*
X6052943Y-15241814D02*
X6043419Y-15232290D01*
X6043419Y-15232290D02*
X6052943Y-15222766D01*
X6052943Y-15222766D02*
X6052943Y-15241814D01*
X6129133Y-15041814D02*
X6252943Y-15041814D01*
X6252943Y-15041814D02*
X6186276Y-15118004D01*
X6186276Y-15118004D02*
X6214848Y-15118004D01*
X6214848Y-15118004D02*
X6233895Y-15127528D01*
X6233895Y-15127528D02*
X6243419Y-15137052D01*
X6243419Y-15137052D02*
X6252943Y-15156099D01*
X6252943Y-15156099D02*
X6252943Y-15203718D01*
X6252943Y-15203718D02*
X6243419Y-15222766D01*
X6243419Y-15222766D02*
X6233895Y-15232290D01*
X6233895Y-15232290D02*
X6214848Y-15241814D01*
X6214848Y-15241814D02*
X6157705Y-15241814D01*
X6157705Y-15241814D02*
X6138657Y-15232290D01*
X6138657Y-15232290D02*
X6129133Y-15222766D01*
X6376752Y-15041814D02*
X6395800Y-15041814D01*
X6395800Y-15041814D02*
X6414848Y-15051338D01*
X6414848Y-15051338D02*
X6424372Y-15060861D01*
X6424372Y-15060861D02*
X6433895Y-15079909D01*
X6433895Y-15079909D02*
X6443419Y-15118004D01*
X6443419Y-15118004D02*
X6443419Y-15165623D01*
X6443419Y-15165623D02*
X6433895Y-15203718D01*
X6433895Y-15203718D02*
X6424372Y-15222766D01*
X6424372Y-15222766D02*
X6414848Y-15232290D01*
X6414848Y-15232290D02*
X6395800Y-15241814D01*
X6395800Y-15241814D02*
X6376752Y-15241814D01*
X6376752Y-15241814D02*
X6357705Y-15232290D01*
X6357705Y-15232290D02*
X6348181Y-15222766D01*
X6348181Y-15222766D02*
X6338657Y-15203718D01*
X6338657Y-15203718D02*
X6329133Y-15165623D01*
X6329133Y-15165623D02*
X6329133Y-15118004D01*
X6329133Y-15118004D02*
X6338657Y-15079909D01*
X6338657Y-15079909D02*
X6348181Y-15060861D01*
X6348181Y-15060861D02*
X6357705Y-15051338D01*
X6357705Y-15051338D02*
X6376752Y-15041814D01*
X6567229Y-15041814D02*
X6586276Y-15041814D01*
X6586276Y-15041814D02*
X6605324Y-15051338D01*
X6605324Y-15051338D02*
X6614848Y-15060861D01*
X6614848Y-15060861D02*
X6624372Y-15079909D01*
X6624372Y-15079909D02*
X6633895Y-15118004D01*
X6633895Y-15118004D02*
X6633895Y-15165623D01*
X6633895Y-15165623D02*
X6624372Y-15203718D01*
X6624372Y-15203718D02*
X6614848Y-15222766D01*
X6614848Y-15222766D02*
X6605324Y-15232290D01*
X6605324Y-15232290D02*
X6586276Y-15241814D01*
X6586276Y-15241814D02*
X6567229Y-15241814D01*
X6567229Y-15241814D02*
X6548181Y-15232290D01*
X6548181Y-15232290D02*
X6538657Y-15222766D01*
X6538657Y-15222766D02*
X6529133Y-15203718D01*
X6529133Y-15203718D02*
X6519610Y-15165623D01*
X6519610Y-15165623D02*
X6519610Y-15118004D01*
X6519610Y-15118004D02*
X6529133Y-15079909D01*
X6529133Y-15079909D02*
X6538657Y-15060861D01*
X6538657Y-15060861D02*
X6548181Y-15051338D01*
X6548181Y-15051338D02*
X6567229Y-15041814D01*
X6719610Y-15241814D02*
X6719610Y-15108480D01*
X6719610Y-15127528D02*
X6729133Y-15118004D01*
X6729133Y-15118004D02*
X6748181Y-15108480D01*
X6748181Y-15108480D02*
X6776753Y-15108480D01*
X6776753Y-15108480D02*
X6795800Y-15118004D01*
X6795800Y-15118004D02*
X6805324Y-15137052D01*
X6805324Y-15137052D02*
X6805324Y-15241814D01*
X6805324Y-15137052D02*
X6814848Y-15118004D01*
X6814848Y-15118004D02*
X6833895Y-15108480D01*
X6833895Y-15108480D02*
X6862467Y-15108480D01*
X6862467Y-15108480D02*
X6881514Y-15118004D01*
X6881514Y-15118004D02*
X6891038Y-15137052D01*
X6891038Y-15137052D02*
X6891038Y-15241814D01*
X6986276Y-15241814D02*
X6986276Y-15108480D01*
X6986276Y-15127528D02*
X6995800Y-15118004D01*
X6995800Y-15118004D02*
X7014848Y-15108480D01*
X7014848Y-15108480D02*
X7043419Y-15108480D01*
X7043419Y-15108480D02*
X7062467Y-15118004D01*
X7062467Y-15118004D02*
X7071991Y-15137052D01*
X7071991Y-15137052D02*
X7071991Y-15241814D01*
X7071991Y-15137052D02*
X7081514Y-15118004D01*
X7081514Y-15118004D02*
X7100562Y-15108480D01*
X7100562Y-15108480D02*
X7129133Y-15108480D01*
X7129133Y-15108480D02*
X7148181Y-15118004D01*
X7148181Y-15118004D02*
X7157705Y-15137052D01*
X7157705Y-15137052D02*
X7157705Y-15241814D01*
X7548181Y-15032290D02*
X7376753Y-15289433D01*
X7805324Y-15041814D02*
X7824372Y-15041814D01*
X7824372Y-15041814D02*
X7843419Y-15051338D01*
X7843419Y-15051338D02*
X7852943Y-15060861D01*
X7852943Y-15060861D02*
X7862467Y-15079909D01*
X7862467Y-15079909D02*
X7871991Y-15118004D01*
X7871991Y-15118004D02*
X7871991Y-15165623D01*
X7871991Y-15165623D02*
X7862467Y-15203718D01*
X7862467Y-15203718D02*
X7852943Y-15222766D01*
X7852943Y-15222766D02*
X7843419Y-15232290D01*
X7843419Y-15232290D02*
X7824372Y-15241814D01*
X7824372Y-15241814D02*
X7805324Y-15241814D01*
X7805324Y-15241814D02*
X7786276Y-15232290D01*
X7786276Y-15232290D02*
X7776753Y-15222766D01*
X7776753Y-15222766D02*
X7767229Y-15203718D01*
X7767229Y-15203718D02*
X7757705Y-15165623D01*
X7757705Y-15165623D02*
X7757705Y-15118004D01*
X7757705Y-15118004D02*
X7767229Y-15079909D01*
X7767229Y-15079909D02*
X7776753Y-15060861D01*
X7776753Y-15060861D02*
X7786276Y-15051338D01*
X7786276Y-15051338D02*
X7805324Y-15041814D01*
X7957705Y-15222766D02*
X7967229Y-15232290D01*
X7967229Y-15232290D02*
X7957705Y-15241814D01*
X7957705Y-15241814D02*
X7948181Y-15232290D01*
X7948181Y-15232290D02*
X7957705Y-15222766D01*
X7957705Y-15222766D02*
X7957705Y-15241814D01*
X8091038Y-15041814D02*
X8110086Y-15041814D01*
X8110086Y-15041814D02*
X8129134Y-15051338D01*
X8129134Y-15051338D02*
X8138657Y-15060861D01*
X8138657Y-15060861D02*
X8148181Y-15079909D01*
X8148181Y-15079909D02*
X8157705Y-15118004D01*
X8157705Y-15118004D02*
X8157705Y-15165623D01*
X8157705Y-15165623D02*
X8148181Y-15203718D01*
X8148181Y-15203718D02*
X8138657Y-15222766D01*
X8138657Y-15222766D02*
X8129134Y-15232290D01*
X8129134Y-15232290D02*
X8110086Y-15241814D01*
X8110086Y-15241814D02*
X8091038Y-15241814D01*
X8091038Y-15241814D02*
X8071991Y-15232290D01*
X8071991Y-15232290D02*
X8062467Y-15222766D01*
X8062467Y-15222766D02*
X8052943Y-15203718D01*
X8052943Y-15203718D02*
X8043419Y-15165623D01*
X8043419Y-15165623D02*
X8043419Y-15118004D01*
X8043419Y-15118004D02*
X8052943Y-15079909D01*
X8052943Y-15079909D02*
X8062467Y-15060861D01*
X8062467Y-15060861D02*
X8071991Y-15051338D01*
X8071991Y-15051338D02*
X8091038Y-15041814D01*
X8348181Y-15241814D02*
X8233896Y-15241814D01*
X8291038Y-15241814D02*
X8291038Y-15041814D01*
X8291038Y-15041814D02*
X8271991Y-15070385D01*
X8271991Y-15070385D02*
X8252943Y-15089433D01*
X8252943Y-15089433D02*
X8233896Y-15098957D01*
X8538658Y-15241814D02*
X8424372Y-15241814D01*
X8481515Y-15241814D02*
X8481515Y-15041814D01*
X8481515Y-15041814D02*
X8462467Y-15070385D01*
X8462467Y-15070385D02*
X8443419Y-15089433D01*
X8443419Y-15089433D02*
X8424372Y-15098957D01*
X8652943Y-15127528D02*
X8633896Y-15118004D01*
X8633896Y-15118004D02*
X8624372Y-15108480D01*
X8624372Y-15108480D02*
X8614848Y-15089433D01*
X8614848Y-15089433D02*
X8614848Y-15079909D01*
X8614848Y-15079909D02*
X8624372Y-15060861D01*
X8624372Y-15060861D02*
X8633896Y-15051338D01*
X8633896Y-15051338D02*
X8652943Y-15041814D01*
X8652943Y-15041814D02*
X8691039Y-15041814D01*
X8691039Y-15041814D02*
X8710086Y-15051338D01*
X8710086Y-15051338D02*
X8719610Y-15060861D01*
X8719610Y-15060861D02*
X8729134Y-15079909D01*
X8729134Y-15079909D02*
X8729134Y-15089433D01*
X8729134Y-15089433D02*
X8719610Y-15108480D01*
X8719610Y-15108480D02*
X8710086Y-15118004D01*
X8710086Y-15118004D02*
X8691039Y-15127528D01*
X8691039Y-15127528D02*
X8652943Y-15127528D01*
X8652943Y-15127528D02*
X8633896Y-15137052D01*
X8633896Y-15137052D02*
X8624372Y-15146576D01*
X8624372Y-15146576D02*
X8614848Y-15165623D01*
X8614848Y-15165623D02*
X8614848Y-15203718D01*
X8614848Y-15203718D02*
X8624372Y-15222766D01*
X8624372Y-15222766D02*
X8633896Y-15232290D01*
X8633896Y-15232290D02*
X8652943Y-15241814D01*
X8652943Y-15241814D02*
X8691039Y-15241814D01*
X8691039Y-15241814D02*
X8710086Y-15232290D01*
X8710086Y-15232290D02*
X8719610Y-15222766D01*
X8719610Y-15222766D02*
X8729134Y-15203718D01*
X8729134Y-15203718D02*
X8729134Y-15165623D01*
X8729134Y-15165623D02*
X8719610Y-15146576D01*
X8719610Y-15146576D02*
X8710086Y-15137052D01*
X8710086Y-15137052D02*
X8691039Y-15127528D01*
X8805324Y-15041814D02*
X8805324Y-15079909D01*
X8881515Y-15041814D02*
X8881515Y-15079909D01*
X9176753Y-15318004D02*
X9167229Y-15308480D01*
X9167229Y-15308480D02*
X9148181Y-15279909D01*
X9148181Y-15279909D02*
X9138658Y-15260861D01*
X9138658Y-15260861D02*
X9129134Y-15232290D01*
X9129134Y-15232290D02*
X9119610Y-15184671D01*
X9119610Y-15184671D02*
X9119610Y-15146576D01*
X9119610Y-15146576D02*
X9129134Y-15098957D01*
X9129134Y-15098957D02*
X9138658Y-15070385D01*
X9138658Y-15070385D02*
X9148181Y-15051338D01*
X9148181Y-15051338D02*
X9167229Y-15022766D01*
X9167229Y-15022766D02*
X9176753Y-15013242D01*
X9357705Y-15241814D02*
X9243420Y-15241814D01*
X9300562Y-15241814D02*
X9300562Y-15041814D01*
X9300562Y-15041814D02*
X9281515Y-15070385D01*
X9281515Y-15070385D02*
X9262467Y-15089433D01*
X9262467Y-15089433D02*
X9243420Y-15098957D01*
X9433896Y-15060861D02*
X9443420Y-15051338D01*
X9443420Y-15051338D02*
X9462467Y-15041814D01*
X9462467Y-15041814D02*
X9510086Y-15041814D01*
X9510086Y-15041814D02*
X9529134Y-15051338D01*
X9529134Y-15051338D02*
X9538658Y-15060861D01*
X9538658Y-15060861D02*
X9548181Y-15079909D01*
X9548181Y-15079909D02*
X9548181Y-15098957D01*
X9548181Y-15098957D02*
X9538658Y-15127528D01*
X9538658Y-15127528D02*
X9424372Y-15241814D01*
X9424372Y-15241814D02*
X9548181Y-15241814D01*
X9786277Y-15241814D02*
X9786277Y-15041814D01*
X9871991Y-15241814D02*
X9871991Y-15137052D01*
X9871991Y-15137052D02*
X9862467Y-15118004D01*
X9862467Y-15118004D02*
X9843420Y-15108480D01*
X9843420Y-15108480D02*
X9814848Y-15108480D01*
X9814848Y-15108480D02*
X9795801Y-15118004D01*
X9795801Y-15118004D02*
X9786277Y-15127528D01*
X9995801Y-15241814D02*
X9976753Y-15232290D01*
X9976753Y-15232290D02*
X9967229Y-15222766D01*
X9967229Y-15222766D02*
X9957705Y-15203718D01*
X9957705Y-15203718D02*
X9957705Y-15146576D01*
X9957705Y-15146576D02*
X9967229Y-15127528D01*
X9967229Y-15127528D02*
X9976753Y-15118004D01*
X9976753Y-15118004D02*
X9995801Y-15108480D01*
X9995801Y-15108480D02*
X10024372Y-15108480D01*
X10024372Y-15108480D02*
X10043420Y-15118004D01*
X10043420Y-15118004D02*
X10052943Y-15127528D01*
X10052943Y-15127528D02*
X10062467Y-15146576D01*
X10062467Y-15146576D02*
X10062467Y-15203718D01*
X10062467Y-15203718D02*
X10052943Y-15222766D01*
X10052943Y-15222766D02*
X10043420Y-15232290D01*
X10043420Y-15232290D02*
X10024372Y-15241814D01*
X10024372Y-15241814D02*
X9995801Y-15241814D01*
X10176753Y-15241814D02*
X10157705Y-15232290D01*
X10157705Y-15232290D02*
X10148182Y-15213242D01*
X10148182Y-15213242D02*
X10148182Y-15041814D01*
X10329134Y-15232290D02*
X10310086Y-15241814D01*
X10310086Y-15241814D02*
X10271991Y-15241814D01*
X10271991Y-15241814D02*
X10252943Y-15232290D01*
X10252943Y-15232290D02*
X10243420Y-15213242D01*
X10243420Y-15213242D02*
X10243420Y-15137052D01*
X10243420Y-15137052D02*
X10252943Y-15118004D01*
X10252943Y-15118004D02*
X10271991Y-15108480D01*
X10271991Y-15108480D02*
X10310086Y-15108480D01*
X10310086Y-15108480D02*
X10329134Y-15118004D01*
X10329134Y-15118004D02*
X10338658Y-15137052D01*
X10338658Y-15137052D02*
X10338658Y-15156099D01*
X10338658Y-15156099D02*
X10243420Y-15175147D01*
X10414848Y-15232290D02*
X10433896Y-15241814D01*
X10433896Y-15241814D02*
X10471991Y-15241814D01*
X10471991Y-15241814D02*
X10491039Y-15232290D01*
X10491039Y-15232290D02*
X10500563Y-15213242D01*
X10500563Y-15213242D02*
X10500563Y-15203718D01*
X10500563Y-15203718D02*
X10491039Y-15184671D01*
X10491039Y-15184671D02*
X10471991Y-15175147D01*
X10471991Y-15175147D02*
X10443420Y-15175147D01*
X10443420Y-15175147D02*
X10424372Y-15165623D01*
X10424372Y-15165623D02*
X10414848Y-15146576D01*
X10414848Y-15146576D02*
X10414848Y-15137052D01*
X10414848Y-15137052D02*
X10424372Y-15118004D01*
X10424372Y-15118004D02*
X10443420Y-15108480D01*
X10443420Y-15108480D02*
X10471991Y-15108480D01*
X10471991Y-15108480D02*
X10491039Y-15118004D01*
X10567229Y-15318004D02*
X10576753Y-15308480D01*
X10576753Y-15308480D02*
X10595801Y-15279909D01*
X10595801Y-15279909D02*
X10605324Y-15260861D01*
X10605324Y-15260861D02*
X10614848Y-15232290D01*
X10614848Y-15232290D02*
X10624372Y-15184671D01*
X10624372Y-15184671D02*
X10624372Y-15146576D01*
X10624372Y-15146576D02*
X10614848Y-15098957D01*
X10614848Y-15098957D02*
X10605324Y-15070385D01*
X10605324Y-15070385D02*
X10595801Y-15051338D01*
X10595801Y-15051338D02*
X10576753Y-15022766D01*
X10576753Y-15022766D02*
X10567229Y-15013242D01*
D10*
X5581690Y-15394330D02*
X5581690Y-15434330D01*
X5561690Y-15414330D02*
X5601690Y-15414330D01*
D11*
X5900562Y-15305814D02*
X5919610Y-15305814D01*
X5919610Y-15305814D02*
X5938657Y-15315338D01*
X5938657Y-15315338D02*
X5948181Y-15324861D01*
X5948181Y-15324861D02*
X5957705Y-15343909D01*
X5957705Y-15343909D02*
X5967229Y-15382004D01*
X5967229Y-15382004D02*
X5967229Y-15429623D01*
X5967229Y-15429623D02*
X5957705Y-15467718D01*
X5957705Y-15467718D02*
X5948181Y-15486766D01*
X5948181Y-15486766D02*
X5938657Y-15496290D01*
X5938657Y-15496290D02*
X5919610Y-15505814D01*
X5919610Y-15505814D02*
X5900562Y-15505814D01*
X5900562Y-15505814D02*
X5881514Y-15496290D01*
X5881514Y-15496290D02*
X5871991Y-15486766D01*
X5871991Y-15486766D02*
X5862467Y-15467718D01*
X5862467Y-15467718D02*
X5852943Y-15429623D01*
X5852943Y-15429623D02*
X5852943Y-15382004D01*
X5852943Y-15382004D02*
X5862467Y-15343909D01*
X5862467Y-15343909D02*
X5871991Y-15324861D01*
X5871991Y-15324861D02*
X5881514Y-15315338D01*
X5881514Y-15315338D02*
X5900562Y-15305814D01*
X6052943Y-15486766D02*
X6062467Y-15496290D01*
X6062467Y-15496290D02*
X6052943Y-15505814D01*
X6052943Y-15505814D02*
X6043419Y-15496290D01*
X6043419Y-15496290D02*
X6052943Y-15486766D01*
X6052943Y-15486766D02*
X6052943Y-15505814D01*
X6233895Y-15372480D02*
X6233895Y-15505814D01*
X6186276Y-15296290D02*
X6138657Y-15439147D01*
X6138657Y-15439147D02*
X6262467Y-15439147D01*
X6376752Y-15305814D02*
X6395800Y-15305814D01*
X6395800Y-15305814D02*
X6414848Y-15315338D01*
X6414848Y-15315338D02*
X6424372Y-15324861D01*
X6424372Y-15324861D02*
X6433895Y-15343909D01*
X6433895Y-15343909D02*
X6443419Y-15382004D01*
X6443419Y-15382004D02*
X6443419Y-15429623D01*
X6443419Y-15429623D02*
X6433895Y-15467718D01*
X6433895Y-15467718D02*
X6424372Y-15486766D01*
X6424372Y-15486766D02*
X6414848Y-15496290D01*
X6414848Y-15496290D02*
X6395800Y-15505814D01*
X6395800Y-15505814D02*
X6376752Y-15505814D01*
X6376752Y-15505814D02*
X6357705Y-15496290D01*
X6357705Y-15496290D02*
X6348181Y-15486766D01*
X6348181Y-15486766D02*
X6338657Y-15467718D01*
X6338657Y-15467718D02*
X6329133Y-15429623D01*
X6329133Y-15429623D02*
X6329133Y-15382004D01*
X6329133Y-15382004D02*
X6338657Y-15343909D01*
X6338657Y-15343909D02*
X6348181Y-15324861D01*
X6348181Y-15324861D02*
X6357705Y-15315338D01*
X6357705Y-15315338D02*
X6376752Y-15305814D01*
X6567229Y-15305814D02*
X6586276Y-15305814D01*
X6586276Y-15305814D02*
X6605324Y-15315338D01*
X6605324Y-15315338D02*
X6614848Y-15324861D01*
X6614848Y-15324861D02*
X6624372Y-15343909D01*
X6624372Y-15343909D02*
X6633895Y-15382004D01*
X6633895Y-15382004D02*
X6633895Y-15429623D01*
X6633895Y-15429623D02*
X6624372Y-15467718D01*
X6624372Y-15467718D02*
X6614848Y-15486766D01*
X6614848Y-15486766D02*
X6605324Y-15496290D01*
X6605324Y-15496290D02*
X6586276Y-15505814D01*
X6586276Y-15505814D02*
X6567229Y-15505814D01*
X6567229Y-15505814D02*
X6548181Y-15496290D01*
X6548181Y-15496290D02*
X6538657Y-15486766D01*
X6538657Y-15486766D02*
X6529133Y-15467718D01*
X6529133Y-15467718D02*
X6519610Y-15429623D01*
X6519610Y-15429623D02*
X6519610Y-15382004D01*
X6519610Y-15382004D02*
X6529133Y-15343909D01*
X6529133Y-15343909D02*
X6538657Y-15324861D01*
X6538657Y-15324861D02*
X6548181Y-15315338D01*
X6548181Y-15315338D02*
X6567229Y-15305814D01*
X6719610Y-15505814D02*
X6719610Y-15372480D01*
X6719610Y-15391528D02*
X6729133Y-15382004D01*
X6729133Y-15382004D02*
X6748181Y-15372480D01*
X6748181Y-15372480D02*
X6776753Y-15372480D01*
X6776753Y-15372480D02*
X6795800Y-15382004D01*
X6795800Y-15382004D02*
X6805324Y-15401052D01*
X6805324Y-15401052D02*
X6805324Y-15505814D01*
X6805324Y-15401052D02*
X6814848Y-15382004D01*
X6814848Y-15382004D02*
X6833895Y-15372480D01*
X6833895Y-15372480D02*
X6862467Y-15372480D01*
X6862467Y-15372480D02*
X6881514Y-15382004D01*
X6881514Y-15382004D02*
X6891038Y-15401052D01*
X6891038Y-15401052D02*
X6891038Y-15505814D01*
X6986276Y-15505814D02*
X6986276Y-15372480D01*
X6986276Y-15391528D02*
X6995800Y-15382004D01*
X6995800Y-15382004D02*
X7014848Y-15372480D01*
X7014848Y-15372480D02*
X7043419Y-15372480D01*
X7043419Y-15372480D02*
X7062467Y-15382004D01*
X7062467Y-15382004D02*
X7071991Y-15401052D01*
X7071991Y-15401052D02*
X7071991Y-15505814D01*
X7071991Y-15401052D02*
X7081514Y-15382004D01*
X7081514Y-15382004D02*
X7100562Y-15372480D01*
X7100562Y-15372480D02*
X7129133Y-15372480D01*
X7129133Y-15372480D02*
X7148181Y-15382004D01*
X7148181Y-15382004D02*
X7157705Y-15401052D01*
X7157705Y-15401052D02*
X7157705Y-15505814D01*
X7548181Y-15296290D02*
X7376753Y-15553433D01*
X7805324Y-15305814D02*
X7824372Y-15305814D01*
X7824372Y-15305814D02*
X7843419Y-15315338D01*
X7843419Y-15315338D02*
X7852943Y-15324861D01*
X7852943Y-15324861D02*
X7862467Y-15343909D01*
X7862467Y-15343909D02*
X7871991Y-15382004D01*
X7871991Y-15382004D02*
X7871991Y-15429623D01*
X7871991Y-15429623D02*
X7862467Y-15467718D01*
X7862467Y-15467718D02*
X7852943Y-15486766D01*
X7852943Y-15486766D02*
X7843419Y-15496290D01*
X7843419Y-15496290D02*
X7824372Y-15505814D01*
X7824372Y-15505814D02*
X7805324Y-15505814D01*
X7805324Y-15505814D02*
X7786276Y-15496290D01*
X7786276Y-15496290D02*
X7776753Y-15486766D01*
X7776753Y-15486766D02*
X7767229Y-15467718D01*
X7767229Y-15467718D02*
X7757705Y-15429623D01*
X7757705Y-15429623D02*
X7757705Y-15382004D01*
X7757705Y-15382004D02*
X7767229Y-15343909D01*
X7767229Y-15343909D02*
X7776753Y-15324861D01*
X7776753Y-15324861D02*
X7786276Y-15315338D01*
X7786276Y-15315338D02*
X7805324Y-15305814D01*
X7957705Y-15486766D02*
X7967229Y-15496290D01*
X7967229Y-15496290D02*
X7957705Y-15505814D01*
X7957705Y-15505814D02*
X7948181Y-15496290D01*
X7948181Y-15496290D02*
X7957705Y-15486766D01*
X7957705Y-15486766D02*
X7957705Y-15505814D01*
X8091038Y-15305814D02*
X8110086Y-15305814D01*
X8110086Y-15305814D02*
X8129134Y-15315338D01*
X8129134Y-15315338D02*
X8138657Y-15324861D01*
X8138657Y-15324861D02*
X8148181Y-15343909D01*
X8148181Y-15343909D02*
X8157705Y-15382004D01*
X8157705Y-15382004D02*
X8157705Y-15429623D01*
X8157705Y-15429623D02*
X8148181Y-15467718D01*
X8148181Y-15467718D02*
X8138657Y-15486766D01*
X8138657Y-15486766D02*
X8129134Y-15496290D01*
X8129134Y-15496290D02*
X8110086Y-15505814D01*
X8110086Y-15505814D02*
X8091038Y-15505814D01*
X8091038Y-15505814D02*
X8071991Y-15496290D01*
X8071991Y-15496290D02*
X8062467Y-15486766D01*
X8062467Y-15486766D02*
X8052943Y-15467718D01*
X8052943Y-15467718D02*
X8043419Y-15429623D01*
X8043419Y-15429623D02*
X8043419Y-15382004D01*
X8043419Y-15382004D02*
X8052943Y-15343909D01*
X8052943Y-15343909D02*
X8062467Y-15324861D01*
X8062467Y-15324861D02*
X8071991Y-15315338D01*
X8071991Y-15315338D02*
X8091038Y-15305814D01*
X8348181Y-15505814D02*
X8233896Y-15505814D01*
X8291038Y-15505814D02*
X8291038Y-15305814D01*
X8291038Y-15305814D02*
X8271991Y-15334385D01*
X8271991Y-15334385D02*
X8252943Y-15353433D01*
X8252943Y-15353433D02*
X8233896Y-15362957D01*
X8529134Y-15305814D02*
X8433896Y-15305814D01*
X8433896Y-15305814D02*
X8424372Y-15401052D01*
X8424372Y-15401052D02*
X8433896Y-15391528D01*
X8433896Y-15391528D02*
X8452943Y-15382004D01*
X8452943Y-15382004D02*
X8500562Y-15382004D01*
X8500562Y-15382004D02*
X8519610Y-15391528D01*
X8519610Y-15391528D02*
X8529134Y-15401052D01*
X8529134Y-15401052D02*
X8538658Y-15420099D01*
X8538658Y-15420099D02*
X8538658Y-15467718D01*
X8538658Y-15467718D02*
X8529134Y-15486766D01*
X8529134Y-15486766D02*
X8519610Y-15496290D01*
X8519610Y-15496290D02*
X8500562Y-15505814D01*
X8500562Y-15505814D02*
X8452943Y-15505814D01*
X8452943Y-15505814D02*
X8433896Y-15496290D01*
X8433896Y-15496290D02*
X8424372Y-15486766D01*
X8605324Y-15305814D02*
X8738658Y-15305814D01*
X8738658Y-15305814D02*
X8652943Y-15505814D01*
X8805324Y-15305814D02*
X8805324Y-15343909D01*
X8881515Y-15305814D02*
X8881515Y-15343909D01*
X9176753Y-15582004D02*
X9167229Y-15572480D01*
X9167229Y-15572480D02*
X9148181Y-15543909D01*
X9148181Y-15543909D02*
X9138658Y-15524861D01*
X9138658Y-15524861D02*
X9129134Y-15496290D01*
X9129134Y-15496290D02*
X9119610Y-15448671D01*
X9119610Y-15448671D02*
X9119610Y-15410576D01*
X9119610Y-15410576D02*
X9129134Y-15362957D01*
X9129134Y-15362957D02*
X9138658Y-15334385D01*
X9138658Y-15334385D02*
X9148181Y-15315338D01*
X9148181Y-15315338D02*
X9167229Y-15286766D01*
X9167229Y-15286766D02*
X9176753Y-15277242D01*
X9233896Y-15305814D02*
X9367229Y-15305814D01*
X9367229Y-15305814D02*
X9281515Y-15505814D01*
X9595801Y-15505814D02*
X9595801Y-15305814D01*
X9681515Y-15505814D02*
X9681515Y-15401052D01*
X9681515Y-15401052D02*
X9671991Y-15382004D01*
X9671991Y-15382004D02*
X9652943Y-15372480D01*
X9652943Y-15372480D02*
X9624372Y-15372480D01*
X9624372Y-15372480D02*
X9605324Y-15382004D01*
X9605324Y-15382004D02*
X9595801Y-15391528D01*
X9805324Y-15505814D02*
X9786277Y-15496290D01*
X9786277Y-15496290D02*
X9776753Y-15486766D01*
X9776753Y-15486766D02*
X9767229Y-15467718D01*
X9767229Y-15467718D02*
X9767229Y-15410576D01*
X9767229Y-15410576D02*
X9776753Y-15391528D01*
X9776753Y-15391528D02*
X9786277Y-15382004D01*
X9786277Y-15382004D02*
X9805324Y-15372480D01*
X9805324Y-15372480D02*
X9833896Y-15372480D01*
X9833896Y-15372480D02*
X9852943Y-15382004D01*
X9852943Y-15382004D02*
X9862467Y-15391528D01*
X9862467Y-15391528D02*
X9871991Y-15410576D01*
X9871991Y-15410576D02*
X9871991Y-15467718D01*
X9871991Y-15467718D02*
X9862467Y-15486766D01*
X9862467Y-15486766D02*
X9852943Y-15496290D01*
X9852943Y-15496290D02*
X9833896Y-15505814D01*
X9833896Y-15505814D02*
X9805324Y-15505814D01*
X9986277Y-15505814D02*
X9967229Y-15496290D01*
X9967229Y-15496290D02*
X9957705Y-15477242D01*
X9957705Y-15477242D02*
X9957705Y-15305814D01*
X10138658Y-15496290D02*
X10119610Y-15505814D01*
X10119610Y-15505814D02*
X10081515Y-15505814D01*
X10081515Y-15505814D02*
X10062467Y-15496290D01*
X10062467Y-15496290D02*
X10052943Y-15477242D01*
X10052943Y-15477242D02*
X10052943Y-15401052D01*
X10052943Y-15401052D02*
X10062467Y-15382004D01*
X10062467Y-15382004D02*
X10081515Y-15372480D01*
X10081515Y-15372480D02*
X10119610Y-15372480D01*
X10119610Y-15372480D02*
X10138658Y-15382004D01*
X10138658Y-15382004D02*
X10148182Y-15401052D01*
X10148182Y-15401052D02*
X10148182Y-15420099D01*
X10148182Y-15420099D02*
X10052943Y-15439147D01*
X10224372Y-15496290D02*
X10243420Y-15505814D01*
X10243420Y-15505814D02*
X10281515Y-15505814D01*
X10281515Y-15505814D02*
X10300563Y-15496290D01*
X10300563Y-15496290D02*
X10310086Y-15477242D01*
X10310086Y-15477242D02*
X10310086Y-15467718D01*
X10310086Y-15467718D02*
X10300563Y-15448671D01*
X10300563Y-15448671D02*
X10281515Y-15439147D01*
X10281515Y-15439147D02*
X10252943Y-15439147D01*
X10252943Y-15439147D02*
X10233896Y-15429623D01*
X10233896Y-15429623D02*
X10224372Y-15410576D01*
X10224372Y-15410576D02*
X10224372Y-15401052D01*
X10224372Y-15401052D02*
X10233896Y-15382004D01*
X10233896Y-15382004D02*
X10252943Y-15372480D01*
X10252943Y-15372480D02*
X10281515Y-15372480D01*
X10281515Y-15372480D02*
X10300563Y-15382004D01*
X10376753Y-15582004D02*
X10386277Y-15572480D01*
X10386277Y-15572480D02*
X10405324Y-15543909D01*
X10405324Y-15543909D02*
X10414848Y-15524861D01*
X10414848Y-15524861D02*
X10424372Y-15496290D01*
X10424372Y-15496290D02*
X10433896Y-15448671D01*
X10433896Y-15448671D02*
X10433896Y-15410576D01*
X10433896Y-15410576D02*
X10424372Y-15362957D01*
X10424372Y-15362957D02*
X10414848Y-15334385D01*
X10414848Y-15334385D02*
X10405324Y-15315338D01*
X10405324Y-15315338D02*
X10386277Y-15286766D01*
X10386277Y-15286766D02*
X10376753Y-15277242D01*
D10*
X5592903Y-15699543D02*
X5592903Y-15657117D01*
X5550477Y-15657117D01*
X5550477Y-15699543D01*
X5592903Y-15699543D01*
D11*
X5900562Y-15569814D02*
X5919610Y-15569814D01*
X5919610Y-15569814D02*
X5938657Y-15579338D01*
X5938657Y-15579338D02*
X5948181Y-15588861D01*
X5948181Y-15588861D02*
X5957705Y-15607909D01*
X5957705Y-15607909D02*
X5967229Y-15646004D01*
X5967229Y-15646004D02*
X5967229Y-15693623D01*
X5967229Y-15693623D02*
X5957705Y-15731718D01*
X5957705Y-15731718D02*
X5948181Y-15750766D01*
X5948181Y-15750766D02*
X5938657Y-15760290D01*
X5938657Y-15760290D02*
X5919610Y-15769814D01*
X5919610Y-15769814D02*
X5900562Y-15769814D01*
X5900562Y-15769814D02*
X5881514Y-15760290D01*
X5881514Y-15760290D02*
X5871991Y-15750766D01*
X5871991Y-15750766D02*
X5862467Y-15731718D01*
X5862467Y-15731718D02*
X5852943Y-15693623D01*
X5852943Y-15693623D02*
X5852943Y-15646004D01*
X5852943Y-15646004D02*
X5862467Y-15607909D01*
X5862467Y-15607909D02*
X5871991Y-15588861D01*
X5871991Y-15588861D02*
X5881514Y-15579338D01*
X5881514Y-15579338D02*
X5900562Y-15569814D01*
X6052943Y-15750766D02*
X6062467Y-15760290D01*
X6062467Y-15760290D02*
X6052943Y-15769814D01*
X6052943Y-15769814D02*
X6043419Y-15760290D01*
X6043419Y-15760290D02*
X6052943Y-15750766D01*
X6052943Y-15750766D02*
X6052943Y-15769814D01*
X6233895Y-15569814D02*
X6195800Y-15569814D01*
X6195800Y-15569814D02*
X6176752Y-15579338D01*
X6176752Y-15579338D02*
X6167229Y-15588861D01*
X6167229Y-15588861D02*
X6148181Y-15617433D01*
X6148181Y-15617433D02*
X6138657Y-15655528D01*
X6138657Y-15655528D02*
X6138657Y-15731718D01*
X6138657Y-15731718D02*
X6148181Y-15750766D01*
X6148181Y-15750766D02*
X6157705Y-15760290D01*
X6157705Y-15760290D02*
X6176752Y-15769814D01*
X6176752Y-15769814D02*
X6214848Y-15769814D01*
X6214848Y-15769814D02*
X6233895Y-15760290D01*
X6233895Y-15760290D02*
X6243419Y-15750766D01*
X6243419Y-15750766D02*
X6252943Y-15731718D01*
X6252943Y-15731718D02*
X6252943Y-15684099D01*
X6252943Y-15684099D02*
X6243419Y-15665052D01*
X6243419Y-15665052D02*
X6233895Y-15655528D01*
X6233895Y-15655528D02*
X6214848Y-15646004D01*
X6214848Y-15646004D02*
X6176752Y-15646004D01*
X6176752Y-15646004D02*
X6157705Y-15655528D01*
X6157705Y-15655528D02*
X6148181Y-15665052D01*
X6148181Y-15665052D02*
X6138657Y-15684099D01*
X6376752Y-15569814D02*
X6395800Y-15569814D01*
X6395800Y-15569814D02*
X6414848Y-15579338D01*
X6414848Y-15579338D02*
X6424372Y-15588861D01*
X6424372Y-15588861D02*
X6433895Y-15607909D01*
X6433895Y-15607909D02*
X6443419Y-15646004D01*
X6443419Y-15646004D02*
X6443419Y-15693623D01*
X6443419Y-15693623D02*
X6433895Y-15731718D01*
X6433895Y-15731718D02*
X6424372Y-15750766D01*
X6424372Y-15750766D02*
X6414848Y-15760290D01*
X6414848Y-15760290D02*
X6395800Y-15769814D01*
X6395800Y-15769814D02*
X6376752Y-15769814D01*
X6376752Y-15769814D02*
X6357705Y-15760290D01*
X6357705Y-15760290D02*
X6348181Y-15750766D01*
X6348181Y-15750766D02*
X6338657Y-15731718D01*
X6338657Y-15731718D02*
X6329133Y-15693623D01*
X6329133Y-15693623D02*
X6329133Y-15646004D01*
X6329133Y-15646004D02*
X6338657Y-15607909D01*
X6338657Y-15607909D02*
X6348181Y-15588861D01*
X6348181Y-15588861D02*
X6357705Y-15579338D01*
X6357705Y-15579338D02*
X6376752Y-15569814D01*
X6567229Y-15569814D02*
X6586276Y-15569814D01*
X6586276Y-15569814D02*
X6605324Y-15579338D01*
X6605324Y-15579338D02*
X6614848Y-15588861D01*
X6614848Y-15588861D02*
X6624372Y-15607909D01*
X6624372Y-15607909D02*
X6633895Y-15646004D01*
X6633895Y-15646004D02*
X6633895Y-15693623D01*
X6633895Y-15693623D02*
X6624372Y-15731718D01*
X6624372Y-15731718D02*
X6614848Y-15750766D01*
X6614848Y-15750766D02*
X6605324Y-15760290D01*
X6605324Y-15760290D02*
X6586276Y-15769814D01*
X6586276Y-15769814D02*
X6567229Y-15769814D01*
X6567229Y-15769814D02*
X6548181Y-15760290D01*
X6548181Y-15760290D02*
X6538657Y-15750766D01*
X6538657Y-15750766D02*
X6529133Y-15731718D01*
X6529133Y-15731718D02*
X6519610Y-15693623D01*
X6519610Y-15693623D02*
X6519610Y-15646004D01*
X6519610Y-15646004D02*
X6529133Y-15607909D01*
X6529133Y-15607909D02*
X6538657Y-15588861D01*
X6538657Y-15588861D02*
X6548181Y-15579338D01*
X6548181Y-15579338D02*
X6567229Y-15569814D01*
X6719610Y-15769814D02*
X6719610Y-15636480D01*
X6719610Y-15655528D02*
X6729133Y-15646004D01*
X6729133Y-15646004D02*
X6748181Y-15636480D01*
X6748181Y-15636480D02*
X6776753Y-15636480D01*
X6776753Y-15636480D02*
X6795800Y-15646004D01*
X6795800Y-15646004D02*
X6805324Y-15665052D01*
X6805324Y-15665052D02*
X6805324Y-15769814D01*
X6805324Y-15665052D02*
X6814848Y-15646004D01*
X6814848Y-15646004D02*
X6833895Y-15636480D01*
X6833895Y-15636480D02*
X6862467Y-15636480D01*
X6862467Y-15636480D02*
X6881514Y-15646004D01*
X6881514Y-15646004D02*
X6891038Y-15665052D01*
X6891038Y-15665052D02*
X6891038Y-15769814D01*
X6986276Y-15769814D02*
X6986276Y-15636480D01*
X6986276Y-15655528D02*
X6995800Y-15646004D01*
X6995800Y-15646004D02*
X7014848Y-15636480D01*
X7014848Y-15636480D02*
X7043419Y-15636480D01*
X7043419Y-15636480D02*
X7062467Y-15646004D01*
X7062467Y-15646004D02*
X7071991Y-15665052D01*
X7071991Y-15665052D02*
X7071991Y-15769814D01*
X7071991Y-15665052D02*
X7081514Y-15646004D01*
X7081514Y-15646004D02*
X7100562Y-15636480D01*
X7100562Y-15636480D02*
X7129133Y-15636480D01*
X7129133Y-15636480D02*
X7148181Y-15646004D01*
X7148181Y-15646004D02*
X7157705Y-15665052D01*
X7157705Y-15665052D02*
X7157705Y-15769814D01*
X7548181Y-15560290D02*
X7376753Y-15817433D01*
X7805324Y-15569814D02*
X7824372Y-15569814D01*
X7824372Y-15569814D02*
X7843419Y-15579338D01*
X7843419Y-15579338D02*
X7852943Y-15588861D01*
X7852943Y-15588861D02*
X7862467Y-15607909D01*
X7862467Y-15607909D02*
X7871991Y-15646004D01*
X7871991Y-15646004D02*
X7871991Y-15693623D01*
X7871991Y-15693623D02*
X7862467Y-15731718D01*
X7862467Y-15731718D02*
X7852943Y-15750766D01*
X7852943Y-15750766D02*
X7843419Y-15760290D01*
X7843419Y-15760290D02*
X7824372Y-15769814D01*
X7824372Y-15769814D02*
X7805324Y-15769814D01*
X7805324Y-15769814D02*
X7786276Y-15760290D01*
X7786276Y-15760290D02*
X7776753Y-15750766D01*
X7776753Y-15750766D02*
X7767229Y-15731718D01*
X7767229Y-15731718D02*
X7757705Y-15693623D01*
X7757705Y-15693623D02*
X7757705Y-15646004D01*
X7757705Y-15646004D02*
X7767229Y-15607909D01*
X7767229Y-15607909D02*
X7776753Y-15588861D01*
X7776753Y-15588861D02*
X7786276Y-15579338D01*
X7786276Y-15579338D02*
X7805324Y-15569814D01*
X7957705Y-15750766D02*
X7967229Y-15760290D01*
X7967229Y-15760290D02*
X7957705Y-15769814D01*
X7957705Y-15769814D02*
X7948181Y-15760290D01*
X7948181Y-15760290D02*
X7957705Y-15750766D01*
X7957705Y-15750766D02*
X7957705Y-15769814D01*
X8091038Y-15569814D02*
X8110086Y-15569814D01*
X8110086Y-15569814D02*
X8129134Y-15579338D01*
X8129134Y-15579338D02*
X8138657Y-15588861D01*
X8138657Y-15588861D02*
X8148181Y-15607909D01*
X8148181Y-15607909D02*
X8157705Y-15646004D01*
X8157705Y-15646004D02*
X8157705Y-15693623D01*
X8157705Y-15693623D02*
X8148181Y-15731718D01*
X8148181Y-15731718D02*
X8138657Y-15750766D01*
X8138657Y-15750766D02*
X8129134Y-15760290D01*
X8129134Y-15760290D02*
X8110086Y-15769814D01*
X8110086Y-15769814D02*
X8091038Y-15769814D01*
X8091038Y-15769814D02*
X8071991Y-15760290D01*
X8071991Y-15760290D02*
X8062467Y-15750766D01*
X8062467Y-15750766D02*
X8052943Y-15731718D01*
X8052943Y-15731718D02*
X8043419Y-15693623D01*
X8043419Y-15693623D02*
X8043419Y-15646004D01*
X8043419Y-15646004D02*
X8052943Y-15607909D01*
X8052943Y-15607909D02*
X8062467Y-15588861D01*
X8062467Y-15588861D02*
X8071991Y-15579338D01*
X8071991Y-15579338D02*
X8091038Y-15569814D01*
X8233896Y-15588861D02*
X8243419Y-15579338D01*
X8243419Y-15579338D02*
X8262467Y-15569814D01*
X8262467Y-15569814D02*
X8310086Y-15569814D01*
X8310086Y-15569814D02*
X8329134Y-15579338D01*
X8329134Y-15579338D02*
X8338657Y-15588861D01*
X8338657Y-15588861D02*
X8348181Y-15607909D01*
X8348181Y-15607909D02*
X8348181Y-15626957D01*
X8348181Y-15626957D02*
X8338657Y-15655528D01*
X8338657Y-15655528D02*
X8224372Y-15769814D01*
X8224372Y-15769814D02*
X8348181Y-15769814D01*
X8414848Y-15569814D02*
X8538658Y-15569814D01*
X8538658Y-15569814D02*
X8471991Y-15646004D01*
X8471991Y-15646004D02*
X8500562Y-15646004D01*
X8500562Y-15646004D02*
X8519610Y-15655528D01*
X8519610Y-15655528D02*
X8529134Y-15665052D01*
X8529134Y-15665052D02*
X8538658Y-15684099D01*
X8538658Y-15684099D02*
X8538658Y-15731718D01*
X8538658Y-15731718D02*
X8529134Y-15750766D01*
X8529134Y-15750766D02*
X8519610Y-15760290D01*
X8519610Y-15760290D02*
X8500562Y-15769814D01*
X8500562Y-15769814D02*
X8443419Y-15769814D01*
X8443419Y-15769814D02*
X8424372Y-15760290D01*
X8424372Y-15760290D02*
X8414848Y-15750766D01*
X8710086Y-15569814D02*
X8671991Y-15569814D01*
X8671991Y-15569814D02*
X8652943Y-15579338D01*
X8652943Y-15579338D02*
X8643419Y-15588861D01*
X8643419Y-15588861D02*
X8624372Y-15617433D01*
X8624372Y-15617433D02*
X8614848Y-15655528D01*
X8614848Y-15655528D02*
X8614848Y-15731718D01*
X8614848Y-15731718D02*
X8624372Y-15750766D01*
X8624372Y-15750766D02*
X8633896Y-15760290D01*
X8633896Y-15760290D02*
X8652943Y-15769814D01*
X8652943Y-15769814D02*
X8691039Y-15769814D01*
X8691039Y-15769814D02*
X8710086Y-15760290D01*
X8710086Y-15760290D02*
X8719610Y-15750766D01*
X8719610Y-15750766D02*
X8729134Y-15731718D01*
X8729134Y-15731718D02*
X8729134Y-15684099D01*
X8729134Y-15684099D02*
X8719610Y-15665052D01*
X8719610Y-15665052D02*
X8710086Y-15655528D01*
X8710086Y-15655528D02*
X8691039Y-15646004D01*
X8691039Y-15646004D02*
X8652943Y-15646004D01*
X8652943Y-15646004D02*
X8633896Y-15655528D01*
X8633896Y-15655528D02*
X8624372Y-15665052D01*
X8624372Y-15665052D02*
X8614848Y-15684099D01*
X8805324Y-15569814D02*
X8805324Y-15607909D01*
X8881515Y-15569814D02*
X8881515Y-15607909D01*
X9176753Y-15846004D02*
X9167229Y-15836480D01*
X9167229Y-15836480D02*
X9148181Y-15807909D01*
X9148181Y-15807909D02*
X9138658Y-15788861D01*
X9138658Y-15788861D02*
X9129134Y-15760290D01*
X9129134Y-15760290D02*
X9119610Y-15712671D01*
X9119610Y-15712671D02*
X9119610Y-15674576D01*
X9119610Y-15674576D02*
X9129134Y-15626957D01*
X9129134Y-15626957D02*
X9138658Y-15598385D01*
X9138658Y-15598385D02*
X9148181Y-15579338D01*
X9148181Y-15579338D02*
X9167229Y-15550766D01*
X9167229Y-15550766D02*
X9176753Y-15541242D01*
X9291039Y-15569814D02*
X9310086Y-15569814D01*
X9310086Y-15569814D02*
X9329134Y-15579338D01*
X9329134Y-15579338D02*
X9338658Y-15588861D01*
X9338658Y-15588861D02*
X9348181Y-15607909D01*
X9348181Y-15607909D02*
X9357705Y-15646004D01*
X9357705Y-15646004D02*
X9357705Y-15693623D01*
X9357705Y-15693623D02*
X9348181Y-15731718D01*
X9348181Y-15731718D02*
X9338658Y-15750766D01*
X9338658Y-15750766D02*
X9329134Y-15760290D01*
X9329134Y-15760290D02*
X9310086Y-15769814D01*
X9310086Y-15769814D02*
X9291039Y-15769814D01*
X9291039Y-15769814D02*
X9271991Y-15760290D01*
X9271991Y-15760290D02*
X9262467Y-15750766D01*
X9262467Y-15750766D02*
X9252943Y-15731718D01*
X9252943Y-15731718D02*
X9243420Y-15693623D01*
X9243420Y-15693623D02*
X9243420Y-15646004D01*
X9243420Y-15646004D02*
X9252943Y-15607909D01*
X9252943Y-15607909D02*
X9262467Y-15588861D01*
X9262467Y-15588861D02*
X9271991Y-15579338D01*
X9271991Y-15579338D02*
X9291039Y-15569814D01*
X9595801Y-15769814D02*
X9595801Y-15569814D01*
X9681515Y-15769814D02*
X9681515Y-15665052D01*
X9681515Y-15665052D02*
X9671991Y-15646004D01*
X9671991Y-15646004D02*
X9652943Y-15636480D01*
X9652943Y-15636480D02*
X9624372Y-15636480D01*
X9624372Y-15636480D02*
X9605324Y-15646004D01*
X9605324Y-15646004D02*
X9595801Y-15655528D01*
X9805324Y-15769814D02*
X9786277Y-15760290D01*
X9786277Y-15760290D02*
X9776753Y-15750766D01*
X9776753Y-15750766D02*
X9767229Y-15731718D01*
X9767229Y-15731718D02*
X9767229Y-15674576D01*
X9767229Y-15674576D02*
X9776753Y-15655528D01*
X9776753Y-15655528D02*
X9786277Y-15646004D01*
X9786277Y-15646004D02*
X9805324Y-15636480D01*
X9805324Y-15636480D02*
X9833896Y-15636480D01*
X9833896Y-15636480D02*
X9852943Y-15646004D01*
X9852943Y-15646004D02*
X9862467Y-15655528D01*
X9862467Y-15655528D02*
X9871991Y-15674576D01*
X9871991Y-15674576D02*
X9871991Y-15731718D01*
X9871991Y-15731718D02*
X9862467Y-15750766D01*
X9862467Y-15750766D02*
X9852943Y-15760290D01*
X9852943Y-15760290D02*
X9833896Y-15769814D01*
X9833896Y-15769814D02*
X9805324Y-15769814D01*
X9986277Y-15769814D02*
X9967229Y-15760290D01*
X9967229Y-15760290D02*
X9957705Y-15741242D01*
X9957705Y-15741242D02*
X9957705Y-15569814D01*
X10138658Y-15760290D02*
X10119610Y-15769814D01*
X10119610Y-15769814D02*
X10081515Y-15769814D01*
X10081515Y-15769814D02*
X10062467Y-15760290D01*
X10062467Y-15760290D02*
X10052943Y-15741242D01*
X10052943Y-15741242D02*
X10052943Y-15665052D01*
X10052943Y-15665052D02*
X10062467Y-15646004D01*
X10062467Y-15646004D02*
X10081515Y-15636480D01*
X10081515Y-15636480D02*
X10119610Y-15636480D01*
X10119610Y-15636480D02*
X10138658Y-15646004D01*
X10138658Y-15646004D02*
X10148182Y-15665052D01*
X10148182Y-15665052D02*
X10148182Y-15684099D01*
X10148182Y-15684099D02*
X10052943Y-15703147D01*
X10224372Y-15760290D02*
X10243420Y-15769814D01*
X10243420Y-15769814D02*
X10281515Y-15769814D01*
X10281515Y-15769814D02*
X10300563Y-15760290D01*
X10300563Y-15760290D02*
X10310086Y-15741242D01*
X10310086Y-15741242D02*
X10310086Y-15731718D01*
X10310086Y-15731718D02*
X10300563Y-15712671D01*
X10300563Y-15712671D02*
X10281515Y-15703147D01*
X10281515Y-15703147D02*
X10252943Y-15703147D01*
X10252943Y-15703147D02*
X10233896Y-15693623D01*
X10233896Y-15693623D02*
X10224372Y-15674576D01*
X10224372Y-15674576D02*
X10224372Y-15665052D01*
X10224372Y-15665052D02*
X10233896Y-15646004D01*
X10233896Y-15646004D02*
X10252943Y-15636480D01*
X10252943Y-15636480D02*
X10281515Y-15636480D01*
X10281515Y-15636480D02*
X10300563Y-15646004D01*
X10548182Y-15693623D02*
X10700563Y-15693623D01*
X10624372Y-15769814D02*
X10624372Y-15617433D01*
X11033896Y-15636480D02*
X11033896Y-15769814D01*
X10986277Y-15560290D02*
X10938658Y-15703147D01*
X10938658Y-15703147D02*
X11062467Y-15703147D01*
X11281515Y-15760290D02*
X11300563Y-15769814D01*
X11300563Y-15769814D02*
X11338658Y-15769814D01*
X11338658Y-15769814D02*
X11357705Y-15760290D01*
X11357705Y-15760290D02*
X11367229Y-15741242D01*
X11367229Y-15741242D02*
X11367229Y-15731718D01*
X11367229Y-15731718D02*
X11357705Y-15712671D01*
X11357705Y-15712671D02*
X11338658Y-15703147D01*
X11338658Y-15703147D02*
X11310086Y-15703147D01*
X11310086Y-15703147D02*
X11291039Y-15693623D01*
X11291039Y-15693623D02*
X11281515Y-15674576D01*
X11281515Y-15674576D02*
X11281515Y-15665052D01*
X11281515Y-15665052D02*
X11291039Y-15646004D01*
X11291039Y-15646004D02*
X11310086Y-15636480D01*
X11310086Y-15636480D02*
X11338658Y-15636480D01*
X11338658Y-15636480D02*
X11357705Y-15646004D01*
X11481515Y-15769814D02*
X11462467Y-15760290D01*
X11462467Y-15760290D02*
X11452944Y-15741242D01*
X11452944Y-15741242D02*
X11452944Y-15569814D01*
X11586277Y-15769814D02*
X11567229Y-15760290D01*
X11567229Y-15760290D02*
X11557705Y-15750766D01*
X11557705Y-15750766D02*
X11548182Y-15731718D01*
X11548182Y-15731718D02*
X11548182Y-15674576D01*
X11548182Y-15674576D02*
X11557705Y-15655528D01*
X11557705Y-15655528D02*
X11567229Y-15646004D01*
X11567229Y-15646004D02*
X11586277Y-15636480D01*
X11586277Y-15636480D02*
X11614848Y-15636480D01*
X11614848Y-15636480D02*
X11633896Y-15646004D01*
X11633896Y-15646004D02*
X11643420Y-15655528D01*
X11643420Y-15655528D02*
X11652944Y-15674576D01*
X11652944Y-15674576D02*
X11652944Y-15731718D01*
X11652944Y-15731718D02*
X11643420Y-15750766D01*
X11643420Y-15750766D02*
X11633896Y-15760290D01*
X11633896Y-15760290D02*
X11614848Y-15769814D01*
X11614848Y-15769814D02*
X11586277Y-15769814D01*
X11710086Y-15636480D02*
X11786277Y-15636480D01*
X11738658Y-15569814D02*
X11738658Y-15741242D01*
X11738658Y-15741242D02*
X11748182Y-15760290D01*
X11748182Y-15760290D02*
X11767229Y-15769814D01*
X11767229Y-15769814D02*
X11786277Y-15769814D01*
X11843420Y-15760290D02*
X11862467Y-15769814D01*
X11862467Y-15769814D02*
X11900563Y-15769814D01*
X11900563Y-15769814D02*
X11919610Y-15760290D01*
X11919610Y-15760290D02*
X11929134Y-15741242D01*
X11929134Y-15741242D02*
X11929134Y-15731718D01*
X11929134Y-15731718D02*
X11919610Y-15712671D01*
X11919610Y-15712671D02*
X11900563Y-15703147D01*
X11900563Y-15703147D02*
X11871991Y-15703147D01*
X11871991Y-15703147D02*
X11852944Y-15693623D01*
X11852944Y-15693623D02*
X11843420Y-15674576D01*
X11843420Y-15674576D02*
X11843420Y-15665052D01*
X11843420Y-15665052D02*
X11852944Y-15646004D01*
X11852944Y-15646004D02*
X11871991Y-15636480D01*
X11871991Y-15636480D02*
X11900563Y-15636480D01*
X11900563Y-15636480D02*
X11919610Y-15646004D01*
X11995801Y-15846004D02*
X12005325Y-15836480D01*
X12005325Y-15836480D02*
X12024372Y-15807909D01*
X12024372Y-15807909D02*
X12033896Y-15788861D01*
X12033896Y-15788861D02*
X12043420Y-15760290D01*
X12043420Y-15760290D02*
X12052944Y-15712671D01*
X12052944Y-15712671D02*
X12052944Y-15674576D01*
X12052944Y-15674576D02*
X12043420Y-15626957D01*
X12043420Y-15626957D02*
X12033896Y-15598385D01*
X12033896Y-15598385D02*
X12024372Y-15579338D01*
X12024372Y-15579338D02*
X12005325Y-15550766D01*
X12005325Y-15550766D02*
X11995801Y-15541242D01*
D10*
X5551690Y-15992330D02*
X5601690Y-15942330D01*
X5551690Y-15892330D01*
X5501690Y-15942330D01*
X5551690Y-15992330D01*
D11*
X5967229Y-16033814D02*
X5852943Y-16033814D01*
X5910086Y-16033814D02*
X5910086Y-15833814D01*
X5910086Y-15833814D02*
X5891038Y-15862385D01*
X5891038Y-15862385D02*
X5871991Y-15881433D01*
X5871991Y-15881433D02*
X5852943Y-15890957D01*
X6052943Y-16014766D02*
X6062467Y-16024290D01*
X6062467Y-16024290D02*
X6052943Y-16033814D01*
X6052943Y-16033814D02*
X6043419Y-16024290D01*
X6043419Y-16024290D02*
X6052943Y-16014766D01*
X6052943Y-16014766D02*
X6052943Y-16033814D01*
X6186276Y-15833814D02*
X6205324Y-15833814D01*
X6205324Y-15833814D02*
X6224372Y-15843338D01*
X6224372Y-15843338D02*
X6233895Y-15852861D01*
X6233895Y-15852861D02*
X6243419Y-15871909D01*
X6243419Y-15871909D02*
X6252943Y-15910004D01*
X6252943Y-15910004D02*
X6252943Y-15957623D01*
X6252943Y-15957623D02*
X6243419Y-15995718D01*
X6243419Y-15995718D02*
X6233895Y-16014766D01*
X6233895Y-16014766D02*
X6224372Y-16024290D01*
X6224372Y-16024290D02*
X6205324Y-16033814D01*
X6205324Y-16033814D02*
X6186276Y-16033814D01*
X6186276Y-16033814D02*
X6167229Y-16024290D01*
X6167229Y-16024290D02*
X6157705Y-16014766D01*
X6157705Y-16014766D02*
X6148181Y-15995718D01*
X6148181Y-15995718D02*
X6138657Y-15957623D01*
X6138657Y-15957623D02*
X6138657Y-15910004D01*
X6138657Y-15910004D02*
X6148181Y-15871909D01*
X6148181Y-15871909D02*
X6157705Y-15852861D01*
X6157705Y-15852861D02*
X6167229Y-15843338D01*
X6167229Y-15843338D02*
X6186276Y-15833814D01*
X6376752Y-15833814D02*
X6395800Y-15833814D01*
X6395800Y-15833814D02*
X6414848Y-15843338D01*
X6414848Y-15843338D02*
X6424372Y-15852861D01*
X6424372Y-15852861D02*
X6433895Y-15871909D01*
X6433895Y-15871909D02*
X6443419Y-15910004D01*
X6443419Y-15910004D02*
X6443419Y-15957623D01*
X6443419Y-15957623D02*
X6433895Y-15995718D01*
X6433895Y-15995718D02*
X6424372Y-16014766D01*
X6424372Y-16014766D02*
X6414848Y-16024290D01*
X6414848Y-16024290D02*
X6395800Y-16033814D01*
X6395800Y-16033814D02*
X6376752Y-16033814D01*
X6376752Y-16033814D02*
X6357705Y-16024290D01*
X6357705Y-16024290D02*
X6348181Y-16014766D01*
X6348181Y-16014766D02*
X6338657Y-15995718D01*
X6338657Y-15995718D02*
X6329133Y-15957623D01*
X6329133Y-15957623D02*
X6329133Y-15910004D01*
X6329133Y-15910004D02*
X6338657Y-15871909D01*
X6338657Y-15871909D02*
X6348181Y-15852861D01*
X6348181Y-15852861D02*
X6357705Y-15843338D01*
X6357705Y-15843338D02*
X6376752Y-15833814D01*
X6567229Y-15833814D02*
X6586276Y-15833814D01*
X6586276Y-15833814D02*
X6605324Y-15843338D01*
X6605324Y-15843338D02*
X6614848Y-15852861D01*
X6614848Y-15852861D02*
X6624372Y-15871909D01*
X6624372Y-15871909D02*
X6633895Y-15910004D01*
X6633895Y-15910004D02*
X6633895Y-15957623D01*
X6633895Y-15957623D02*
X6624372Y-15995718D01*
X6624372Y-15995718D02*
X6614848Y-16014766D01*
X6614848Y-16014766D02*
X6605324Y-16024290D01*
X6605324Y-16024290D02*
X6586276Y-16033814D01*
X6586276Y-16033814D02*
X6567229Y-16033814D01*
X6567229Y-16033814D02*
X6548181Y-16024290D01*
X6548181Y-16024290D02*
X6538657Y-16014766D01*
X6538657Y-16014766D02*
X6529133Y-15995718D01*
X6529133Y-15995718D02*
X6519610Y-15957623D01*
X6519610Y-15957623D02*
X6519610Y-15910004D01*
X6519610Y-15910004D02*
X6529133Y-15871909D01*
X6529133Y-15871909D02*
X6538657Y-15852861D01*
X6538657Y-15852861D02*
X6548181Y-15843338D01*
X6548181Y-15843338D02*
X6567229Y-15833814D01*
X6719610Y-16033814D02*
X6719610Y-15900480D01*
X6719610Y-15919528D02*
X6729133Y-15910004D01*
X6729133Y-15910004D02*
X6748181Y-15900480D01*
X6748181Y-15900480D02*
X6776753Y-15900480D01*
X6776753Y-15900480D02*
X6795800Y-15910004D01*
X6795800Y-15910004D02*
X6805324Y-15929052D01*
X6805324Y-15929052D02*
X6805324Y-16033814D01*
X6805324Y-15929052D02*
X6814848Y-15910004D01*
X6814848Y-15910004D02*
X6833895Y-15900480D01*
X6833895Y-15900480D02*
X6862467Y-15900480D01*
X6862467Y-15900480D02*
X6881514Y-15910004D01*
X6881514Y-15910004D02*
X6891038Y-15929052D01*
X6891038Y-15929052D02*
X6891038Y-16033814D01*
X6986276Y-16033814D02*
X6986276Y-15900480D01*
X6986276Y-15919528D02*
X6995800Y-15910004D01*
X6995800Y-15910004D02*
X7014848Y-15900480D01*
X7014848Y-15900480D02*
X7043419Y-15900480D01*
X7043419Y-15900480D02*
X7062467Y-15910004D01*
X7062467Y-15910004D02*
X7071991Y-15929052D01*
X7071991Y-15929052D02*
X7071991Y-16033814D01*
X7071991Y-15929052D02*
X7081514Y-15910004D01*
X7081514Y-15910004D02*
X7100562Y-15900480D01*
X7100562Y-15900480D02*
X7129133Y-15900480D01*
X7129133Y-15900480D02*
X7148181Y-15910004D01*
X7148181Y-15910004D02*
X7157705Y-15929052D01*
X7157705Y-15929052D02*
X7157705Y-16033814D01*
X7548181Y-15824290D02*
X7376753Y-16081433D01*
X7805324Y-15833814D02*
X7824372Y-15833814D01*
X7824372Y-15833814D02*
X7843419Y-15843338D01*
X7843419Y-15843338D02*
X7852943Y-15852861D01*
X7852943Y-15852861D02*
X7862467Y-15871909D01*
X7862467Y-15871909D02*
X7871991Y-15910004D01*
X7871991Y-15910004D02*
X7871991Y-15957623D01*
X7871991Y-15957623D02*
X7862467Y-15995718D01*
X7862467Y-15995718D02*
X7852943Y-16014766D01*
X7852943Y-16014766D02*
X7843419Y-16024290D01*
X7843419Y-16024290D02*
X7824372Y-16033814D01*
X7824372Y-16033814D02*
X7805324Y-16033814D01*
X7805324Y-16033814D02*
X7786276Y-16024290D01*
X7786276Y-16024290D02*
X7776753Y-16014766D01*
X7776753Y-16014766D02*
X7767229Y-15995718D01*
X7767229Y-15995718D02*
X7757705Y-15957623D01*
X7757705Y-15957623D02*
X7757705Y-15910004D01*
X7757705Y-15910004D02*
X7767229Y-15871909D01*
X7767229Y-15871909D02*
X7776753Y-15852861D01*
X7776753Y-15852861D02*
X7786276Y-15843338D01*
X7786276Y-15843338D02*
X7805324Y-15833814D01*
X7957705Y-16014766D02*
X7967229Y-16024290D01*
X7967229Y-16024290D02*
X7957705Y-16033814D01*
X7957705Y-16033814D02*
X7948181Y-16024290D01*
X7948181Y-16024290D02*
X7957705Y-16014766D01*
X7957705Y-16014766D02*
X7957705Y-16033814D01*
X8091038Y-15833814D02*
X8110086Y-15833814D01*
X8110086Y-15833814D02*
X8129134Y-15843338D01*
X8129134Y-15843338D02*
X8138657Y-15852861D01*
X8138657Y-15852861D02*
X8148181Y-15871909D01*
X8148181Y-15871909D02*
X8157705Y-15910004D01*
X8157705Y-15910004D02*
X8157705Y-15957623D01*
X8157705Y-15957623D02*
X8148181Y-15995718D01*
X8148181Y-15995718D02*
X8138657Y-16014766D01*
X8138657Y-16014766D02*
X8129134Y-16024290D01*
X8129134Y-16024290D02*
X8110086Y-16033814D01*
X8110086Y-16033814D02*
X8091038Y-16033814D01*
X8091038Y-16033814D02*
X8071991Y-16024290D01*
X8071991Y-16024290D02*
X8062467Y-16014766D01*
X8062467Y-16014766D02*
X8052943Y-15995718D01*
X8052943Y-15995718D02*
X8043419Y-15957623D01*
X8043419Y-15957623D02*
X8043419Y-15910004D01*
X8043419Y-15910004D02*
X8052943Y-15871909D01*
X8052943Y-15871909D02*
X8062467Y-15852861D01*
X8062467Y-15852861D02*
X8071991Y-15843338D01*
X8071991Y-15843338D02*
X8091038Y-15833814D01*
X8224372Y-15833814D02*
X8348181Y-15833814D01*
X8348181Y-15833814D02*
X8281515Y-15910004D01*
X8281515Y-15910004D02*
X8310086Y-15910004D01*
X8310086Y-15910004D02*
X8329134Y-15919528D01*
X8329134Y-15919528D02*
X8338657Y-15929052D01*
X8338657Y-15929052D02*
X8348181Y-15948099D01*
X8348181Y-15948099D02*
X8348181Y-15995718D01*
X8348181Y-15995718D02*
X8338657Y-16014766D01*
X8338657Y-16014766D02*
X8329134Y-16024290D01*
X8329134Y-16024290D02*
X8310086Y-16033814D01*
X8310086Y-16033814D02*
X8252943Y-16033814D01*
X8252943Y-16033814D02*
X8233896Y-16024290D01*
X8233896Y-16024290D02*
X8224372Y-16014766D01*
X8443419Y-16033814D02*
X8481515Y-16033814D01*
X8481515Y-16033814D02*
X8500562Y-16024290D01*
X8500562Y-16024290D02*
X8510086Y-16014766D01*
X8510086Y-16014766D02*
X8529134Y-15986195D01*
X8529134Y-15986195D02*
X8538658Y-15948099D01*
X8538658Y-15948099D02*
X8538658Y-15871909D01*
X8538658Y-15871909D02*
X8529134Y-15852861D01*
X8529134Y-15852861D02*
X8519610Y-15843338D01*
X8519610Y-15843338D02*
X8500562Y-15833814D01*
X8500562Y-15833814D02*
X8462467Y-15833814D01*
X8462467Y-15833814D02*
X8443419Y-15843338D01*
X8443419Y-15843338D02*
X8433896Y-15852861D01*
X8433896Y-15852861D02*
X8424372Y-15871909D01*
X8424372Y-15871909D02*
X8424372Y-15919528D01*
X8424372Y-15919528D02*
X8433896Y-15938576D01*
X8433896Y-15938576D02*
X8443419Y-15948099D01*
X8443419Y-15948099D02*
X8462467Y-15957623D01*
X8462467Y-15957623D02*
X8500562Y-15957623D01*
X8500562Y-15957623D02*
X8519610Y-15948099D01*
X8519610Y-15948099D02*
X8529134Y-15938576D01*
X8529134Y-15938576D02*
X8538658Y-15919528D01*
X8710086Y-15900480D02*
X8710086Y-16033814D01*
X8662467Y-15824290D02*
X8614848Y-15967147D01*
X8614848Y-15967147D02*
X8738658Y-15967147D01*
X8805324Y-15833814D02*
X8805324Y-15871909D01*
X8881515Y-15833814D02*
X8881515Y-15871909D01*
X9176753Y-16110004D02*
X9167229Y-16100480D01*
X9167229Y-16100480D02*
X9148181Y-16071909D01*
X9148181Y-16071909D02*
X9138658Y-16052861D01*
X9138658Y-16052861D02*
X9129134Y-16024290D01*
X9129134Y-16024290D02*
X9119610Y-15976671D01*
X9119610Y-15976671D02*
X9119610Y-15938576D01*
X9119610Y-15938576D02*
X9129134Y-15890957D01*
X9129134Y-15890957D02*
X9138658Y-15862385D01*
X9138658Y-15862385D02*
X9148181Y-15843338D01*
X9148181Y-15843338D02*
X9167229Y-15814766D01*
X9167229Y-15814766D02*
X9176753Y-15805242D01*
X9281515Y-15919528D02*
X9262467Y-15910004D01*
X9262467Y-15910004D02*
X9252943Y-15900480D01*
X9252943Y-15900480D02*
X9243420Y-15881433D01*
X9243420Y-15881433D02*
X9243420Y-15871909D01*
X9243420Y-15871909D02*
X9252943Y-15852861D01*
X9252943Y-15852861D02*
X9262467Y-15843338D01*
X9262467Y-15843338D02*
X9281515Y-15833814D01*
X9281515Y-15833814D02*
X9319610Y-15833814D01*
X9319610Y-15833814D02*
X9338658Y-15843338D01*
X9338658Y-15843338D02*
X9348181Y-15852861D01*
X9348181Y-15852861D02*
X9357705Y-15871909D01*
X9357705Y-15871909D02*
X9357705Y-15881433D01*
X9357705Y-15881433D02*
X9348181Y-15900480D01*
X9348181Y-15900480D02*
X9338658Y-15910004D01*
X9338658Y-15910004D02*
X9319610Y-15919528D01*
X9319610Y-15919528D02*
X9281515Y-15919528D01*
X9281515Y-15919528D02*
X9262467Y-15929052D01*
X9262467Y-15929052D02*
X9252943Y-15938576D01*
X9252943Y-15938576D02*
X9243420Y-15957623D01*
X9243420Y-15957623D02*
X9243420Y-15995718D01*
X9243420Y-15995718D02*
X9252943Y-16014766D01*
X9252943Y-16014766D02*
X9262467Y-16024290D01*
X9262467Y-16024290D02*
X9281515Y-16033814D01*
X9281515Y-16033814D02*
X9319610Y-16033814D01*
X9319610Y-16033814D02*
X9338658Y-16024290D01*
X9338658Y-16024290D02*
X9348181Y-16014766D01*
X9348181Y-16014766D02*
X9357705Y-15995718D01*
X9357705Y-15995718D02*
X9357705Y-15957623D01*
X9357705Y-15957623D02*
X9348181Y-15938576D01*
X9348181Y-15938576D02*
X9338658Y-15929052D01*
X9338658Y-15929052D02*
X9319610Y-15919528D01*
X9595801Y-16033814D02*
X9595801Y-15833814D01*
X9681515Y-16033814D02*
X9681515Y-15929052D01*
X9681515Y-15929052D02*
X9671991Y-15910004D01*
X9671991Y-15910004D02*
X9652943Y-15900480D01*
X9652943Y-15900480D02*
X9624372Y-15900480D01*
X9624372Y-15900480D02*
X9605324Y-15910004D01*
X9605324Y-15910004D02*
X9595801Y-15919528D01*
X9805324Y-16033814D02*
X9786277Y-16024290D01*
X9786277Y-16024290D02*
X9776753Y-16014766D01*
X9776753Y-16014766D02*
X9767229Y-15995718D01*
X9767229Y-15995718D02*
X9767229Y-15938576D01*
X9767229Y-15938576D02*
X9776753Y-15919528D01*
X9776753Y-15919528D02*
X9786277Y-15910004D01*
X9786277Y-15910004D02*
X9805324Y-15900480D01*
X9805324Y-15900480D02*
X9833896Y-15900480D01*
X9833896Y-15900480D02*
X9852943Y-15910004D01*
X9852943Y-15910004D02*
X9862467Y-15919528D01*
X9862467Y-15919528D02*
X9871991Y-15938576D01*
X9871991Y-15938576D02*
X9871991Y-15995718D01*
X9871991Y-15995718D02*
X9862467Y-16014766D01*
X9862467Y-16014766D02*
X9852943Y-16024290D01*
X9852943Y-16024290D02*
X9833896Y-16033814D01*
X9833896Y-16033814D02*
X9805324Y-16033814D01*
X9986277Y-16033814D02*
X9967229Y-16024290D01*
X9967229Y-16024290D02*
X9957705Y-16005242D01*
X9957705Y-16005242D02*
X9957705Y-15833814D01*
X10138658Y-16024290D02*
X10119610Y-16033814D01*
X10119610Y-16033814D02*
X10081515Y-16033814D01*
X10081515Y-16033814D02*
X10062467Y-16024290D01*
X10062467Y-16024290D02*
X10052943Y-16005242D01*
X10052943Y-16005242D02*
X10052943Y-15929052D01*
X10052943Y-15929052D02*
X10062467Y-15910004D01*
X10062467Y-15910004D02*
X10081515Y-15900480D01*
X10081515Y-15900480D02*
X10119610Y-15900480D01*
X10119610Y-15900480D02*
X10138658Y-15910004D01*
X10138658Y-15910004D02*
X10148182Y-15929052D01*
X10148182Y-15929052D02*
X10148182Y-15948099D01*
X10148182Y-15948099D02*
X10052943Y-15967147D01*
X10224372Y-16024290D02*
X10243420Y-16033814D01*
X10243420Y-16033814D02*
X10281515Y-16033814D01*
X10281515Y-16033814D02*
X10300563Y-16024290D01*
X10300563Y-16024290D02*
X10310086Y-16005242D01*
X10310086Y-16005242D02*
X10310086Y-15995718D01*
X10310086Y-15995718D02*
X10300563Y-15976671D01*
X10300563Y-15976671D02*
X10281515Y-15967147D01*
X10281515Y-15967147D02*
X10252943Y-15967147D01*
X10252943Y-15967147D02*
X10233896Y-15957623D01*
X10233896Y-15957623D02*
X10224372Y-15938576D01*
X10224372Y-15938576D02*
X10224372Y-15929052D01*
X10224372Y-15929052D02*
X10233896Y-15910004D01*
X10233896Y-15910004D02*
X10252943Y-15900480D01*
X10252943Y-15900480D02*
X10281515Y-15900480D01*
X10281515Y-15900480D02*
X10300563Y-15910004D01*
X10376753Y-16110004D02*
X10386277Y-16100480D01*
X10386277Y-16100480D02*
X10405324Y-16071909D01*
X10405324Y-16071909D02*
X10414848Y-16052861D01*
X10414848Y-16052861D02*
X10424372Y-16024290D01*
X10424372Y-16024290D02*
X10433896Y-15976671D01*
X10433896Y-15976671D02*
X10433896Y-15938576D01*
X10433896Y-15938576D02*
X10424372Y-15890957D01*
X10424372Y-15890957D02*
X10414848Y-15862385D01*
X10414848Y-15862385D02*
X10405324Y-15843338D01*
X10405324Y-15843338D02*
X10386277Y-15814766D01*
X10386277Y-15814766D02*
X10376753Y-15805242D01*
D12*
X5451690Y-16131330D02*
X5601690Y-16281330D01*
X5601690Y-16131330D02*
X5451690Y-16281330D01*
X5601690Y-16206330D02*
G75*
G02*
X5451690Y-16206330I-75000J0D01*
G01*
X5451690Y-16206330D02*
G75*
G02*
X5601690Y-16206330I75000J0D01*
G01*
D11*
X5967229Y-16297814D02*
X5852943Y-16297814D01*
X5910086Y-16297814D02*
X5910086Y-16097814D01*
X5910086Y-16097814D02*
X5891038Y-16126385D01*
X5891038Y-16126385D02*
X5871991Y-16145433D01*
X5871991Y-16145433D02*
X5852943Y-16154957D01*
X6052943Y-16278766D02*
X6062467Y-16288290D01*
X6062467Y-16288290D02*
X6052943Y-16297814D01*
X6052943Y-16297814D02*
X6043419Y-16288290D01*
X6043419Y-16288290D02*
X6052943Y-16278766D01*
X6052943Y-16278766D02*
X6052943Y-16297814D01*
X6243419Y-16097814D02*
X6148181Y-16097814D01*
X6148181Y-16097814D02*
X6138657Y-16193052D01*
X6138657Y-16193052D02*
X6148181Y-16183528D01*
X6148181Y-16183528D02*
X6167229Y-16174004D01*
X6167229Y-16174004D02*
X6214848Y-16174004D01*
X6214848Y-16174004D02*
X6233895Y-16183528D01*
X6233895Y-16183528D02*
X6243419Y-16193052D01*
X6243419Y-16193052D02*
X6252943Y-16212099D01*
X6252943Y-16212099D02*
X6252943Y-16259718D01*
X6252943Y-16259718D02*
X6243419Y-16278766D01*
X6243419Y-16278766D02*
X6233895Y-16288290D01*
X6233895Y-16288290D02*
X6214848Y-16297814D01*
X6214848Y-16297814D02*
X6167229Y-16297814D01*
X6167229Y-16297814D02*
X6148181Y-16288290D01*
X6148181Y-16288290D02*
X6138657Y-16278766D01*
X6376752Y-16097814D02*
X6395800Y-16097814D01*
X6395800Y-16097814D02*
X6414848Y-16107338D01*
X6414848Y-16107338D02*
X6424372Y-16116861D01*
X6424372Y-16116861D02*
X6433895Y-16135909D01*
X6433895Y-16135909D02*
X6443419Y-16174004D01*
X6443419Y-16174004D02*
X6443419Y-16221623D01*
X6443419Y-16221623D02*
X6433895Y-16259718D01*
X6433895Y-16259718D02*
X6424372Y-16278766D01*
X6424372Y-16278766D02*
X6414848Y-16288290D01*
X6414848Y-16288290D02*
X6395800Y-16297814D01*
X6395800Y-16297814D02*
X6376752Y-16297814D01*
X6376752Y-16297814D02*
X6357705Y-16288290D01*
X6357705Y-16288290D02*
X6348181Y-16278766D01*
X6348181Y-16278766D02*
X6338657Y-16259718D01*
X6338657Y-16259718D02*
X6329133Y-16221623D01*
X6329133Y-16221623D02*
X6329133Y-16174004D01*
X6329133Y-16174004D02*
X6338657Y-16135909D01*
X6338657Y-16135909D02*
X6348181Y-16116861D01*
X6348181Y-16116861D02*
X6357705Y-16107338D01*
X6357705Y-16107338D02*
X6376752Y-16097814D01*
X6567229Y-16097814D02*
X6586276Y-16097814D01*
X6586276Y-16097814D02*
X6605324Y-16107338D01*
X6605324Y-16107338D02*
X6614848Y-16116861D01*
X6614848Y-16116861D02*
X6624372Y-16135909D01*
X6624372Y-16135909D02*
X6633895Y-16174004D01*
X6633895Y-16174004D02*
X6633895Y-16221623D01*
X6633895Y-16221623D02*
X6624372Y-16259718D01*
X6624372Y-16259718D02*
X6614848Y-16278766D01*
X6614848Y-16278766D02*
X6605324Y-16288290D01*
X6605324Y-16288290D02*
X6586276Y-16297814D01*
X6586276Y-16297814D02*
X6567229Y-16297814D01*
X6567229Y-16297814D02*
X6548181Y-16288290D01*
X6548181Y-16288290D02*
X6538657Y-16278766D01*
X6538657Y-16278766D02*
X6529133Y-16259718D01*
X6529133Y-16259718D02*
X6519610Y-16221623D01*
X6519610Y-16221623D02*
X6519610Y-16174004D01*
X6519610Y-16174004D02*
X6529133Y-16135909D01*
X6529133Y-16135909D02*
X6538657Y-16116861D01*
X6538657Y-16116861D02*
X6548181Y-16107338D01*
X6548181Y-16107338D02*
X6567229Y-16097814D01*
X6719610Y-16297814D02*
X6719610Y-16164480D01*
X6719610Y-16183528D02*
X6729133Y-16174004D01*
X6729133Y-16174004D02*
X6748181Y-16164480D01*
X6748181Y-16164480D02*
X6776753Y-16164480D01*
X6776753Y-16164480D02*
X6795800Y-16174004D01*
X6795800Y-16174004D02*
X6805324Y-16193052D01*
X6805324Y-16193052D02*
X6805324Y-16297814D01*
X6805324Y-16193052D02*
X6814848Y-16174004D01*
X6814848Y-16174004D02*
X6833895Y-16164480D01*
X6833895Y-16164480D02*
X6862467Y-16164480D01*
X6862467Y-16164480D02*
X6881514Y-16174004D01*
X6881514Y-16174004D02*
X6891038Y-16193052D01*
X6891038Y-16193052D02*
X6891038Y-16297814D01*
X6986276Y-16297814D02*
X6986276Y-16164480D01*
X6986276Y-16183528D02*
X6995800Y-16174004D01*
X6995800Y-16174004D02*
X7014848Y-16164480D01*
X7014848Y-16164480D02*
X7043419Y-16164480D01*
X7043419Y-16164480D02*
X7062467Y-16174004D01*
X7062467Y-16174004D02*
X7071991Y-16193052D01*
X7071991Y-16193052D02*
X7071991Y-16297814D01*
X7071991Y-16193052D02*
X7081514Y-16174004D01*
X7081514Y-16174004D02*
X7100562Y-16164480D01*
X7100562Y-16164480D02*
X7129133Y-16164480D01*
X7129133Y-16164480D02*
X7148181Y-16174004D01*
X7148181Y-16174004D02*
X7157705Y-16193052D01*
X7157705Y-16193052D02*
X7157705Y-16297814D01*
X7548181Y-16088290D02*
X7376753Y-16345433D01*
X7805324Y-16097814D02*
X7824372Y-16097814D01*
X7824372Y-16097814D02*
X7843419Y-16107338D01*
X7843419Y-16107338D02*
X7852943Y-16116861D01*
X7852943Y-16116861D02*
X7862467Y-16135909D01*
X7862467Y-16135909D02*
X7871991Y-16174004D01*
X7871991Y-16174004D02*
X7871991Y-16221623D01*
X7871991Y-16221623D02*
X7862467Y-16259718D01*
X7862467Y-16259718D02*
X7852943Y-16278766D01*
X7852943Y-16278766D02*
X7843419Y-16288290D01*
X7843419Y-16288290D02*
X7824372Y-16297814D01*
X7824372Y-16297814D02*
X7805324Y-16297814D01*
X7805324Y-16297814D02*
X7786276Y-16288290D01*
X7786276Y-16288290D02*
X7776753Y-16278766D01*
X7776753Y-16278766D02*
X7767229Y-16259718D01*
X7767229Y-16259718D02*
X7757705Y-16221623D01*
X7757705Y-16221623D02*
X7757705Y-16174004D01*
X7757705Y-16174004D02*
X7767229Y-16135909D01*
X7767229Y-16135909D02*
X7776753Y-16116861D01*
X7776753Y-16116861D02*
X7786276Y-16107338D01*
X7786276Y-16107338D02*
X7805324Y-16097814D01*
X7957705Y-16278766D02*
X7967229Y-16288290D01*
X7967229Y-16288290D02*
X7957705Y-16297814D01*
X7957705Y-16297814D02*
X7948181Y-16288290D01*
X7948181Y-16288290D02*
X7957705Y-16278766D01*
X7957705Y-16278766D02*
X7957705Y-16297814D01*
X8091038Y-16097814D02*
X8110086Y-16097814D01*
X8110086Y-16097814D02*
X8129134Y-16107338D01*
X8129134Y-16107338D02*
X8138657Y-16116861D01*
X8138657Y-16116861D02*
X8148181Y-16135909D01*
X8148181Y-16135909D02*
X8157705Y-16174004D01*
X8157705Y-16174004D02*
X8157705Y-16221623D01*
X8157705Y-16221623D02*
X8148181Y-16259718D01*
X8148181Y-16259718D02*
X8138657Y-16278766D01*
X8138657Y-16278766D02*
X8129134Y-16288290D01*
X8129134Y-16288290D02*
X8110086Y-16297814D01*
X8110086Y-16297814D02*
X8091038Y-16297814D01*
X8091038Y-16297814D02*
X8071991Y-16288290D01*
X8071991Y-16288290D02*
X8062467Y-16278766D01*
X8062467Y-16278766D02*
X8052943Y-16259718D01*
X8052943Y-16259718D02*
X8043419Y-16221623D01*
X8043419Y-16221623D02*
X8043419Y-16174004D01*
X8043419Y-16174004D02*
X8052943Y-16135909D01*
X8052943Y-16135909D02*
X8062467Y-16116861D01*
X8062467Y-16116861D02*
X8071991Y-16107338D01*
X8071991Y-16107338D02*
X8091038Y-16097814D01*
X8338657Y-16097814D02*
X8243419Y-16097814D01*
X8243419Y-16097814D02*
X8233896Y-16193052D01*
X8233896Y-16193052D02*
X8243419Y-16183528D01*
X8243419Y-16183528D02*
X8262467Y-16174004D01*
X8262467Y-16174004D02*
X8310086Y-16174004D01*
X8310086Y-16174004D02*
X8329134Y-16183528D01*
X8329134Y-16183528D02*
X8338657Y-16193052D01*
X8338657Y-16193052D02*
X8348181Y-16212099D01*
X8348181Y-16212099D02*
X8348181Y-16259718D01*
X8348181Y-16259718D02*
X8338657Y-16278766D01*
X8338657Y-16278766D02*
X8329134Y-16288290D01*
X8329134Y-16288290D02*
X8310086Y-16297814D01*
X8310086Y-16297814D02*
X8262467Y-16297814D01*
X8262467Y-16297814D02*
X8243419Y-16288290D01*
X8243419Y-16288290D02*
X8233896Y-16278766D01*
X8443419Y-16297814D02*
X8481515Y-16297814D01*
X8481515Y-16297814D02*
X8500562Y-16288290D01*
X8500562Y-16288290D02*
X8510086Y-16278766D01*
X8510086Y-16278766D02*
X8529134Y-16250195D01*
X8529134Y-16250195D02*
X8538658Y-16212099D01*
X8538658Y-16212099D02*
X8538658Y-16135909D01*
X8538658Y-16135909D02*
X8529134Y-16116861D01*
X8529134Y-16116861D02*
X8519610Y-16107338D01*
X8519610Y-16107338D02*
X8500562Y-16097814D01*
X8500562Y-16097814D02*
X8462467Y-16097814D01*
X8462467Y-16097814D02*
X8443419Y-16107338D01*
X8443419Y-16107338D02*
X8433896Y-16116861D01*
X8433896Y-16116861D02*
X8424372Y-16135909D01*
X8424372Y-16135909D02*
X8424372Y-16183528D01*
X8424372Y-16183528D02*
X8433896Y-16202576D01*
X8433896Y-16202576D02*
X8443419Y-16212099D01*
X8443419Y-16212099D02*
X8462467Y-16221623D01*
X8462467Y-16221623D02*
X8500562Y-16221623D01*
X8500562Y-16221623D02*
X8519610Y-16212099D01*
X8519610Y-16212099D02*
X8529134Y-16202576D01*
X8529134Y-16202576D02*
X8538658Y-16183528D01*
X8729134Y-16297814D02*
X8614848Y-16297814D01*
X8671991Y-16297814D02*
X8671991Y-16097814D01*
X8671991Y-16097814D02*
X8652943Y-16126385D01*
X8652943Y-16126385D02*
X8633896Y-16145433D01*
X8633896Y-16145433D02*
X8614848Y-16154957D01*
X8805324Y-16097814D02*
X8805324Y-16135909D01*
X8881515Y-16097814D02*
X8881515Y-16135909D01*
X9176753Y-16374004D02*
X9167229Y-16364480D01*
X9167229Y-16364480D02*
X9148181Y-16335909D01*
X9148181Y-16335909D02*
X9138658Y-16316861D01*
X9138658Y-16316861D02*
X9129134Y-16288290D01*
X9129134Y-16288290D02*
X9119610Y-16240671D01*
X9119610Y-16240671D02*
X9119610Y-16202576D01*
X9119610Y-16202576D02*
X9129134Y-16154957D01*
X9129134Y-16154957D02*
X9138658Y-16126385D01*
X9138658Y-16126385D02*
X9148181Y-16107338D01*
X9148181Y-16107338D02*
X9167229Y-16078766D01*
X9167229Y-16078766D02*
X9176753Y-16069242D01*
X9291039Y-16097814D02*
X9310086Y-16097814D01*
X9310086Y-16097814D02*
X9329134Y-16107338D01*
X9329134Y-16107338D02*
X9338658Y-16116861D01*
X9338658Y-16116861D02*
X9348181Y-16135909D01*
X9348181Y-16135909D02*
X9357705Y-16174004D01*
X9357705Y-16174004D02*
X9357705Y-16221623D01*
X9357705Y-16221623D02*
X9348181Y-16259718D01*
X9348181Y-16259718D02*
X9338658Y-16278766D01*
X9338658Y-16278766D02*
X9329134Y-16288290D01*
X9329134Y-16288290D02*
X9310086Y-16297814D01*
X9310086Y-16297814D02*
X9291039Y-16297814D01*
X9291039Y-16297814D02*
X9271991Y-16288290D01*
X9271991Y-16288290D02*
X9262467Y-16278766D01*
X9262467Y-16278766D02*
X9252943Y-16259718D01*
X9252943Y-16259718D02*
X9243420Y-16221623D01*
X9243420Y-16221623D02*
X9243420Y-16174004D01*
X9243420Y-16174004D02*
X9252943Y-16135909D01*
X9252943Y-16135909D02*
X9262467Y-16116861D01*
X9262467Y-16116861D02*
X9271991Y-16107338D01*
X9271991Y-16107338D02*
X9291039Y-16097814D01*
X9595801Y-16297814D02*
X9595801Y-16097814D01*
X9681515Y-16297814D02*
X9681515Y-16193052D01*
X9681515Y-16193052D02*
X9671991Y-16174004D01*
X9671991Y-16174004D02*
X9652943Y-16164480D01*
X9652943Y-16164480D02*
X9624372Y-16164480D01*
X9624372Y-16164480D02*
X9605324Y-16174004D01*
X9605324Y-16174004D02*
X9595801Y-16183528D01*
X9805324Y-16297814D02*
X9786277Y-16288290D01*
X9786277Y-16288290D02*
X9776753Y-16278766D01*
X9776753Y-16278766D02*
X9767229Y-16259718D01*
X9767229Y-16259718D02*
X9767229Y-16202576D01*
X9767229Y-16202576D02*
X9776753Y-16183528D01*
X9776753Y-16183528D02*
X9786277Y-16174004D01*
X9786277Y-16174004D02*
X9805324Y-16164480D01*
X9805324Y-16164480D02*
X9833896Y-16164480D01*
X9833896Y-16164480D02*
X9852943Y-16174004D01*
X9852943Y-16174004D02*
X9862467Y-16183528D01*
X9862467Y-16183528D02*
X9871991Y-16202576D01*
X9871991Y-16202576D02*
X9871991Y-16259718D01*
X9871991Y-16259718D02*
X9862467Y-16278766D01*
X9862467Y-16278766D02*
X9852943Y-16288290D01*
X9852943Y-16288290D02*
X9833896Y-16297814D01*
X9833896Y-16297814D02*
X9805324Y-16297814D01*
X9986277Y-16297814D02*
X9967229Y-16288290D01*
X9967229Y-16288290D02*
X9957705Y-16269242D01*
X9957705Y-16269242D02*
X9957705Y-16097814D01*
X10138658Y-16288290D02*
X10119610Y-16297814D01*
X10119610Y-16297814D02*
X10081515Y-16297814D01*
X10081515Y-16297814D02*
X10062467Y-16288290D01*
X10062467Y-16288290D02*
X10052943Y-16269242D01*
X10052943Y-16269242D02*
X10052943Y-16193052D01*
X10052943Y-16193052D02*
X10062467Y-16174004D01*
X10062467Y-16174004D02*
X10081515Y-16164480D01*
X10081515Y-16164480D02*
X10119610Y-16164480D01*
X10119610Y-16164480D02*
X10138658Y-16174004D01*
X10138658Y-16174004D02*
X10148182Y-16193052D01*
X10148182Y-16193052D02*
X10148182Y-16212099D01*
X10148182Y-16212099D02*
X10052943Y-16231147D01*
X10224372Y-16288290D02*
X10243420Y-16297814D01*
X10243420Y-16297814D02*
X10281515Y-16297814D01*
X10281515Y-16297814D02*
X10300563Y-16288290D01*
X10300563Y-16288290D02*
X10310086Y-16269242D01*
X10310086Y-16269242D02*
X10310086Y-16259718D01*
X10310086Y-16259718D02*
X10300563Y-16240671D01*
X10300563Y-16240671D02*
X10281515Y-16231147D01*
X10281515Y-16231147D02*
X10252943Y-16231147D01*
X10252943Y-16231147D02*
X10233896Y-16221623D01*
X10233896Y-16221623D02*
X10224372Y-16202576D01*
X10224372Y-16202576D02*
X10224372Y-16193052D01*
X10224372Y-16193052D02*
X10233896Y-16174004D01*
X10233896Y-16174004D02*
X10252943Y-16164480D01*
X10252943Y-16164480D02*
X10281515Y-16164480D01*
X10281515Y-16164480D02*
X10300563Y-16174004D01*
X10548182Y-16221623D02*
X10700563Y-16221623D01*
X10624372Y-16297814D02*
X10624372Y-16145433D01*
X10938658Y-16116861D02*
X10948182Y-16107338D01*
X10948182Y-16107338D02*
X10967229Y-16097814D01*
X10967229Y-16097814D02*
X11014848Y-16097814D01*
X11014848Y-16097814D02*
X11033896Y-16107338D01*
X11033896Y-16107338D02*
X11043420Y-16116861D01*
X11043420Y-16116861D02*
X11052944Y-16135909D01*
X11052944Y-16135909D02*
X11052944Y-16154957D01*
X11052944Y-16154957D02*
X11043420Y-16183528D01*
X11043420Y-16183528D02*
X10929134Y-16297814D01*
X10929134Y-16297814D02*
X11052944Y-16297814D01*
X11281515Y-16288290D02*
X11300563Y-16297814D01*
X11300563Y-16297814D02*
X11338658Y-16297814D01*
X11338658Y-16297814D02*
X11357705Y-16288290D01*
X11357705Y-16288290D02*
X11367229Y-16269242D01*
X11367229Y-16269242D02*
X11367229Y-16259718D01*
X11367229Y-16259718D02*
X11357705Y-16240671D01*
X11357705Y-16240671D02*
X11338658Y-16231147D01*
X11338658Y-16231147D02*
X11310086Y-16231147D01*
X11310086Y-16231147D02*
X11291039Y-16221623D01*
X11291039Y-16221623D02*
X11281515Y-16202576D01*
X11281515Y-16202576D02*
X11281515Y-16193052D01*
X11281515Y-16193052D02*
X11291039Y-16174004D01*
X11291039Y-16174004D02*
X11310086Y-16164480D01*
X11310086Y-16164480D02*
X11338658Y-16164480D01*
X11338658Y-16164480D02*
X11357705Y-16174004D01*
X11481515Y-16297814D02*
X11462467Y-16288290D01*
X11462467Y-16288290D02*
X11452944Y-16269242D01*
X11452944Y-16269242D02*
X11452944Y-16097814D01*
X11586277Y-16297814D02*
X11567229Y-16288290D01*
X11567229Y-16288290D02*
X11557705Y-16278766D01*
X11557705Y-16278766D02*
X11548182Y-16259718D01*
X11548182Y-16259718D02*
X11548182Y-16202576D01*
X11548182Y-16202576D02*
X11557705Y-16183528D01*
X11557705Y-16183528D02*
X11567229Y-16174004D01*
X11567229Y-16174004D02*
X11586277Y-16164480D01*
X11586277Y-16164480D02*
X11614848Y-16164480D01*
X11614848Y-16164480D02*
X11633896Y-16174004D01*
X11633896Y-16174004D02*
X11643420Y-16183528D01*
X11643420Y-16183528D02*
X11652944Y-16202576D01*
X11652944Y-16202576D02*
X11652944Y-16259718D01*
X11652944Y-16259718D02*
X11643420Y-16278766D01*
X11643420Y-16278766D02*
X11633896Y-16288290D01*
X11633896Y-16288290D02*
X11614848Y-16297814D01*
X11614848Y-16297814D02*
X11586277Y-16297814D01*
X11710086Y-16164480D02*
X11786277Y-16164480D01*
X11738658Y-16097814D02*
X11738658Y-16269242D01*
X11738658Y-16269242D02*
X11748182Y-16288290D01*
X11748182Y-16288290D02*
X11767229Y-16297814D01*
X11767229Y-16297814D02*
X11786277Y-16297814D01*
X11843420Y-16288290D02*
X11862467Y-16297814D01*
X11862467Y-16297814D02*
X11900563Y-16297814D01*
X11900563Y-16297814D02*
X11919610Y-16288290D01*
X11919610Y-16288290D02*
X11929134Y-16269242D01*
X11929134Y-16269242D02*
X11929134Y-16259718D01*
X11929134Y-16259718D02*
X11919610Y-16240671D01*
X11919610Y-16240671D02*
X11900563Y-16231147D01*
X11900563Y-16231147D02*
X11871991Y-16231147D01*
X11871991Y-16231147D02*
X11852944Y-16221623D01*
X11852944Y-16221623D02*
X11843420Y-16202576D01*
X11843420Y-16202576D02*
X11843420Y-16193052D01*
X11843420Y-16193052D02*
X11852944Y-16174004D01*
X11852944Y-16174004D02*
X11871991Y-16164480D01*
X11871991Y-16164480D02*
X11900563Y-16164480D01*
X11900563Y-16164480D02*
X11919610Y-16174004D01*
X11995801Y-16374004D02*
X12005325Y-16364480D01*
X12005325Y-16364480D02*
X12024372Y-16335909D01*
X12024372Y-16335909D02*
X12033896Y-16316861D01*
X12033896Y-16316861D02*
X12043420Y-16288290D01*
X12043420Y-16288290D02*
X12052944Y-16240671D01*
X12052944Y-16240671D02*
X12052944Y-16202576D01*
X12052944Y-16202576D02*
X12043420Y-16154957D01*
X12043420Y-16154957D02*
X12033896Y-16126385D01*
X12033896Y-16126385D02*
X12024372Y-16107338D01*
X12024372Y-16107338D02*
X12005325Y-16078766D01*
X12005325Y-16078766D02*
X11995801Y-16069242D01*
M02*
