%TF.GenerationSoftware,KiCad,Pcbnew,9.0.2+dfsg-1*%
%TF.CreationDate,2026-10-08T02:08:59+08:00*%
%TF.ProjectId,creative-controller,63726561-7469-4766-952d-636f6e74726f,rev?*%
%TF.SameCoordinates,Original*%
%TF.FileFunction,Soldermask,Top*%
%TF.FilePolarity,Negative*%
%FSLAX46Y46*%
G04 Gerber Fmt 4.6, Leading zero omitted, Abs format (unit mm)*
G04 Created by KiCad (PCBNEW 9.0.2+dfsg-1) date 2026-10-08 02:08:59*
%MOMM*%
%LPD*%
G01*
G04 APERTURE LIST*
G04 Aperture macros list*
%AMRoundRect*
0 Rectangle with rounded corners*
0 $1 Rounding radius*
0 $2 $3 $4 $5 $6 $7 $8 $9 X,Y pos of 4 corners*
0 Add a 4 corners polygon primitive as box body*
4,1,4,$2,$3,$4,$5,$6,$7,$8,$9,$2,$3,0*
0 Add four circle primitives for the rounded corners*
1,1,$1+$1,$2,$3*
1,1,$1+$1,$4,$5*
1,1,$1+$1,$6,$7*
1,1,$1+$1,$8,$9*
0 Add four rect primitives between the rounded corners*
20,1,$1+$1,$2,$3,$4,$5,0*
20,1,$1+$1,$4,$5,$6,$7,0*
20,1,$1+$1,$6,$7,$8,$9,0*
20,1,$1+$1,$8,$9,$2,$3,0*%
G04 Aperture macros list end*
%ADD10R,1.000000X0.800000*%
%ADD11C,0.900000*%
%ADD12R,0.700000X1.500000*%
%ADD13R,2.000000X2.000000*%
%ADD14C,2.000000*%
%ADD15R,3.200000X2.000000*%
%ADD16RoundRect,0.135000X0.185000X-0.135000X0.185000X0.135000X-0.185000X0.135000X-0.185000X-0.135000X0*%
%ADD17RoundRect,0.225000X0.250000X-0.225000X0.250000X0.225000X-0.250000X0.225000X-0.250000X-0.225000X0*%
%ADD18RoundRect,0.150000X-0.587500X-0.150000X0.587500X-0.150000X0.587500X0.150000X-0.587500X0.150000X0*%
%ADD19RoundRect,0.140000X0.170000X-0.140000X0.170000X0.140000X-0.170000X0.140000X-0.170000X-0.140000X0*%
%ADD20R,1.700000X1.000000*%
%ADD21RoundRect,0.150000X-0.512500X-0.150000X0.512500X-0.150000X0.512500X0.150000X-0.512500X0.150000X0*%
%ADD22C,2.200000*%
%ADD23RoundRect,0.250000X1.500000X-0.250000X1.500000X0.250000X-1.500000X0.250000X-1.500000X-0.250000X0*%
%ADD24RoundRect,0.250001X1.449999X-0.499999X1.449999X0.499999X-1.449999X0.499999X-1.449999X-0.499999X0*%
%ADD25R,1.300000X1.550000*%
%ADD26R,1.550000X1.300000*%
%ADD27R,1.500000X0.900000*%
%ADD28R,0.900000X1.500000*%
%ADD29C,0.600000*%
%ADD30R,3.900000X3.900000*%
%ADD31RoundRect,0.250000X0.475000X-0.250000X0.475000X0.250000X-0.475000X0.250000X-0.475000X-0.250000X0*%
%ADD32RoundRect,0.090000X-0.660000X-0.360000X0.660000X-0.360000X0.660000X0.360000X-0.660000X0.360000X0*%
%ADD33C,1.800000*%
%ADD34C,1.600000*%
%ADD35RoundRect,0.135000X-0.135000X-0.185000X0.135000X-0.185000X0.135000X0.185000X-0.135000X0.185000X0*%
%ADD36C,0.650000*%
%ADD37R,0.600000X1.450000*%
%ADD38R,0.300000X1.450000*%
%ADD39O,1.000000X2.100000*%
%ADD40O,1.000000X1.600000*%
%ADD41RoundRect,0.225000X-0.225000X-0.375000X0.225000X-0.375000X0.225000X0.375000X-0.225000X0.375000X0*%
G04 APERTURE END LIST*
D10*
%TO.C,SW12*%
X134650000Y-60095300D03*
X134650000Y-57885300D03*
D11*
X132500000Y-58985300D03*
X129500000Y-58985300D03*
D10*
X127350000Y-60095300D03*
X127350000Y-57885300D03*
D12*
X133250000Y-60745300D03*
X130250000Y-60745300D03*
X128750000Y-60745300D03*
%TD*%
D13*
%TO.C,ENC1*%
X92500000Y-95500000D03*
D14*
X92500000Y-100500000D03*
X92500000Y-98000000D03*
D15*
X100000000Y-92400000D03*
X100000000Y-103600000D03*
D14*
X107000000Y-100500000D03*
X107000000Y-95500000D03*
%TD*%
D16*
%TO.C,R4*%
X107000000Y-62510000D03*
X107000000Y-61490000D03*
%TD*%
D17*
%TO.C,C7*%
X109000000Y-89775000D03*
X109000000Y-88225000D03*
%TD*%
D18*
%TO.C,Q1*%
X111062500Y-82050000D03*
X111062500Y-83950000D03*
X112937500Y-83000000D03*
%TD*%
D19*
%TO.C,C9*%
X89000000Y-80480000D03*
X89000000Y-79520000D03*
%TD*%
D16*
%TO.C,R16*%
X90000000Y-87510000D03*
X90000000Y-86490000D03*
%TD*%
D20*
%TO.C,SW11*%
X99850000Y-110100000D03*
X106150000Y-110100000D03*
X99850000Y-113900000D03*
X106150000Y-113900000D03*
%TD*%
D21*
%TO.C,U3*%
X116862500Y-73050000D03*
X116862500Y-74000000D03*
X116862500Y-74950000D03*
X119137500Y-74950000D03*
X119137500Y-73050000D03*
%TD*%
D17*
%TO.C,C4*%
X113000000Y-73775000D03*
X113000000Y-72225000D03*
%TD*%
D22*
%TO.C,H2*%
X62000000Y-134000000D03*
%TD*%
D16*
%TO.C,R9*%
X117000000Y-113510000D03*
X117000000Y-112490000D03*
%TD*%
%TO.C,R8*%
X114000000Y-113510000D03*
X114000000Y-112490000D03*
%TD*%
%TO.C,R7*%
X122000000Y-82510000D03*
X122000000Y-81490000D03*
%TD*%
D23*
%TO.C,J2*%
X77150000Y-107000000D03*
X77150000Y-105000000D03*
D24*
X82900000Y-109350000D03*
X82900000Y-102650000D03*
%TD*%
D16*
%TO.C,R13*%
X108000000Y-107510000D03*
X108000000Y-106490000D03*
%TD*%
%TO.C,R14*%
X110000000Y-107510000D03*
X110000000Y-106490000D03*
%TD*%
D22*
%TO.C,H1*%
X60000000Y-76000000D03*
%TD*%
D16*
%TO.C,R10*%
X125000000Y-82510000D03*
X125000000Y-81490000D03*
%TD*%
D19*
%TO.C,C2*%
X111000000Y-128480000D03*
X111000000Y-127520000D03*
%TD*%
D25*
%TO.C,SW9*%
X57750000Y-97980000D03*
X57750000Y-90020000D03*
X62250000Y-97980000D03*
X62250000Y-90020000D03*
%TD*%
D26*
%TO.C,SW6*%
X62020000Y-117750000D03*
X69980000Y-117750000D03*
X62020000Y-122250000D03*
X69980000Y-122250000D03*
%TD*%
D27*
%TO.C,U1*%
X108750000Y-133760000D03*
X108750000Y-132490000D03*
X108750000Y-131220000D03*
X108750000Y-129950000D03*
X108750000Y-128680000D03*
X108750000Y-127410000D03*
X108750000Y-126140000D03*
X108750000Y-124870000D03*
X108750000Y-123600000D03*
X108750000Y-122330000D03*
X108750000Y-121060000D03*
X108750000Y-119790000D03*
X108750000Y-118520000D03*
X108750000Y-117250000D03*
D28*
X106985000Y-116000000D03*
X105715000Y-116000000D03*
X104445000Y-116000000D03*
X103175000Y-116000000D03*
X101905000Y-116000000D03*
X100635000Y-116000000D03*
X99365000Y-116000000D03*
X98095000Y-116000000D03*
X96825000Y-116000000D03*
X95555000Y-116000000D03*
X94285000Y-116000000D03*
X93015000Y-116000000D03*
D27*
X91250000Y-117250000D03*
X91250000Y-118520000D03*
X91250000Y-119790000D03*
X91250000Y-121060000D03*
X91250000Y-122330000D03*
X91250000Y-123600000D03*
X91250000Y-124870000D03*
X91250000Y-126140000D03*
X91250000Y-127410000D03*
X91250000Y-128680000D03*
X91250000Y-129950000D03*
X91250000Y-131220000D03*
X91250000Y-132490000D03*
X91250000Y-133760000D03*
D29*
X102900000Y-126740000D03*
X102900000Y-125340000D03*
X102200000Y-127440000D03*
X102200000Y-126040000D03*
X102200000Y-124640000D03*
X101500000Y-126740000D03*
D30*
X101500000Y-126040000D03*
D29*
X101500000Y-125340000D03*
X100800000Y-127440000D03*
X100800000Y-126040000D03*
X100800000Y-124640000D03*
X100100000Y-126740000D03*
X100100000Y-125340000D03*
%TD*%
D26*
%TO.C,SW8*%
X132020000Y-122750000D03*
X139980000Y-122750000D03*
X132020000Y-127250000D03*
X139980000Y-127250000D03*
%TD*%
D16*
%TO.C,R11*%
X119000000Y-90510000D03*
X119000000Y-89490000D03*
%TD*%
D31*
%TO.C,C15*%
X111000000Y-132950000D03*
X111000000Y-131050000D03*
%TD*%
D19*
%TO.C,C11*%
X112500000Y-107480000D03*
X112500000Y-106520000D03*
%TD*%
D21*
%TO.C,U2*%
X92862500Y-70050000D03*
X92862500Y-71000000D03*
X92862500Y-71950000D03*
X95137500Y-71950000D03*
X95137500Y-71000000D03*
X95137500Y-70050000D03*
%TD*%
D17*
%TO.C,C1*%
X111000000Y-124775000D03*
X111000000Y-123225000D03*
%TD*%
D22*
%TO.C,H3*%
X142000000Y-88000000D03*
%TD*%
D19*
%TO.C,C12*%
X114500000Y-107480000D03*
X114500000Y-106520000D03*
%TD*%
D21*
%TO.C,U5*%
X90862500Y-77550000D03*
X90862500Y-78500000D03*
X90862500Y-79450000D03*
X93137500Y-79450000D03*
X93137500Y-77550000D03*
%TD*%
D22*
%TO.C,H4*%
X128000000Y-112000000D03*
%TD*%
D16*
%TO.C,R3*%
X93000000Y-62510000D03*
X93000000Y-61490000D03*
%TD*%
D26*
%TO.C,SW2*%
X99020000Y-66750000D03*
X106980000Y-66750000D03*
X99020000Y-71250000D03*
X106980000Y-71250000D03*
%TD*%
D32*
%TO.C,D2*%
X81550000Y-78350000D03*
X81550000Y-81650000D03*
X86450000Y-81650000D03*
X86450000Y-78350000D03*
%TD*%
D26*
%TO.C,SW7*%
X114020000Y-123750000D03*
X121980000Y-123750000D03*
X114020000Y-128250000D03*
X121980000Y-128250000D03*
%TD*%
%TO.C,SW5*%
X132020000Y-102750000D03*
X139980000Y-102750000D03*
X132020000Y-107250000D03*
X139980000Y-107250000D03*
%TD*%
D19*
%TO.C,C13*%
X92500000Y-87480000D03*
X92500000Y-86520000D03*
%TD*%
D16*
%TO.C,R15*%
X88000000Y-87510000D03*
X88000000Y-86490000D03*
%TD*%
%TO.C,R12*%
X122000000Y-90510000D03*
X122000000Y-89490000D03*
%TD*%
D19*
%TO.C,C10*%
X95000000Y-78980000D03*
X95000000Y-78020000D03*
%TD*%
D33*
%TO.C,ENC2*%
X79500000Y-99000000D03*
X79500000Y-89000000D03*
D34*
X77000000Y-94000000D03*
X82000000Y-94000000D03*
X79500000Y-94000000D03*
%TD*%
D35*
%TO.C,R5*%
X115490000Y-86000000D03*
X116510000Y-86000000D03*
%TD*%
D16*
%TO.C,R6*%
X122000000Y-78510000D03*
X122000000Y-77490000D03*
%TD*%
D36*
%TO.C,J1*%
X102890000Y-61000300D03*
X97110000Y-61000300D03*
D37*
X103250000Y-62445300D03*
X102450000Y-62445300D03*
D38*
X101250000Y-62445300D03*
X100250000Y-62445300D03*
X99750000Y-62445300D03*
X98750000Y-62445300D03*
D37*
X97550000Y-62445300D03*
X96750000Y-62445300D03*
X96750000Y-62445300D03*
X97550000Y-62445300D03*
D38*
X98250000Y-62445300D03*
X99250000Y-62445300D03*
X100750000Y-62445300D03*
X101750000Y-62445300D03*
D37*
X102450000Y-62445300D03*
X103250000Y-62445300D03*
D39*
X104320000Y-61530300D03*
D40*
X104320000Y-57350300D03*
D39*
X95680000Y-61530300D03*
D40*
X95680000Y-57350300D03*
%TD*%
D20*
%TO.C,SW10*%
X90850000Y-110100000D03*
X97150000Y-110100000D03*
X90850000Y-113900000D03*
X97150000Y-113900000D03*
%TD*%
D16*
%TO.C,R1*%
X89000000Y-122510000D03*
X89000000Y-121490000D03*
%TD*%
D17*
%TO.C,C6*%
X99000000Y-84775000D03*
X99000000Y-83225000D03*
%TD*%
D16*
%TO.C,R2*%
X89000000Y-118510000D03*
X89000000Y-117490000D03*
%TD*%
D41*
%TO.C,D1*%
X110350000Y-78000000D03*
X113650000Y-78000000D03*
%TD*%
D19*
%TO.C,C14*%
X94500000Y-87480000D03*
X94500000Y-86520000D03*
%TD*%
D17*
%TO.C,C5*%
X123000000Y-72775000D03*
X123000000Y-71225000D03*
%TD*%
D19*
%TO.C,C3*%
X89000000Y-126480000D03*
X89000000Y-125520000D03*
%TD*%
%TO.C,C8*%
X120000000Y-113480000D03*
X120000000Y-112520000D03*
%TD*%
D26*
%TO.C,SW1*%
X81020000Y-66750000D03*
X88980000Y-66750000D03*
X81020000Y-71250000D03*
X88980000Y-71250000D03*
%TD*%
D21*
%TO.C,U4*%
X102862500Y-84050000D03*
X102862500Y-85000000D03*
X102862500Y-85950000D03*
X105137500Y-85950000D03*
X105137500Y-84050000D03*
%TD*%
D26*
%TO.C,SW3*%
X116020000Y-61750000D03*
X123980000Y-61750000D03*
X116020000Y-66250000D03*
X123980000Y-66250000D03*
%TD*%
%TO.C,SW4*%
X134020000Y-72750000D03*
X141980000Y-72750000D03*
X134020000Y-77250000D03*
X141980000Y-77250000D03*
%TD*%
M02*
