%TF.GenerationSoftware,KiCad,Pcbnew,9.0.2+dfsg-1*%
%TF.CreationDate,2026-10-08T02:08:59+08:00*%
%TF.ProjectId,creative-controller,63726561-7469-4766-952d-636f6e74726f,rev?*%
%TF.SameCoordinates,Original*%
%TF.FileFunction,Legend,Top*%
%TF.FilePolarity,Positive*%
%FSLAX46Y46*%
G04 Gerber Fmt 4.6, Leading zero omitted, Abs format (unit mm)*
G04 Created by KiCad (PCBNEW 9.0.2+dfsg-1) date 2026-10-08 02:08:59*
%MOMM*%
%LPD*%
G01*
G04 APERTURE LIST*
%ADD10C,0.150000*%
%ADD11C,0.120000*%
G04 APERTURE END LIST*
D10*
X129190476Y-62922500D02*
X129333333Y-62970119D01*
X129333333Y-62970119D02*
X129571428Y-62970119D01*
X129571428Y-62970119D02*
X129666666Y-62922500D01*
X129666666Y-62922500D02*
X129714285Y-62874880D01*
X129714285Y-62874880D02*
X129761904Y-62779642D01*
X129761904Y-62779642D02*
X129761904Y-62684404D01*
X129761904Y-62684404D02*
X129714285Y-62589166D01*
X129714285Y-62589166D02*
X129666666Y-62541547D01*
X129666666Y-62541547D02*
X129571428Y-62493928D01*
X129571428Y-62493928D02*
X129380952Y-62446309D01*
X129380952Y-62446309D02*
X129285714Y-62398690D01*
X129285714Y-62398690D02*
X129238095Y-62351071D01*
X129238095Y-62351071D02*
X129190476Y-62255833D01*
X129190476Y-62255833D02*
X129190476Y-62160595D01*
X129190476Y-62160595D02*
X129238095Y-62065357D01*
X129238095Y-62065357D02*
X129285714Y-62017738D01*
X129285714Y-62017738D02*
X129380952Y-61970119D01*
X129380952Y-61970119D02*
X129619047Y-61970119D01*
X129619047Y-61970119D02*
X129761904Y-62017738D01*
X130095238Y-61970119D02*
X130333333Y-62970119D01*
X130333333Y-62970119D02*
X130523809Y-62255833D01*
X130523809Y-62255833D02*
X130714285Y-62970119D01*
X130714285Y-62970119D02*
X130952381Y-61970119D01*
X131857142Y-62970119D02*
X131285714Y-62970119D01*
X131571428Y-62970119D02*
X131571428Y-61970119D01*
X131571428Y-61970119D02*
X131476190Y-62112976D01*
X131476190Y-62112976D02*
X131380952Y-62208214D01*
X131380952Y-62208214D02*
X131285714Y-62255833D01*
X132238095Y-62065357D02*
X132285714Y-62017738D01*
X132285714Y-62017738D02*
X132380952Y-61970119D01*
X132380952Y-61970119D02*
X132619047Y-61970119D01*
X132619047Y-61970119D02*
X132714285Y-62017738D01*
X132714285Y-62017738D02*
X132761904Y-62065357D01*
X132761904Y-62065357D02*
X132809523Y-62160595D01*
X132809523Y-62160595D02*
X132809523Y-62255833D01*
X132809523Y-62255833D02*
X132761904Y-62398690D01*
X132761904Y-62398690D02*
X132190476Y-62970119D01*
X132190476Y-62970119D02*
X132809523Y-62970119D01*
X93585714Y-90731009D02*
X93919047Y-90731009D01*
X94061904Y-91254819D02*
X93585714Y-91254819D01*
X93585714Y-91254819D02*
X93585714Y-90254819D01*
X93585714Y-90254819D02*
X94061904Y-90254819D01*
X94490476Y-91254819D02*
X94490476Y-90254819D01*
X94490476Y-90254819D02*
X95061904Y-91254819D01*
X95061904Y-91254819D02*
X95061904Y-90254819D01*
X96109523Y-91159580D02*
X96061904Y-91207200D01*
X96061904Y-91207200D02*
X95919047Y-91254819D01*
X95919047Y-91254819D02*
X95823809Y-91254819D01*
X95823809Y-91254819D02*
X95680952Y-91207200D01*
X95680952Y-91207200D02*
X95585714Y-91111961D01*
X95585714Y-91111961D02*
X95538095Y-91016723D01*
X95538095Y-91016723D02*
X95490476Y-90826247D01*
X95490476Y-90826247D02*
X95490476Y-90683390D01*
X95490476Y-90683390D02*
X95538095Y-90492914D01*
X95538095Y-90492914D02*
X95585714Y-90397676D01*
X95585714Y-90397676D02*
X95680952Y-90302438D01*
X95680952Y-90302438D02*
X95823809Y-90254819D01*
X95823809Y-90254819D02*
X95919047Y-90254819D01*
X95919047Y-90254819D02*
X96061904Y-90302438D01*
X96061904Y-90302438D02*
X96109523Y-90350057D01*
X97061904Y-91254819D02*
X96490476Y-91254819D01*
X96776190Y-91254819D02*
X96776190Y-90254819D01*
X96776190Y-90254819D02*
X96680952Y-90397676D01*
X96680952Y-90397676D02*
X96585714Y-90492914D01*
X96585714Y-90492914D02*
X96490476Y-90540533D01*
D11*
X106193855Y-62133332D02*
X105812902Y-62399999D01*
X106193855Y-62590475D02*
X105393855Y-62590475D01*
X105393855Y-62590475D02*
X105393855Y-62285713D01*
X105393855Y-62285713D02*
X105431950Y-62209523D01*
X105431950Y-62209523D02*
X105470045Y-62171428D01*
X105470045Y-62171428D02*
X105546236Y-62133332D01*
X105546236Y-62133332D02*
X105660521Y-62133332D01*
X105660521Y-62133332D02*
X105736712Y-62171428D01*
X105736712Y-62171428D02*
X105774807Y-62209523D01*
X105774807Y-62209523D02*
X105812902Y-62285713D01*
X105812902Y-62285713D02*
X105812902Y-62590475D01*
X105660521Y-61447618D02*
X106193855Y-61447618D01*
X105355760Y-61638094D02*
X105927188Y-61828571D01*
X105927188Y-61828571D02*
X105927188Y-61333332D01*
X107857664Y-89133332D02*
X107895760Y-89171428D01*
X107895760Y-89171428D02*
X107933855Y-89285713D01*
X107933855Y-89285713D02*
X107933855Y-89361904D01*
X107933855Y-89361904D02*
X107895760Y-89476190D01*
X107895760Y-89476190D02*
X107819569Y-89552380D01*
X107819569Y-89552380D02*
X107743379Y-89590475D01*
X107743379Y-89590475D02*
X107590998Y-89628571D01*
X107590998Y-89628571D02*
X107476712Y-89628571D01*
X107476712Y-89628571D02*
X107324331Y-89590475D01*
X107324331Y-89590475D02*
X107248140Y-89552380D01*
X107248140Y-89552380D02*
X107171950Y-89476190D01*
X107171950Y-89476190D02*
X107133855Y-89361904D01*
X107133855Y-89361904D02*
X107133855Y-89285713D01*
X107133855Y-89285713D02*
X107171950Y-89171428D01*
X107171950Y-89171428D02*
X107210045Y-89133332D01*
X107133855Y-88866666D02*
X107133855Y-88333332D01*
X107133855Y-88333332D02*
X107933855Y-88676190D01*
D10*
X111904761Y-81150057D02*
X111809523Y-81102438D01*
X111809523Y-81102438D02*
X111714285Y-81007200D01*
X111714285Y-81007200D02*
X111571428Y-80864342D01*
X111571428Y-80864342D02*
X111476190Y-80816723D01*
X111476190Y-80816723D02*
X111380952Y-80816723D01*
X111428571Y-81054819D02*
X111333333Y-81007200D01*
X111333333Y-81007200D02*
X111238095Y-80911961D01*
X111238095Y-80911961D02*
X111190476Y-80721485D01*
X111190476Y-80721485D02*
X111190476Y-80388152D01*
X111190476Y-80388152D02*
X111238095Y-80197676D01*
X111238095Y-80197676D02*
X111333333Y-80102438D01*
X111333333Y-80102438D02*
X111428571Y-80054819D01*
X111428571Y-80054819D02*
X111619047Y-80054819D01*
X111619047Y-80054819D02*
X111714285Y-80102438D01*
X111714285Y-80102438D02*
X111809523Y-80197676D01*
X111809523Y-80197676D02*
X111857142Y-80388152D01*
X111857142Y-80388152D02*
X111857142Y-80721485D01*
X111857142Y-80721485D02*
X111809523Y-80911961D01*
X111809523Y-80911961D02*
X111714285Y-81007200D01*
X111714285Y-81007200D02*
X111619047Y-81054819D01*
X111619047Y-81054819D02*
X111428571Y-81054819D01*
X112809523Y-81054819D02*
X112238095Y-81054819D01*
X112523809Y-81054819D02*
X112523809Y-80054819D01*
X112523809Y-80054819D02*
X112428571Y-80197676D01*
X112428571Y-80197676D02*
X112333333Y-80292914D01*
X112333333Y-80292914D02*
X112238095Y-80340533D01*
D11*
X88127664Y-80133332D02*
X88165760Y-80171428D01*
X88165760Y-80171428D02*
X88203855Y-80285713D01*
X88203855Y-80285713D02*
X88203855Y-80361904D01*
X88203855Y-80361904D02*
X88165760Y-80476190D01*
X88165760Y-80476190D02*
X88089569Y-80552380D01*
X88089569Y-80552380D02*
X88013379Y-80590475D01*
X88013379Y-80590475D02*
X87860998Y-80628571D01*
X87860998Y-80628571D02*
X87746712Y-80628571D01*
X87746712Y-80628571D02*
X87594331Y-80590475D01*
X87594331Y-80590475D02*
X87518140Y-80552380D01*
X87518140Y-80552380D02*
X87441950Y-80476190D01*
X87441950Y-80476190D02*
X87403855Y-80361904D01*
X87403855Y-80361904D02*
X87403855Y-80285713D01*
X87403855Y-80285713D02*
X87441950Y-80171428D01*
X87441950Y-80171428D02*
X87480045Y-80133332D01*
X88203855Y-79752380D02*
X88203855Y-79599999D01*
X88203855Y-79599999D02*
X88165760Y-79523809D01*
X88165760Y-79523809D02*
X88127664Y-79485713D01*
X88127664Y-79485713D02*
X88013379Y-79409523D01*
X88013379Y-79409523D02*
X87860998Y-79371428D01*
X87860998Y-79371428D02*
X87556236Y-79371428D01*
X87556236Y-79371428D02*
X87480045Y-79409523D01*
X87480045Y-79409523D02*
X87441950Y-79447618D01*
X87441950Y-79447618D02*
X87403855Y-79523809D01*
X87403855Y-79523809D02*
X87403855Y-79676190D01*
X87403855Y-79676190D02*
X87441950Y-79752380D01*
X87441950Y-79752380D02*
X87480045Y-79790475D01*
X87480045Y-79790475D02*
X87556236Y-79828571D01*
X87556236Y-79828571D02*
X87746712Y-79828571D01*
X87746712Y-79828571D02*
X87822902Y-79790475D01*
X87822902Y-79790475D02*
X87860998Y-79752380D01*
X87860998Y-79752380D02*
X87899093Y-79676190D01*
X87899093Y-79676190D02*
X87899093Y-79523809D01*
X87899093Y-79523809D02*
X87860998Y-79447618D01*
X87860998Y-79447618D02*
X87822902Y-79409523D01*
X87822902Y-79409523D02*
X87746712Y-79371428D01*
X89193855Y-87514285D02*
X88812902Y-87780952D01*
X89193855Y-87971428D02*
X88393855Y-87971428D01*
X88393855Y-87971428D02*
X88393855Y-87666666D01*
X88393855Y-87666666D02*
X88431950Y-87590476D01*
X88431950Y-87590476D02*
X88470045Y-87552381D01*
X88470045Y-87552381D02*
X88546236Y-87514285D01*
X88546236Y-87514285D02*
X88660521Y-87514285D01*
X88660521Y-87514285D02*
X88736712Y-87552381D01*
X88736712Y-87552381D02*
X88774807Y-87590476D01*
X88774807Y-87590476D02*
X88812902Y-87666666D01*
X88812902Y-87666666D02*
X88812902Y-87971428D01*
X89193855Y-86752381D02*
X89193855Y-87209524D01*
X89193855Y-86980952D02*
X88393855Y-86980952D01*
X88393855Y-86980952D02*
X88508140Y-87057143D01*
X88508140Y-87057143D02*
X88584331Y-87133333D01*
X88584331Y-87133333D02*
X88622426Y-87209524D01*
X88393855Y-86066666D02*
X88393855Y-86219047D01*
X88393855Y-86219047D02*
X88431950Y-86295238D01*
X88431950Y-86295238D02*
X88470045Y-86333333D01*
X88470045Y-86333333D02*
X88584331Y-86409523D01*
X88584331Y-86409523D02*
X88736712Y-86447619D01*
X88736712Y-86447619D02*
X89041474Y-86447619D01*
X89041474Y-86447619D02*
X89117664Y-86409523D01*
X89117664Y-86409523D02*
X89155760Y-86371428D01*
X89155760Y-86371428D02*
X89193855Y-86295238D01*
X89193855Y-86295238D02*
X89193855Y-86142857D01*
X89193855Y-86142857D02*
X89155760Y-86066666D01*
X89155760Y-86066666D02*
X89117664Y-86028571D01*
X89117664Y-86028571D02*
X89041474Y-85990476D01*
X89041474Y-85990476D02*
X88850998Y-85990476D01*
X88850998Y-85990476D02*
X88774807Y-86028571D01*
X88774807Y-86028571D02*
X88736712Y-86066666D01*
X88736712Y-86066666D02*
X88698617Y-86142857D01*
X88698617Y-86142857D02*
X88698617Y-86295238D01*
X88698617Y-86295238D02*
X88736712Y-86371428D01*
X88736712Y-86371428D02*
X88774807Y-86409523D01*
X88774807Y-86409523D02*
X88850998Y-86447619D01*
D10*
X101190476Y-108657200D02*
X101333333Y-108704819D01*
X101333333Y-108704819D02*
X101571428Y-108704819D01*
X101571428Y-108704819D02*
X101666666Y-108657200D01*
X101666666Y-108657200D02*
X101714285Y-108609580D01*
X101714285Y-108609580D02*
X101761904Y-108514342D01*
X101761904Y-108514342D02*
X101761904Y-108419104D01*
X101761904Y-108419104D02*
X101714285Y-108323866D01*
X101714285Y-108323866D02*
X101666666Y-108276247D01*
X101666666Y-108276247D02*
X101571428Y-108228628D01*
X101571428Y-108228628D02*
X101380952Y-108181009D01*
X101380952Y-108181009D02*
X101285714Y-108133390D01*
X101285714Y-108133390D02*
X101238095Y-108085771D01*
X101238095Y-108085771D02*
X101190476Y-107990533D01*
X101190476Y-107990533D02*
X101190476Y-107895295D01*
X101190476Y-107895295D02*
X101238095Y-107800057D01*
X101238095Y-107800057D02*
X101285714Y-107752438D01*
X101285714Y-107752438D02*
X101380952Y-107704819D01*
X101380952Y-107704819D02*
X101619047Y-107704819D01*
X101619047Y-107704819D02*
X101761904Y-107752438D01*
X102095238Y-107704819D02*
X102333333Y-108704819D01*
X102333333Y-108704819D02*
X102523809Y-107990533D01*
X102523809Y-107990533D02*
X102714285Y-108704819D01*
X102714285Y-108704819D02*
X102952381Y-107704819D01*
X103857142Y-108704819D02*
X103285714Y-108704819D01*
X103571428Y-108704819D02*
X103571428Y-107704819D01*
X103571428Y-107704819D02*
X103476190Y-107847676D01*
X103476190Y-107847676D02*
X103380952Y-107942914D01*
X103380952Y-107942914D02*
X103285714Y-107990533D01*
X104809523Y-108704819D02*
X104238095Y-108704819D01*
X104523809Y-108704819D02*
X104523809Y-107704819D01*
X104523809Y-107704819D02*
X104428571Y-107847676D01*
X104428571Y-107847676D02*
X104333333Y-107942914D01*
X104333333Y-107942914D02*
X104238095Y-107990533D01*
X117238095Y-71054819D02*
X117238095Y-71864342D01*
X117238095Y-71864342D02*
X117285714Y-71959580D01*
X117285714Y-71959580D02*
X117333333Y-72007200D01*
X117333333Y-72007200D02*
X117428571Y-72054819D01*
X117428571Y-72054819D02*
X117619047Y-72054819D01*
X117619047Y-72054819D02*
X117714285Y-72007200D01*
X117714285Y-72007200D02*
X117761904Y-71959580D01*
X117761904Y-71959580D02*
X117809523Y-71864342D01*
X117809523Y-71864342D02*
X117809523Y-71054819D01*
X118190476Y-71054819D02*
X118809523Y-71054819D01*
X118809523Y-71054819D02*
X118476190Y-71435771D01*
X118476190Y-71435771D02*
X118619047Y-71435771D01*
X118619047Y-71435771D02*
X118714285Y-71483390D01*
X118714285Y-71483390D02*
X118761904Y-71531009D01*
X118761904Y-71531009D02*
X118809523Y-71626247D01*
X118809523Y-71626247D02*
X118809523Y-71864342D01*
X118809523Y-71864342D02*
X118761904Y-71959580D01*
X118761904Y-71959580D02*
X118714285Y-72007200D01*
X118714285Y-72007200D02*
X118619047Y-72054819D01*
X118619047Y-72054819D02*
X118333333Y-72054819D01*
X118333333Y-72054819D02*
X118238095Y-72007200D01*
X118238095Y-72007200D02*
X118190476Y-71959580D01*
D11*
X111857664Y-73133332D02*
X111895760Y-73171428D01*
X111895760Y-73171428D02*
X111933855Y-73285713D01*
X111933855Y-73285713D02*
X111933855Y-73361904D01*
X111933855Y-73361904D02*
X111895760Y-73476190D01*
X111895760Y-73476190D02*
X111819569Y-73552380D01*
X111819569Y-73552380D02*
X111743379Y-73590475D01*
X111743379Y-73590475D02*
X111590998Y-73628571D01*
X111590998Y-73628571D02*
X111476712Y-73628571D01*
X111476712Y-73628571D02*
X111324331Y-73590475D01*
X111324331Y-73590475D02*
X111248140Y-73552380D01*
X111248140Y-73552380D02*
X111171950Y-73476190D01*
X111171950Y-73476190D02*
X111133855Y-73361904D01*
X111133855Y-73361904D02*
X111133855Y-73285713D01*
X111133855Y-73285713D02*
X111171950Y-73171428D01*
X111171950Y-73171428D02*
X111210045Y-73133332D01*
X111400521Y-72447618D02*
X111933855Y-72447618D01*
X111095760Y-72638094D02*
X111667188Y-72828571D01*
X111667188Y-72828571D02*
X111667188Y-72333332D01*
D10*
X61238095Y-131304819D02*
X61238095Y-130304819D01*
X61238095Y-130781009D02*
X61809523Y-130781009D01*
X61809523Y-131304819D02*
X61809523Y-130304819D01*
X62238095Y-130400057D02*
X62285714Y-130352438D01*
X62285714Y-130352438D02*
X62380952Y-130304819D01*
X62380952Y-130304819D02*
X62619047Y-130304819D01*
X62619047Y-130304819D02*
X62714285Y-130352438D01*
X62714285Y-130352438D02*
X62761904Y-130400057D01*
X62761904Y-130400057D02*
X62809523Y-130495295D01*
X62809523Y-130495295D02*
X62809523Y-130590533D01*
X62809523Y-130590533D02*
X62761904Y-130733390D01*
X62761904Y-130733390D02*
X62190476Y-131304819D01*
X62190476Y-131304819D02*
X62809523Y-131304819D01*
D11*
X116193855Y-113133332D02*
X115812902Y-113399999D01*
X116193855Y-113590475D02*
X115393855Y-113590475D01*
X115393855Y-113590475D02*
X115393855Y-113285713D01*
X115393855Y-113285713D02*
X115431950Y-113209523D01*
X115431950Y-113209523D02*
X115470045Y-113171428D01*
X115470045Y-113171428D02*
X115546236Y-113133332D01*
X115546236Y-113133332D02*
X115660521Y-113133332D01*
X115660521Y-113133332D02*
X115736712Y-113171428D01*
X115736712Y-113171428D02*
X115774807Y-113209523D01*
X115774807Y-113209523D02*
X115812902Y-113285713D01*
X115812902Y-113285713D02*
X115812902Y-113590475D01*
X116193855Y-112752380D02*
X116193855Y-112599999D01*
X116193855Y-112599999D02*
X116155760Y-112523809D01*
X116155760Y-112523809D02*
X116117664Y-112485713D01*
X116117664Y-112485713D02*
X116003379Y-112409523D01*
X116003379Y-112409523D02*
X115850998Y-112371428D01*
X115850998Y-112371428D02*
X115546236Y-112371428D01*
X115546236Y-112371428D02*
X115470045Y-112409523D01*
X115470045Y-112409523D02*
X115431950Y-112447618D01*
X115431950Y-112447618D02*
X115393855Y-112523809D01*
X115393855Y-112523809D02*
X115393855Y-112676190D01*
X115393855Y-112676190D02*
X115431950Y-112752380D01*
X115431950Y-112752380D02*
X115470045Y-112790475D01*
X115470045Y-112790475D02*
X115546236Y-112828571D01*
X115546236Y-112828571D02*
X115736712Y-112828571D01*
X115736712Y-112828571D02*
X115812902Y-112790475D01*
X115812902Y-112790475D02*
X115850998Y-112752380D01*
X115850998Y-112752380D02*
X115889093Y-112676190D01*
X115889093Y-112676190D02*
X115889093Y-112523809D01*
X115889093Y-112523809D02*
X115850998Y-112447618D01*
X115850998Y-112447618D02*
X115812902Y-112409523D01*
X115812902Y-112409523D02*
X115736712Y-112371428D01*
X113193855Y-113133332D02*
X112812902Y-113399999D01*
X113193855Y-113590475D02*
X112393855Y-113590475D01*
X112393855Y-113590475D02*
X112393855Y-113285713D01*
X112393855Y-113285713D02*
X112431950Y-113209523D01*
X112431950Y-113209523D02*
X112470045Y-113171428D01*
X112470045Y-113171428D02*
X112546236Y-113133332D01*
X112546236Y-113133332D02*
X112660521Y-113133332D01*
X112660521Y-113133332D02*
X112736712Y-113171428D01*
X112736712Y-113171428D02*
X112774807Y-113209523D01*
X112774807Y-113209523D02*
X112812902Y-113285713D01*
X112812902Y-113285713D02*
X112812902Y-113590475D01*
X112736712Y-112676190D02*
X112698617Y-112752380D01*
X112698617Y-112752380D02*
X112660521Y-112790475D01*
X112660521Y-112790475D02*
X112584331Y-112828571D01*
X112584331Y-112828571D02*
X112546236Y-112828571D01*
X112546236Y-112828571D02*
X112470045Y-112790475D01*
X112470045Y-112790475D02*
X112431950Y-112752380D01*
X112431950Y-112752380D02*
X112393855Y-112676190D01*
X112393855Y-112676190D02*
X112393855Y-112523809D01*
X112393855Y-112523809D02*
X112431950Y-112447618D01*
X112431950Y-112447618D02*
X112470045Y-112409523D01*
X112470045Y-112409523D02*
X112546236Y-112371428D01*
X112546236Y-112371428D02*
X112584331Y-112371428D01*
X112584331Y-112371428D02*
X112660521Y-112409523D01*
X112660521Y-112409523D02*
X112698617Y-112447618D01*
X112698617Y-112447618D02*
X112736712Y-112523809D01*
X112736712Y-112523809D02*
X112736712Y-112676190D01*
X112736712Y-112676190D02*
X112774807Y-112752380D01*
X112774807Y-112752380D02*
X112812902Y-112790475D01*
X112812902Y-112790475D02*
X112889093Y-112828571D01*
X112889093Y-112828571D02*
X113041474Y-112828571D01*
X113041474Y-112828571D02*
X113117664Y-112790475D01*
X113117664Y-112790475D02*
X113155760Y-112752380D01*
X113155760Y-112752380D02*
X113193855Y-112676190D01*
X113193855Y-112676190D02*
X113193855Y-112523809D01*
X113193855Y-112523809D02*
X113155760Y-112447618D01*
X113155760Y-112447618D02*
X113117664Y-112409523D01*
X113117664Y-112409523D02*
X113041474Y-112371428D01*
X113041474Y-112371428D02*
X112889093Y-112371428D01*
X112889093Y-112371428D02*
X112812902Y-112409523D01*
X112812902Y-112409523D02*
X112774807Y-112447618D01*
X112774807Y-112447618D02*
X112736712Y-112523809D01*
X121193855Y-82133332D02*
X120812902Y-82399999D01*
X121193855Y-82590475D02*
X120393855Y-82590475D01*
X120393855Y-82590475D02*
X120393855Y-82285713D01*
X120393855Y-82285713D02*
X120431950Y-82209523D01*
X120431950Y-82209523D02*
X120470045Y-82171428D01*
X120470045Y-82171428D02*
X120546236Y-82133332D01*
X120546236Y-82133332D02*
X120660521Y-82133332D01*
X120660521Y-82133332D02*
X120736712Y-82171428D01*
X120736712Y-82171428D02*
X120774807Y-82209523D01*
X120774807Y-82209523D02*
X120812902Y-82285713D01*
X120812902Y-82285713D02*
X120812902Y-82590475D01*
X120393855Y-81866666D02*
X120393855Y-81333332D01*
X120393855Y-81333332D02*
X121193855Y-81676190D01*
D10*
X73654819Y-106333333D02*
X74369104Y-106333333D01*
X74369104Y-106333333D02*
X74511961Y-106380952D01*
X74511961Y-106380952D02*
X74607200Y-106476190D01*
X74607200Y-106476190D02*
X74654819Y-106619047D01*
X74654819Y-106619047D02*
X74654819Y-106714285D01*
X73750057Y-105904761D02*
X73702438Y-105857142D01*
X73702438Y-105857142D02*
X73654819Y-105761904D01*
X73654819Y-105761904D02*
X73654819Y-105523809D01*
X73654819Y-105523809D02*
X73702438Y-105428571D01*
X73702438Y-105428571D02*
X73750057Y-105380952D01*
X73750057Y-105380952D02*
X73845295Y-105333333D01*
X73845295Y-105333333D02*
X73940533Y-105333333D01*
X73940533Y-105333333D02*
X74083390Y-105380952D01*
X74083390Y-105380952D02*
X74654819Y-105952380D01*
X74654819Y-105952380D02*
X74654819Y-105333333D01*
D11*
X107193855Y-107514285D02*
X106812902Y-107780952D01*
X107193855Y-107971428D02*
X106393855Y-107971428D01*
X106393855Y-107971428D02*
X106393855Y-107666666D01*
X106393855Y-107666666D02*
X106431950Y-107590476D01*
X106431950Y-107590476D02*
X106470045Y-107552381D01*
X106470045Y-107552381D02*
X106546236Y-107514285D01*
X106546236Y-107514285D02*
X106660521Y-107514285D01*
X106660521Y-107514285D02*
X106736712Y-107552381D01*
X106736712Y-107552381D02*
X106774807Y-107590476D01*
X106774807Y-107590476D02*
X106812902Y-107666666D01*
X106812902Y-107666666D02*
X106812902Y-107971428D01*
X107193855Y-106752381D02*
X107193855Y-107209524D01*
X107193855Y-106980952D02*
X106393855Y-106980952D01*
X106393855Y-106980952D02*
X106508140Y-107057143D01*
X106508140Y-107057143D02*
X106584331Y-107133333D01*
X106584331Y-107133333D02*
X106622426Y-107209524D01*
X106393855Y-106485714D02*
X106393855Y-105990476D01*
X106393855Y-105990476D02*
X106698617Y-106257142D01*
X106698617Y-106257142D02*
X106698617Y-106142857D01*
X106698617Y-106142857D02*
X106736712Y-106066666D01*
X106736712Y-106066666D02*
X106774807Y-106028571D01*
X106774807Y-106028571D02*
X106850998Y-105990476D01*
X106850998Y-105990476D02*
X107041474Y-105990476D01*
X107041474Y-105990476D02*
X107117664Y-106028571D01*
X107117664Y-106028571D02*
X107155760Y-106066666D01*
X107155760Y-106066666D02*
X107193855Y-106142857D01*
X107193855Y-106142857D02*
X107193855Y-106371428D01*
X107193855Y-106371428D02*
X107155760Y-106447619D01*
X107155760Y-106447619D02*
X107117664Y-106485714D01*
X109193855Y-107514285D02*
X108812902Y-107780952D01*
X109193855Y-107971428D02*
X108393855Y-107971428D01*
X108393855Y-107971428D02*
X108393855Y-107666666D01*
X108393855Y-107666666D02*
X108431950Y-107590476D01*
X108431950Y-107590476D02*
X108470045Y-107552381D01*
X108470045Y-107552381D02*
X108546236Y-107514285D01*
X108546236Y-107514285D02*
X108660521Y-107514285D01*
X108660521Y-107514285D02*
X108736712Y-107552381D01*
X108736712Y-107552381D02*
X108774807Y-107590476D01*
X108774807Y-107590476D02*
X108812902Y-107666666D01*
X108812902Y-107666666D02*
X108812902Y-107971428D01*
X109193855Y-106752381D02*
X109193855Y-107209524D01*
X109193855Y-106980952D02*
X108393855Y-106980952D01*
X108393855Y-106980952D02*
X108508140Y-107057143D01*
X108508140Y-107057143D02*
X108584331Y-107133333D01*
X108584331Y-107133333D02*
X108622426Y-107209524D01*
X108660521Y-106066666D02*
X109193855Y-106066666D01*
X108355760Y-106257142D02*
X108927188Y-106447619D01*
X108927188Y-106447619D02*
X108927188Y-105952380D01*
D10*
X59238095Y-73304819D02*
X59238095Y-72304819D01*
X59238095Y-72781009D02*
X59809523Y-72781009D01*
X59809523Y-73304819D02*
X59809523Y-72304819D01*
X60809523Y-73304819D02*
X60238095Y-73304819D01*
X60523809Y-73304819D02*
X60523809Y-72304819D01*
X60523809Y-72304819D02*
X60428571Y-72447676D01*
X60428571Y-72447676D02*
X60333333Y-72542914D01*
X60333333Y-72542914D02*
X60238095Y-72590533D01*
D11*
X124193855Y-82514285D02*
X123812902Y-82780952D01*
X124193855Y-82971428D02*
X123393855Y-82971428D01*
X123393855Y-82971428D02*
X123393855Y-82666666D01*
X123393855Y-82666666D02*
X123431950Y-82590476D01*
X123431950Y-82590476D02*
X123470045Y-82552381D01*
X123470045Y-82552381D02*
X123546236Y-82514285D01*
X123546236Y-82514285D02*
X123660521Y-82514285D01*
X123660521Y-82514285D02*
X123736712Y-82552381D01*
X123736712Y-82552381D02*
X123774807Y-82590476D01*
X123774807Y-82590476D02*
X123812902Y-82666666D01*
X123812902Y-82666666D02*
X123812902Y-82971428D01*
X124193855Y-81752381D02*
X124193855Y-82209524D01*
X124193855Y-81980952D02*
X123393855Y-81980952D01*
X123393855Y-81980952D02*
X123508140Y-82057143D01*
X123508140Y-82057143D02*
X123584331Y-82133333D01*
X123584331Y-82133333D02*
X123622426Y-82209524D01*
X123393855Y-81257142D02*
X123393855Y-81180952D01*
X123393855Y-81180952D02*
X123431950Y-81104761D01*
X123431950Y-81104761D02*
X123470045Y-81066666D01*
X123470045Y-81066666D02*
X123546236Y-81028571D01*
X123546236Y-81028571D02*
X123698617Y-80990476D01*
X123698617Y-80990476D02*
X123889093Y-80990476D01*
X123889093Y-80990476D02*
X124041474Y-81028571D01*
X124041474Y-81028571D02*
X124117664Y-81066666D01*
X124117664Y-81066666D02*
X124155760Y-81104761D01*
X124155760Y-81104761D02*
X124193855Y-81180952D01*
X124193855Y-81180952D02*
X124193855Y-81257142D01*
X124193855Y-81257142D02*
X124155760Y-81333333D01*
X124155760Y-81333333D02*
X124117664Y-81371428D01*
X124117664Y-81371428D02*
X124041474Y-81409523D01*
X124041474Y-81409523D02*
X123889093Y-81447619D01*
X123889093Y-81447619D02*
X123698617Y-81447619D01*
X123698617Y-81447619D02*
X123546236Y-81409523D01*
X123546236Y-81409523D02*
X123470045Y-81371428D01*
X123470045Y-81371428D02*
X123431950Y-81333333D01*
X123431950Y-81333333D02*
X123393855Y-81257142D01*
X110127664Y-128133332D02*
X110165760Y-128171428D01*
X110165760Y-128171428D02*
X110203855Y-128285713D01*
X110203855Y-128285713D02*
X110203855Y-128361904D01*
X110203855Y-128361904D02*
X110165760Y-128476190D01*
X110165760Y-128476190D02*
X110089569Y-128552380D01*
X110089569Y-128552380D02*
X110013379Y-128590475D01*
X110013379Y-128590475D02*
X109860998Y-128628571D01*
X109860998Y-128628571D02*
X109746712Y-128628571D01*
X109746712Y-128628571D02*
X109594331Y-128590475D01*
X109594331Y-128590475D02*
X109518140Y-128552380D01*
X109518140Y-128552380D02*
X109441950Y-128476190D01*
X109441950Y-128476190D02*
X109403855Y-128361904D01*
X109403855Y-128361904D02*
X109403855Y-128285713D01*
X109403855Y-128285713D02*
X109441950Y-128171428D01*
X109441950Y-128171428D02*
X109480045Y-128133332D01*
X109480045Y-127828571D02*
X109441950Y-127790475D01*
X109441950Y-127790475D02*
X109403855Y-127714285D01*
X109403855Y-127714285D02*
X109403855Y-127523809D01*
X109403855Y-127523809D02*
X109441950Y-127447618D01*
X109441950Y-127447618D02*
X109480045Y-127409523D01*
X109480045Y-127409523D02*
X109556236Y-127371428D01*
X109556236Y-127371428D02*
X109632426Y-127371428D01*
X109632426Y-127371428D02*
X109746712Y-127409523D01*
X109746712Y-127409523D02*
X110203855Y-127866666D01*
X110203855Y-127866666D02*
X110203855Y-127371428D01*
D10*
X56357200Y-95333332D02*
X56404819Y-95190475D01*
X56404819Y-95190475D02*
X56404819Y-94952380D01*
X56404819Y-94952380D02*
X56357200Y-94857142D01*
X56357200Y-94857142D02*
X56309580Y-94809523D01*
X56309580Y-94809523D02*
X56214342Y-94761904D01*
X56214342Y-94761904D02*
X56119104Y-94761904D01*
X56119104Y-94761904D02*
X56023866Y-94809523D01*
X56023866Y-94809523D02*
X55976247Y-94857142D01*
X55976247Y-94857142D02*
X55928628Y-94952380D01*
X55928628Y-94952380D02*
X55881009Y-95142856D01*
X55881009Y-95142856D02*
X55833390Y-95238094D01*
X55833390Y-95238094D02*
X55785771Y-95285713D01*
X55785771Y-95285713D02*
X55690533Y-95333332D01*
X55690533Y-95333332D02*
X55595295Y-95333332D01*
X55595295Y-95333332D02*
X55500057Y-95285713D01*
X55500057Y-95285713D02*
X55452438Y-95238094D01*
X55452438Y-95238094D02*
X55404819Y-95142856D01*
X55404819Y-95142856D02*
X55404819Y-94904761D01*
X55404819Y-94904761D02*
X55452438Y-94761904D01*
X55404819Y-94428570D02*
X56404819Y-94190475D01*
X56404819Y-94190475D02*
X55690533Y-93999999D01*
X55690533Y-93999999D02*
X56404819Y-93809523D01*
X56404819Y-93809523D02*
X55404819Y-93571428D01*
X56404819Y-93142856D02*
X56404819Y-92952380D01*
X56404819Y-92952380D02*
X56357200Y-92857142D01*
X56357200Y-92857142D02*
X56309580Y-92809523D01*
X56309580Y-92809523D02*
X56166723Y-92714285D01*
X56166723Y-92714285D02*
X55976247Y-92666666D01*
X55976247Y-92666666D02*
X55595295Y-92666666D01*
X55595295Y-92666666D02*
X55500057Y-92714285D01*
X55500057Y-92714285D02*
X55452438Y-92761904D01*
X55452438Y-92761904D02*
X55404819Y-92857142D01*
X55404819Y-92857142D02*
X55404819Y-93047618D01*
X55404819Y-93047618D02*
X55452438Y-93142856D01*
X55452438Y-93142856D02*
X55500057Y-93190475D01*
X55500057Y-93190475D02*
X55595295Y-93238094D01*
X55595295Y-93238094D02*
X55833390Y-93238094D01*
X55833390Y-93238094D02*
X55928628Y-93190475D01*
X55928628Y-93190475D02*
X55976247Y-93142856D01*
X55976247Y-93142856D02*
X56023866Y-93047618D01*
X56023866Y-93047618D02*
X56023866Y-92857142D01*
X56023866Y-92857142D02*
X55976247Y-92761904D01*
X55976247Y-92761904D02*
X55928628Y-92714285D01*
X55928628Y-92714285D02*
X55833390Y-92666666D01*
X64666667Y-116357200D02*
X64809524Y-116404819D01*
X64809524Y-116404819D02*
X65047619Y-116404819D01*
X65047619Y-116404819D02*
X65142857Y-116357200D01*
X65142857Y-116357200D02*
X65190476Y-116309580D01*
X65190476Y-116309580D02*
X65238095Y-116214342D01*
X65238095Y-116214342D02*
X65238095Y-116119104D01*
X65238095Y-116119104D02*
X65190476Y-116023866D01*
X65190476Y-116023866D02*
X65142857Y-115976247D01*
X65142857Y-115976247D02*
X65047619Y-115928628D01*
X65047619Y-115928628D02*
X64857143Y-115881009D01*
X64857143Y-115881009D02*
X64761905Y-115833390D01*
X64761905Y-115833390D02*
X64714286Y-115785771D01*
X64714286Y-115785771D02*
X64666667Y-115690533D01*
X64666667Y-115690533D02*
X64666667Y-115595295D01*
X64666667Y-115595295D02*
X64714286Y-115500057D01*
X64714286Y-115500057D02*
X64761905Y-115452438D01*
X64761905Y-115452438D02*
X64857143Y-115404819D01*
X64857143Y-115404819D02*
X65095238Y-115404819D01*
X65095238Y-115404819D02*
X65238095Y-115452438D01*
X65571429Y-115404819D02*
X65809524Y-116404819D01*
X65809524Y-116404819D02*
X66000000Y-115690533D01*
X66000000Y-115690533D02*
X66190476Y-116404819D01*
X66190476Y-116404819D02*
X66428572Y-115404819D01*
X67238095Y-115404819D02*
X67047619Y-115404819D01*
X67047619Y-115404819D02*
X66952381Y-115452438D01*
X66952381Y-115452438D02*
X66904762Y-115500057D01*
X66904762Y-115500057D02*
X66809524Y-115642914D01*
X66809524Y-115642914D02*
X66761905Y-115833390D01*
X66761905Y-115833390D02*
X66761905Y-116214342D01*
X66761905Y-116214342D02*
X66809524Y-116309580D01*
X66809524Y-116309580D02*
X66857143Y-116357200D01*
X66857143Y-116357200D02*
X66952381Y-116404819D01*
X66952381Y-116404819D02*
X67142857Y-116404819D01*
X67142857Y-116404819D02*
X67238095Y-116357200D01*
X67238095Y-116357200D02*
X67285714Y-116309580D01*
X67285714Y-116309580D02*
X67333333Y-116214342D01*
X67333333Y-116214342D02*
X67333333Y-115976247D01*
X67333333Y-115976247D02*
X67285714Y-115881009D01*
X67285714Y-115881009D02*
X67238095Y-115833390D01*
X67238095Y-115833390D02*
X67142857Y-115785771D01*
X67142857Y-115785771D02*
X66952381Y-115785771D01*
X66952381Y-115785771D02*
X66857143Y-115833390D01*
X66857143Y-115833390D02*
X66809524Y-115881009D01*
X66809524Y-115881009D02*
X66761905Y-115976247D01*
X111045180Y-116338095D02*
X110235657Y-116338095D01*
X110235657Y-116338095D02*
X110140419Y-116385714D01*
X110140419Y-116385714D02*
X110092800Y-116433333D01*
X110092800Y-116433333D02*
X110045180Y-116528571D01*
X110045180Y-116528571D02*
X110045180Y-116719047D01*
X110045180Y-116719047D02*
X110092800Y-116814285D01*
X110092800Y-116814285D02*
X110140419Y-116861904D01*
X110140419Y-116861904D02*
X110235657Y-116909523D01*
X110235657Y-116909523D02*
X111045180Y-116909523D01*
X110045180Y-117909523D02*
X110045180Y-117338095D01*
X110045180Y-117623809D02*
X111045180Y-117623809D01*
X111045180Y-117623809D02*
X110902323Y-117528571D01*
X110902323Y-117528571D02*
X110807085Y-117433333D01*
X110807085Y-117433333D02*
X110759466Y-117338095D01*
X134666667Y-121357200D02*
X134809524Y-121404819D01*
X134809524Y-121404819D02*
X135047619Y-121404819D01*
X135047619Y-121404819D02*
X135142857Y-121357200D01*
X135142857Y-121357200D02*
X135190476Y-121309580D01*
X135190476Y-121309580D02*
X135238095Y-121214342D01*
X135238095Y-121214342D02*
X135238095Y-121119104D01*
X135238095Y-121119104D02*
X135190476Y-121023866D01*
X135190476Y-121023866D02*
X135142857Y-120976247D01*
X135142857Y-120976247D02*
X135047619Y-120928628D01*
X135047619Y-120928628D02*
X134857143Y-120881009D01*
X134857143Y-120881009D02*
X134761905Y-120833390D01*
X134761905Y-120833390D02*
X134714286Y-120785771D01*
X134714286Y-120785771D02*
X134666667Y-120690533D01*
X134666667Y-120690533D02*
X134666667Y-120595295D01*
X134666667Y-120595295D02*
X134714286Y-120500057D01*
X134714286Y-120500057D02*
X134761905Y-120452438D01*
X134761905Y-120452438D02*
X134857143Y-120404819D01*
X134857143Y-120404819D02*
X135095238Y-120404819D01*
X135095238Y-120404819D02*
X135238095Y-120452438D01*
X135571429Y-120404819D02*
X135809524Y-121404819D01*
X135809524Y-121404819D02*
X136000000Y-120690533D01*
X136000000Y-120690533D02*
X136190476Y-121404819D01*
X136190476Y-121404819D02*
X136428572Y-120404819D01*
X136952381Y-120833390D02*
X136857143Y-120785771D01*
X136857143Y-120785771D02*
X136809524Y-120738152D01*
X136809524Y-120738152D02*
X136761905Y-120642914D01*
X136761905Y-120642914D02*
X136761905Y-120595295D01*
X136761905Y-120595295D02*
X136809524Y-120500057D01*
X136809524Y-120500057D02*
X136857143Y-120452438D01*
X136857143Y-120452438D02*
X136952381Y-120404819D01*
X136952381Y-120404819D02*
X137142857Y-120404819D01*
X137142857Y-120404819D02*
X137238095Y-120452438D01*
X137238095Y-120452438D02*
X137285714Y-120500057D01*
X137285714Y-120500057D02*
X137333333Y-120595295D01*
X137333333Y-120595295D02*
X137333333Y-120642914D01*
X137333333Y-120642914D02*
X137285714Y-120738152D01*
X137285714Y-120738152D02*
X137238095Y-120785771D01*
X137238095Y-120785771D02*
X137142857Y-120833390D01*
X137142857Y-120833390D02*
X136952381Y-120833390D01*
X136952381Y-120833390D02*
X136857143Y-120881009D01*
X136857143Y-120881009D02*
X136809524Y-120928628D01*
X136809524Y-120928628D02*
X136761905Y-121023866D01*
X136761905Y-121023866D02*
X136761905Y-121214342D01*
X136761905Y-121214342D02*
X136809524Y-121309580D01*
X136809524Y-121309580D02*
X136857143Y-121357200D01*
X136857143Y-121357200D02*
X136952381Y-121404819D01*
X136952381Y-121404819D02*
X137142857Y-121404819D01*
X137142857Y-121404819D02*
X137238095Y-121357200D01*
X137238095Y-121357200D02*
X137285714Y-121309580D01*
X137285714Y-121309580D02*
X137333333Y-121214342D01*
X137333333Y-121214342D02*
X137333333Y-121023866D01*
X137333333Y-121023866D02*
X137285714Y-120928628D01*
X137285714Y-120928628D02*
X137238095Y-120881009D01*
X137238095Y-120881009D02*
X137142857Y-120833390D01*
D11*
X118193855Y-90514285D02*
X117812902Y-90780952D01*
X118193855Y-90971428D02*
X117393855Y-90971428D01*
X117393855Y-90971428D02*
X117393855Y-90666666D01*
X117393855Y-90666666D02*
X117431950Y-90590476D01*
X117431950Y-90590476D02*
X117470045Y-90552381D01*
X117470045Y-90552381D02*
X117546236Y-90514285D01*
X117546236Y-90514285D02*
X117660521Y-90514285D01*
X117660521Y-90514285D02*
X117736712Y-90552381D01*
X117736712Y-90552381D02*
X117774807Y-90590476D01*
X117774807Y-90590476D02*
X117812902Y-90666666D01*
X117812902Y-90666666D02*
X117812902Y-90971428D01*
X118193855Y-89752381D02*
X118193855Y-90209524D01*
X118193855Y-89980952D02*
X117393855Y-89980952D01*
X117393855Y-89980952D02*
X117508140Y-90057143D01*
X117508140Y-90057143D02*
X117584331Y-90133333D01*
X117584331Y-90133333D02*
X117622426Y-90209524D01*
X118193855Y-88990476D02*
X118193855Y-89447619D01*
X118193855Y-89219047D02*
X117393855Y-89219047D01*
X117393855Y-89219047D02*
X117508140Y-89295238D01*
X117508140Y-89295238D02*
X117584331Y-89371428D01*
X117584331Y-89371428D02*
X117622426Y-89447619D01*
X109607664Y-132514285D02*
X109645760Y-132552381D01*
X109645760Y-132552381D02*
X109683855Y-132666666D01*
X109683855Y-132666666D02*
X109683855Y-132742857D01*
X109683855Y-132742857D02*
X109645760Y-132857143D01*
X109645760Y-132857143D02*
X109569569Y-132933333D01*
X109569569Y-132933333D02*
X109493379Y-132971428D01*
X109493379Y-132971428D02*
X109340998Y-133009524D01*
X109340998Y-133009524D02*
X109226712Y-133009524D01*
X109226712Y-133009524D02*
X109074331Y-132971428D01*
X109074331Y-132971428D02*
X108998140Y-132933333D01*
X108998140Y-132933333D02*
X108921950Y-132857143D01*
X108921950Y-132857143D02*
X108883855Y-132742857D01*
X108883855Y-132742857D02*
X108883855Y-132666666D01*
X108883855Y-132666666D02*
X108921950Y-132552381D01*
X108921950Y-132552381D02*
X108960045Y-132514285D01*
X109683855Y-131752381D02*
X109683855Y-132209524D01*
X109683855Y-131980952D02*
X108883855Y-131980952D01*
X108883855Y-131980952D02*
X108998140Y-132057143D01*
X108998140Y-132057143D02*
X109074331Y-132133333D01*
X109074331Y-132133333D02*
X109112426Y-132209524D01*
X108883855Y-131028571D02*
X108883855Y-131409523D01*
X108883855Y-131409523D02*
X109264807Y-131447619D01*
X109264807Y-131447619D02*
X109226712Y-131409523D01*
X109226712Y-131409523D02*
X109188617Y-131333333D01*
X109188617Y-131333333D02*
X109188617Y-131142857D01*
X109188617Y-131142857D02*
X109226712Y-131066666D01*
X109226712Y-131066666D02*
X109264807Y-131028571D01*
X109264807Y-131028571D02*
X109340998Y-130990476D01*
X109340998Y-130990476D02*
X109531474Y-130990476D01*
X109531474Y-130990476D02*
X109607664Y-131028571D01*
X109607664Y-131028571D02*
X109645760Y-131066666D01*
X109645760Y-131066666D02*
X109683855Y-131142857D01*
X109683855Y-131142857D02*
X109683855Y-131333333D01*
X109683855Y-131333333D02*
X109645760Y-131409523D01*
X109645760Y-131409523D02*
X109607664Y-131447619D01*
X111627664Y-107514285D02*
X111665760Y-107552381D01*
X111665760Y-107552381D02*
X111703855Y-107666666D01*
X111703855Y-107666666D02*
X111703855Y-107742857D01*
X111703855Y-107742857D02*
X111665760Y-107857143D01*
X111665760Y-107857143D02*
X111589569Y-107933333D01*
X111589569Y-107933333D02*
X111513379Y-107971428D01*
X111513379Y-107971428D02*
X111360998Y-108009524D01*
X111360998Y-108009524D02*
X111246712Y-108009524D01*
X111246712Y-108009524D02*
X111094331Y-107971428D01*
X111094331Y-107971428D02*
X111018140Y-107933333D01*
X111018140Y-107933333D02*
X110941950Y-107857143D01*
X110941950Y-107857143D02*
X110903855Y-107742857D01*
X110903855Y-107742857D02*
X110903855Y-107666666D01*
X110903855Y-107666666D02*
X110941950Y-107552381D01*
X110941950Y-107552381D02*
X110980045Y-107514285D01*
X111703855Y-106752381D02*
X111703855Y-107209524D01*
X111703855Y-106980952D02*
X110903855Y-106980952D01*
X110903855Y-106980952D02*
X111018140Y-107057143D01*
X111018140Y-107057143D02*
X111094331Y-107133333D01*
X111094331Y-107133333D02*
X111132426Y-107209524D01*
X111703855Y-105990476D02*
X111703855Y-106447619D01*
X111703855Y-106219047D02*
X110903855Y-106219047D01*
X110903855Y-106219047D02*
X111018140Y-106295238D01*
X111018140Y-106295238D02*
X111094331Y-106371428D01*
X111094331Y-106371428D02*
X111132426Y-106447619D01*
D10*
X93238095Y-68054819D02*
X93238095Y-68864342D01*
X93238095Y-68864342D02*
X93285714Y-68959580D01*
X93285714Y-68959580D02*
X93333333Y-69007200D01*
X93333333Y-69007200D02*
X93428571Y-69054819D01*
X93428571Y-69054819D02*
X93619047Y-69054819D01*
X93619047Y-69054819D02*
X93714285Y-69007200D01*
X93714285Y-69007200D02*
X93761904Y-68959580D01*
X93761904Y-68959580D02*
X93809523Y-68864342D01*
X93809523Y-68864342D02*
X93809523Y-68054819D01*
X94238095Y-68150057D02*
X94285714Y-68102438D01*
X94285714Y-68102438D02*
X94380952Y-68054819D01*
X94380952Y-68054819D02*
X94619047Y-68054819D01*
X94619047Y-68054819D02*
X94714285Y-68102438D01*
X94714285Y-68102438D02*
X94761904Y-68150057D01*
X94761904Y-68150057D02*
X94809523Y-68245295D01*
X94809523Y-68245295D02*
X94809523Y-68340533D01*
X94809523Y-68340533D02*
X94761904Y-68483390D01*
X94761904Y-68483390D02*
X94190476Y-69054819D01*
X94190476Y-69054819D02*
X94809523Y-69054819D01*
D11*
X109857664Y-124133332D02*
X109895760Y-124171428D01*
X109895760Y-124171428D02*
X109933855Y-124285713D01*
X109933855Y-124285713D02*
X109933855Y-124361904D01*
X109933855Y-124361904D02*
X109895760Y-124476190D01*
X109895760Y-124476190D02*
X109819569Y-124552380D01*
X109819569Y-124552380D02*
X109743379Y-124590475D01*
X109743379Y-124590475D02*
X109590998Y-124628571D01*
X109590998Y-124628571D02*
X109476712Y-124628571D01*
X109476712Y-124628571D02*
X109324331Y-124590475D01*
X109324331Y-124590475D02*
X109248140Y-124552380D01*
X109248140Y-124552380D02*
X109171950Y-124476190D01*
X109171950Y-124476190D02*
X109133855Y-124361904D01*
X109133855Y-124361904D02*
X109133855Y-124285713D01*
X109133855Y-124285713D02*
X109171950Y-124171428D01*
X109171950Y-124171428D02*
X109210045Y-124133332D01*
X109933855Y-123371428D02*
X109933855Y-123828571D01*
X109933855Y-123599999D02*
X109133855Y-123599999D01*
X109133855Y-123599999D02*
X109248140Y-123676190D01*
X109248140Y-123676190D02*
X109324331Y-123752380D01*
X109324331Y-123752380D02*
X109362426Y-123828571D01*
D10*
X141238095Y-85304819D02*
X141238095Y-84304819D01*
X141238095Y-84781009D02*
X141809523Y-84781009D01*
X141809523Y-85304819D02*
X141809523Y-84304819D01*
X142190476Y-84304819D02*
X142809523Y-84304819D01*
X142809523Y-84304819D02*
X142476190Y-84685771D01*
X142476190Y-84685771D02*
X142619047Y-84685771D01*
X142619047Y-84685771D02*
X142714285Y-84733390D01*
X142714285Y-84733390D02*
X142761904Y-84781009D01*
X142761904Y-84781009D02*
X142809523Y-84876247D01*
X142809523Y-84876247D02*
X142809523Y-85114342D01*
X142809523Y-85114342D02*
X142761904Y-85209580D01*
X142761904Y-85209580D02*
X142714285Y-85257200D01*
X142714285Y-85257200D02*
X142619047Y-85304819D01*
X142619047Y-85304819D02*
X142333333Y-85304819D01*
X142333333Y-85304819D02*
X142238095Y-85257200D01*
X142238095Y-85257200D02*
X142190476Y-85209580D01*
D11*
X113627664Y-107514285D02*
X113665760Y-107552381D01*
X113665760Y-107552381D02*
X113703855Y-107666666D01*
X113703855Y-107666666D02*
X113703855Y-107742857D01*
X113703855Y-107742857D02*
X113665760Y-107857143D01*
X113665760Y-107857143D02*
X113589569Y-107933333D01*
X113589569Y-107933333D02*
X113513379Y-107971428D01*
X113513379Y-107971428D02*
X113360998Y-108009524D01*
X113360998Y-108009524D02*
X113246712Y-108009524D01*
X113246712Y-108009524D02*
X113094331Y-107971428D01*
X113094331Y-107971428D02*
X113018140Y-107933333D01*
X113018140Y-107933333D02*
X112941950Y-107857143D01*
X112941950Y-107857143D02*
X112903855Y-107742857D01*
X112903855Y-107742857D02*
X112903855Y-107666666D01*
X112903855Y-107666666D02*
X112941950Y-107552381D01*
X112941950Y-107552381D02*
X112980045Y-107514285D01*
X113703855Y-106752381D02*
X113703855Y-107209524D01*
X113703855Y-106980952D02*
X112903855Y-106980952D01*
X112903855Y-106980952D02*
X113018140Y-107057143D01*
X113018140Y-107057143D02*
X113094331Y-107133333D01*
X113094331Y-107133333D02*
X113132426Y-107209524D01*
X112980045Y-106447619D02*
X112941950Y-106409523D01*
X112941950Y-106409523D02*
X112903855Y-106333333D01*
X112903855Y-106333333D02*
X112903855Y-106142857D01*
X112903855Y-106142857D02*
X112941950Y-106066666D01*
X112941950Y-106066666D02*
X112980045Y-106028571D01*
X112980045Y-106028571D02*
X113056236Y-105990476D01*
X113056236Y-105990476D02*
X113132426Y-105990476D01*
X113132426Y-105990476D02*
X113246712Y-106028571D01*
X113246712Y-106028571D02*
X113703855Y-106485714D01*
X113703855Y-106485714D02*
X113703855Y-105990476D01*
D10*
X91238095Y-75554819D02*
X91238095Y-76364342D01*
X91238095Y-76364342D02*
X91285714Y-76459580D01*
X91285714Y-76459580D02*
X91333333Y-76507200D01*
X91333333Y-76507200D02*
X91428571Y-76554819D01*
X91428571Y-76554819D02*
X91619047Y-76554819D01*
X91619047Y-76554819D02*
X91714285Y-76507200D01*
X91714285Y-76507200D02*
X91761904Y-76459580D01*
X91761904Y-76459580D02*
X91809523Y-76364342D01*
X91809523Y-76364342D02*
X91809523Y-75554819D01*
X92761904Y-75554819D02*
X92285714Y-75554819D01*
X92285714Y-75554819D02*
X92238095Y-76031009D01*
X92238095Y-76031009D02*
X92285714Y-75983390D01*
X92285714Y-75983390D02*
X92380952Y-75935771D01*
X92380952Y-75935771D02*
X92619047Y-75935771D01*
X92619047Y-75935771D02*
X92714285Y-75983390D01*
X92714285Y-75983390D02*
X92761904Y-76031009D01*
X92761904Y-76031009D02*
X92809523Y-76126247D01*
X92809523Y-76126247D02*
X92809523Y-76364342D01*
X92809523Y-76364342D02*
X92761904Y-76459580D01*
X92761904Y-76459580D02*
X92714285Y-76507200D01*
X92714285Y-76507200D02*
X92619047Y-76554819D01*
X92619047Y-76554819D02*
X92380952Y-76554819D01*
X92380952Y-76554819D02*
X92285714Y-76507200D01*
X92285714Y-76507200D02*
X92238095Y-76459580D01*
X127238095Y-109304819D02*
X127238095Y-108304819D01*
X127238095Y-108781009D02*
X127809523Y-108781009D01*
X127809523Y-109304819D02*
X127809523Y-108304819D01*
X128714285Y-108638152D02*
X128714285Y-109304819D01*
X128476190Y-108257200D02*
X128238095Y-108971485D01*
X128238095Y-108971485D02*
X128857142Y-108971485D01*
D11*
X92193855Y-62133332D02*
X91812902Y-62399999D01*
X92193855Y-62590475D02*
X91393855Y-62590475D01*
X91393855Y-62590475D02*
X91393855Y-62285713D01*
X91393855Y-62285713D02*
X91431950Y-62209523D01*
X91431950Y-62209523D02*
X91470045Y-62171428D01*
X91470045Y-62171428D02*
X91546236Y-62133332D01*
X91546236Y-62133332D02*
X91660521Y-62133332D01*
X91660521Y-62133332D02*
X91736712Y-62171428D01*
X91736712Y-62171428D02*
X91774807Y-62209523D01*
X91774807Y-62209523D02*
X91812902Y-62285713D01*
X91812902Y-62285713D02*
X91812902Y-62590475D01*
X91393855Y-61866666D02*
X91393855Y-61371428D01*
X91393855Y-61371428D02*
X91698617Y-61638094D01*
X91698617Y-61638094D02*
X91698617Y-61523809D01*
X91698617Y-61523809D02*
X91736712Y-61447618D01*
X91736712Y-61447618D02*
X91774807Y-61409523D01*
X91774807Y-61409523D02*
X91850998Y-61371428D01*
X91850998Y-61371428D02*
X92041474Y-61371428D01*
X92041474Y-61371428D02*
X92117664Y-61409523D01*
X92117664Y-61409523D02*
X92155760Y-61447618D01*
X92155760Y-61447618D02*
X92193855Y-61523809D01*
X92193855Y-61523809D02*
X92193855Y-61752380D01*
X92193855Y-61752380D02*
X92155760Y-61828571D01*
X92155760Y-61828571D02*
X92117664Y-61866666D01*
D10*
X101666667Y-65357200D02*
X101809524Y-65404819D01*
X101809524Y-65404819D02*
X102047619Y-65404819D01*
X102047619Y-65404819D02*
X102142857Y-65357200D01*
X102142857Y-65357200D02*
X102190476Y-65309580D01*
X102190476Y-65309580D02*
X102238095Y-65214342D01*
X102238095Y-65214342D02*
X102238095Y-65119104D01*
X102238095Y-65119104D02*
X102190476Y-65023866D01*
X102190476Y-65023866D02*
X102142857Y-64976247D01*
X102142857Y-64976247D02*
X102047619Y-64928628D01*
X102047619Y-64928628D02*
X101857143Y-64881009D01*
X101857143Y-64881009D02*
X101761905Y-64833390D01*
X101761905Y-64833390D02*
X101714286Y-64785771D01*
X101714286Y-64785771D02*
X101666667Y-64690533D01*
X101666667Y-64690533D02*
X101666667Y-64595295D01*
X101666667Y-64595295D02*
X101714286Y-64500057D01*
X101714286Y-64500057D02*
X101761905Y-64452438D01*
X101761905Y-64452438D02*
X101857143Y-64404819D01*
X101857143Y-64404819D02*
X102095238Y-64404819D01*
X102095238Y-64404819D02*
X102238095Y-64452438D01*
X102571429Y-64404819D02*
X102809524Y-65404819D01*
X102809524Y-65404819D02*
X103000000Y-64690533D01*
X103000000Y-64690533D02*
X103190476Y-65404819D01*
X103190476Y-65404819D02*
X103428572Y-64404819D01*
X103761905Y-64500057D02*
X103809524Y-64452438D01*
X103809524Y-64452438D02*
X103904762Y-64404819D01*
X103904762Y-64404819D02*
X104142857Y-64404819D01*
X104142857Y-64404819D02*
X104238095Y-64452438D01*
X104238095Y-64452438D02*
X104285714Y-64500057D01*
X104285714Y-64500057D02*
X104333333Y-64595295D01*
X104333333Y-64595295D02*
X104333333Y-64690533D01*
X104333333Y-64690533D02*
X104285714Y-64833390D01*
X104285714Y-64833390D02*
X103714286Y-65404819D01*
X103714286Y-65404819D02*
X104333333Y-65404819D01*
X83261905Y-76954819D02*
X83261905Y-75954819D01*
X83261905Y-75954819D02*
X83500000Y-75954819D01*
X83500000Y-75954819D02*
X83642857Y-76002438D01*
X83642857Y-76002438D02*
X83738095Y-76097676D01*
X83738095Y-76097676D02*
X83785714Y-76192914D01*
X83785714Y-76192914D02*
X83833333Y-76383390D01*
X83833333Y-76383390D02*
X83833333Y-76526247D01*
X83833333Y-76526247D02*
X83785714Y-76716723D01*
X83785714Y-76716723D02*
X83738095Y-76811961D01*
X83738095Y-76811961D02*
X83642857Y-76907200D01*
X83642857Y-76907200D02*
X83500000Y-76954819D01*
X83500000Y-76954819D02*
X83261905Y-76954819D01*
X84214286Y-76050057D02*
X84261905Y-76002438D01*
X84261905Y-76002438D02*
X84357143Y-75954819D01*
X84357143Y-75954819D02*
X84595238Y-75954819D01*
X84595238Y-75954819D02*
X84690476Y-76002438D01*
X84690476Y-76002438D02*
X84738095Y-76050057D01*
X84738095Y-76050057D02*
X84785714Y-76145295D01*
X84785714Y-76145295D02*
X84785714Y-76240533D01*
X84785714Y-76240533D02*
X84738095Y-76383390D01*
X84738095Y-76383390D02*
X84166667Y-76954819D01*
X84166667Y-76954819D02*
X84785714Y-76954819D01*
X80228571Y-78762295D02*
X79771428Y-78762295D01*
X80000000Y-78762295D02*
X80000000Y-77962295D01*
X80000000Y-77962295D02*
X79923809Y-78076580D01*
X79923809Y-78076580D02*
X79847619Y-78152771D01*
X79847619Y-78152771D02*
X79771428Y-78190866D01*
X116666667Y-122357200D02*
X116809524Y-122404819D01*
X116809524Y-122404819D02*
X117047619Y-122404819D01*
X117047619Y-122404819D02*
X117142857Y-122357200D01*
X117142857Y-122357200D02*
X117190476Y-122309580D01*
X117190476Y-122309580D02*
X117238095Y-122214342D01*
X117238095Y-122214342D02*
X117238095Y-122119104D01*
X117238095Y-122119104D02*
X117190476Y-122023866D01*
X117190476Y-122023866D02*
X117142857Y-121976247D01*
X117142857Y-121976247D02*
X117047619Y-121928628D01*
X117047619Y-121928628D02*
X116857143Y-121881009D01*
X116857143Y-121881009D02*
X116761905Y-121833390D01*
X116761905Y-121833390D02*
X116714286Y-121785771D01*
X116714286Y-121785771D02*
X116666667Y-121690533D01*
X116666667Y-121690533D02*
X116666667Y-121595295D01*
X116666667Y-121595295D02*
X116714286Y-121500057D01*
X116714286Y-121500057D02*
X116761905Y-121452438D01*
X116761905Y-121452438D02*
X116857143Y-121404819D01*
X116857143Y-121404819D02*
X117095238Y-121404819D01*
X117095238Y-121404819D02*
X117238095Y-121452438D01*
X117571429Y-121404819D02*
X117809524Y-122404819D01*
X117809524Y-122404819D02*
X118000000Y-121690533D01*
X118000000Y-121690533D02*
X118190476Y-122404819D01*
X118190476Y-122404819D02*
X118428572Y-121404819D01*
X118714286Y-121404819D02*
X119380952Y-121404819D01*
X119380952Y-121404819D02*
X118952381Y-122404819D01*
X134666667Y-101357200D02*
X134809524Y-101404819D01*
X134809524Y-101404819D02*
X135047619Y-101404819D01*
X135047619Y-101404819D02*
X135142857Y-101357200D01*
X135142857Y-101357200D02*
X135190476Y-101309580D01*
X135190476Y-101309580D02*
X135238095Y-101214342D01*
X135238095Y-101214342D02*
X135238095Y-101119104D01*
X135238095Y-101119104D02*
X135190476Y-101023866D01*
X135190476Y-101023866D02*
X135142857Y-100976247D01*
X135142857Y-100976247D02*
X135047619Y-100928628D01*
X135047619Y-100928628D02*
X134857143Y-100881009D01*
X134857143Y-100881009D02*
X134761905Y-100833390D01*
X134761905Y-100833390D02*
X134714286Y-100785771D01*
X134714286Y-100785771D02*
X134666667Y-100690533D01*
X134666667Y-100690533D02*
X134666667Y-100595295D01*
X134666667Y-100595295D02*
X134714286Y-100500057D01*
X134714286Y-100500057D02*
X134761905Y-100452438D01*
X134761905Y-100452438D02*
X134857143Y-100404819D01*
X134857143Y-100404819D02*
X135095238Y-100404819D01*
X135095238Y-100404819D02*
X135238095Y-100452438D01*
X135571429Y-100404819D02*
X135809524Y-101404819D01*
X135809524Y-101404819D02*
X136000000Y-100690533D01*
X136000000Y-100690533D02*
X136190476Y-101404819D01*
X136190476Y-101404819D02*
X136428572Y-100404819D01*
X137285714Y-100404819D02*
X136809524Y-100404819D01*
X136809524Y-100404819D02*
X136761905Y-100881009D01*
X136761905Y-100881009D02*
X136809524Y-100833390D01*
X136809524Y-100833390D02*
X136904762Y-100785771D01*
X136904762Y-100785771D02*
X137142857Y-100785771D01*
X137142857Y-100785771D02*
X137238095Y-100833390D01*
X137238095Y-100833390D02*
X137285714Y-100881009D01*
X137285714Y-100881009D02*
X137333333Y-100976247D01*
X137333333Y-100976247D02*
X137333333Y-101214342D01*
X137333333Y-101214342D02*
X137285714Y-101309580D01*
X137285714Y-101309580D02*
X137238095Y-101357200D01*
X137238095Y-101357200D02*
X137142857Y-101404819D01*
X137142857Y-101404819D02*
X136904762Y-101404819D01*
X136904762Y-101404819D02*
X136809524Y-101357200D01*
X136809524Y-101357200D02*
X136761905Y-101309580D01*
D11*
X91627664Y-87514285D02*
X91665760Y-87552381D01*
X91665760Y-87552381D02*
X91703855Y-87666666D01*
X91703855Y-87666666D02*
X91703855Y-87742857D01*
X91703855Y-87742857D02*
X91665760Y-87857143D01*
X91665760Y-87857143D02*
X91589569Y-87933333D01*
X91589569Y-87933333D02*
X91513379Y-87971428D01*
X91513379Y-87971428D02*
X91360998Y-88009524D01*
X91360998Y-88009524D02*
X91246712Y-88009524D01*
X91246712Y-88009524D02*
X91094331Y-87971428D01*
X91094331Y-87971428D02*
X91018140Y-87933333D01*
X91018140Y-87933333D02*
X90941950Y-87857143D01*
X90941950Y-87857143D02*
X90903855Y-87742857D01*
X90903855Y-87742857D02*
X90903855Y-87666666D01*
X90903855Y-87666666D02*
X90941950Y-87552381D01*
X90941950Y-87552381D02*
X90980045Y-87514285D01*
X91703855Y-86752381D02*
X91703855Y-87209524D01*
X91703855Y-86980952D02*
X90903855Y-86980952D01*
X90903855Y-86980952D02*
X91018140Y-87057143D01*
X91018140Y-87057143D02*
X91094331Y-87133333D01*
X91094331Y-87133333D02*
X91132426Y-87209524D01*
X90903855Y-86485714D02*
X90903855Y-85990476D01*
X90903855Y-85990476D02*
X91208617Y-86257142D01*
X91208617Y-86257142D02*
X91208617Y-86142857D01*
X91208617Y-86142857D02*
X91246712Y-86066666D01*
X91246712Y-86066666D02*
X91284807Y-86028571D01*
X91284807Y-86028571D02*
X91360998Y-85990476D01*
X91360998Y-85990476D02*
X91551474Y-85990476D01*
X91551474Y-85990476D02*
X91627664Y-86028571D01*
X91627664Y-86028571D02*
X91665760Y-86066666D01*
X91665760Y-86066666D02*
X91703855Y-86142857D01*
X91703855Y-86142857D02*
X91703855Y-86371428D01*
X91703855Y-86371428D02*
X91665760Y-86447619D01*
X91665760Y-86447619D02*
X91627664Y-86485714D01*
X87193855Y-87514285D02*
X86812902Y-87780952D01*
X87193855Y-87971428D02*
X86393855Y-87971428D01*
X86393855Y-87971428D02*
X86393855Y-87666666D01*
X86393855Y-87666666D02*
X86431950Y-87590476D01*
X86431950Y-87590476D02*
X86470045Y-87552381D01*
X86470045Y-87552381D02*
X86546236Y-87514285D01*
X86546236Y-87514285D02*
X86660521Y-87514285D01*
X86660521Y-87514285D02*
X86736712Y-87552381D01*
X86736712Y-87552381D02*
X86774807Y-87590476D01*
X86774807Y-87590476D02*
X86812902Y-87666666D01*
X86812902Y-87666666D02*
X86812902Y-87971428D01*
X87193855Y-86752381D02*
X87193855Y-87209524D01*
X87193855Y-86980952D02*
X86393855Y-86980952D01*
X86393855Y-86980952D02*
X86508140Y-87057143D01*
X86508140Y-87057143D02*
X86584331Y-87133333D01*
X86584331Y-87133333D02*
X86622426Y-87209524D01*
X86393855Y-86028571D02*
X86393855Y-86409523D01*
X86393855Y-86409523D02*
X86774807Y-86447619D01*
X86774807Y-86447619D02*
X86736712Y-86409523D01*
X86736712Y-86409523D02*
X86698617Y-86333333D01*
X86698617Y-86333333D02*
X86698617Y-86142857D01*
X86698617Y-86142857D02*
X86736712Y-86066666D01*
X86736712Y-86066666D02*
X86774807Y-86028571D01*
X86774807Y-86028571D02*
X86850998Y-85990476D01*
X86850998Y-85990476D02*
X87041474Y-85990476D01*
X87041474Y-85990476D02*
X87117664Y-86028571D01*
X87117664Y-86028571D02*
X87155760Y-86066666D01*
X87155760Y-86066666D02*
X87193855Y-86142857D01*
X87193855Y-86142857D02*
X87193855Y-86333333D01*
X87193855Y-86333333D02*
X87155760Y-86409523D01*
X87155760Y-86409523D02*
X87117664Y-86447619D01*
X121193855Y-90514285D02*
X120812902Y-90780952D01*
X121193855Y-90971428D02*
X120393855Y-90971428D01*
X120393855Y-90971428D02*
X120393855Y-90666666D01*
X120393855Y-90666666D02*
X120431950Y-90590476D01*
X120431950Y-90590476D02*
X120470045Y-90552381D01*
X120470045Y-90552381D02*
X120546236Y-90514285D01*
X120546236Y-90514285D02*
X120660521Y-90514285D01*
X120660521Y-90514285D02*
X120736712Y-90552381D01*
X120736712Y-90552381D02*
X120774807Y-90590476D01*
X120774807Y-90590476D02*
X120812902Y-90666666D01*
X120812902Y-90666666D02*
X120812902Y-90971428D01*
X121193855Y-89752381D02*
X121193855Y-90209524D01*
X121193855Y-89980952D02*
X120393855Y-89980952D01*
X120393855Y-89980952D02*
X120508140Y-90057143D01*
X120508140Y-90057143D02*
X120584331Y-90133333D01*
X120584331Y-90133333D02*
X120622426Y-90209524D01*
X120470045Y-89447619D02*
X120431950Y-89409523D01*
X120431950Y-89409523D02*
X120393855Y-89333333D01*
X120393855Y-89333333D02*
X120393855Y-89142857D01*
X120393855Y-89142857D02*
X120431950Y-89066666D01*
X120431950Y-89066666D02*
X120470045Y-89028571D01*
X120470045Y-89028571D02*
X120546236Y-88990476D01*
X120546236Y-88990476D02*
X120622426Y-88990476D01*
X120622426Y-88990476D02*
X120736712Y-89028571D01*
X120736712Y-89028571D02*
X121193855Y-89485714D01*
X121193855Y-89485714D02*
X121193855Y-88990476D01*
X94127664Y-79014285D02*
X94165760Y-79052381D01*
X94165760Y-79052381D02*
X94203855Y-79166666D01*
X94203855Y-79166666D02*
X94203855Y-79242857D01*
X94203855Y-79242857D02*
X94165760Y-79357143D01*
X94165760Y-79357143D02*
X94089569Y-79433333D01*
X94089569Y-79433333D02*
X94013379Y-79471428D01*
X94013379Y-79471428D02*
X93860998Y-79509524D01*
X93860998Y-79509524D02*
X93746712Y-79509524D01*
X93746712Y-79509524D02*
X93594331Y-79471428D01*
X93594331Y-79471428D02*
X93518140Y-79433333D01*
X93518140Y-79433333D02*
X93441950Y-79357143D01*
X93441950Y-79357143D02*
X93403855Y-79242857D01*
X93403855Y-79242857D02*
X93403855Y-79166666D01*
X93403855Y-79166666D02*
X93441950Y-79052381D01*
X93441950Y-79052381D02*
X93480045Y-79014285D01*
X94203855Y-78252381D02*
X94203855Y-78709524D01*
X94203855Y-78480952D02*
X93403855Y-78480952D01*
X93403855Y-78480952D02*
X93518140Y-78557143D01*
X93518140Y-78557143D02*
X93594331Y-78633333D01*
X93594331Y-78633333D02*
X93632426Y-78709524D01*
X93403855Y-77757142D02*
X93403855Y-77680952D01*
X93403855Y-77680952D02*
X93441950Y-77604761D01*
X93441950Y-77604761D02*
X93480045Y-77566666D01*
X93480045Y-77566666D02*
X93556236Y-77528571D01*
X93556236Y-77528571D02*
X93708617Y-77490476D01*
X93708617Y-77490476D02*
X93899093Y-77490476D01*
X93899093Y-77490476D02*
X94051474Y-77528571D01*
X94051474Y-77528571D02*
X94127664Y-77566666D01*
X94127664Y-77566666D02*
X94165760Y-77604761D01*
X94165760Y-77604761D02*
X94203855Y-77680952D01*
X94203855Y-77680952D02*
X94203855Y-77757142D01*
X94203855Y-77757142D02*
X94165760Y-77833333D01*
X94165760Y-77833333D02*
X94127664Y-77871428D01*
X94127664Y-77871428D02*
X94051474Y-77909523D01*
X94051474Y-77909523D02*
X93899093Y-77947619D01*
X93899093Y-77947619D02*
X93708617Y-77947619D01*
X93708617Y-77947619D02*
X93556236Y-77909523D01*
X93556236Y-77909523D02*
X93480045Y-77871428D01*
X93480045Y-77871428D02*
X93441950Y-77833333D01*
X93441950Y-77833333D02*
X93403855Y-77757142D01*
D10*
X74431009Y-95714285D02*
X74431009Y-95380952D01*
X74954819Y-95238095D02*
X74954819Y-95714285D01*
X74954819Y-95714285D02*
X73954819Y-95714285D01*
X73954819Y-95714285D02*
X73954819Y-95238095D01*
X74954819Y-94809523D02*
X73954819Y-94809523D01*
X73954819Y-94809523D02*
X74954819Y-94238095D01*
X74954819Y-94238095D02*
X73954819Y-94238095D01*
X74859580Y-93190476D02*
X74907200Y-93238095D01*
X74907200Y-93238095D02*
X74954819Y-93380952D01*
X74954819Y-93380952D02*
X74954819Y-93476190D01*
X74954819Y-93476190D02*
X74907200Y-93619047D01*
X74907200Y-93619047D02*
X74811961Y-93714285D01*
X74811961Y-93714285D02*
X74716723Y-93761904D01*
X74716723Y-93761904D02*
X74526247Y-93809523D01*
X74526247Y-93809523D02*
X74383390Y-93809523D01*
X74383390Y-93809523D02*
X74192914Y-93761904D01*
X74192914Y-93761904D02*
X74097676Y-93714285D01*
X74097676Y-93714285D02*
X74002438Y-93619047D01*
X74002438Y-93619047D02*
X73954819Y-93476190D01*
X73954819Y-93476190D02*
X73954819Y-93380952D01*
X73954819Y-93380952D02*
X74002438Y-93238095D01*
X74002438Y-93238095D02*
X74050057Y-93190476D01*
X74050057Y-92809523D02*
X74002438Y-92761904D01*
X74002438Y-92761904D02*
X73954819Y-92666666D01*
X73954819Y-92666666D02*
X73954819Y-92428571D01*
X73954819Y-92428571D02*
X74002438Y-92333333D01*
X74002438Y-92333333D02*
X74050057Y-92285714D01*
X74050057Y-92285714D02*
X74145295Y-92238095D01*
X74145295Y-92238095D02*
X74240533Y-92238095D01*
X74240533Y-92238095D02*
X74383390Y-92285714D01*
X74383390Y-92285714D02*
X74954819Y-92857142D01*
X74954819Y-92857142D02*
X74954819Y-92238095D01*
D11*
X115866667Y-85193855D02*
X115600000Y-84812902D01*
X115409524Y-85193855D02*
X115409524Y-84393855D01*
X115409524Y-84393855D02*
X115714286Y-84393855D01*
X115714286Y-84393855D02*
X115790476Y-84431950D01*
X115790476Y-84431950D02*
X115828571Y-84470045D01*
X115828571Y-84470045D02*
X115866667Y-84546236D01*
X115866667Y-84546236D02*
X115866667Y-84660521D01*
X115866667Y-84660521D02*
X115828571Y-84736712D01*
X115828571Y-84736712D02*
X115790476Y-84774807D01*
X115790476Y-84774807D02*
X115714286Y-84812902D01*
X115714286Y-84812902D02*
X115409524Y-84812902D01*
X116590476Y-84393855D02*
X116209524Y-84393855D01*
X116209524Y-84393855D02*
X116171428Y-84774807D01*
X116171428Y-84774807D02*
X116209524Y-84736712D01*
X116209524Y-84736712D02*
X116285714Y-84698617D01*
X116285714Y-84698617D02*
X116476190Y-84698617D01*
X116476190Y-84698617D02*
X116552381Y-84736712D01*
X116552381Y-84736712D02*
X116590476Y-84774807D01*
X116590476Y-84774807D02*
X116628571Y-84850998D01*
X116628571Y-84850998D02*
X116628571Y-85041474D01*
X116628571Y-85041474D02*
X116590476Y-85117664D01*
X116590476Y-85117664D02*
X116552381Y-85155760D01*
X116552381Y-85155760D02*
X116476190Y-85193855D01*
X116476190Y-85193855D02*
X116285714Y-85193855D01*
X116285714Y-85193855D02*
X116209524Y-85155760D01*
X116209524Y-85155760D02*
X116171428Y-85117664D01*
X121193855Y-78133332D02*
X120812902Y-78399999D01*
X121193855Y-78590475D02*
X120393855Y-78590475D01*
X120393855Y-78590475D02*
X120393855Y-78285713D01*
X120393855Y-78285713D02*
X120431950Y-78209523D01*
X120431950Y-78209523D02*
X120470045Y-78171428D01*
X120470045Y-78171428D02*
X120546236Y-78133332D01*
X120546236Y-78133332D02*
X120660521Y-78133332D01*
X120660521Y-78133332D02*
X120736712Y-78171428D01*
X120736712Y-78171428D02*
X120774807Y-78209523D01*
X120774807Y-78209523D02*
X120812902Y-78285713D01*
X120812902Y-78285713D02*
X120812902Y-78590475D01*
X120393855Y-77447618D02*
X120393855Y-77599999D01*
X120393855Y-77599999D02*
X120431950Y-77676190D01*
X120431950Y-77676190D02*
X120470045Y-77714285D01*
X120470045Y-77714285D02*
X120584331Y-77790475D01*
X120584331Y-77790475D02*
X120736712Y-77828571D01*
X120736712Y-77828571D02*
X121041474Y-77828571D01*
X121041474Y-77828571D02*
X121117664Y-77790475D01*
X121117664Y-77790475D02*
X121155760Y-77752380D01*
X121155760Y-77752380D02*
X121193855Y-77676190D01*
X121193855Y-77676190D02*
X121193855Y-77523809D01*
X121193855Y-77523809D02*
X121155760Y-77447618D01*
X121155760Y-77447618D02*
X121117664Y-77409523D01*
X121117664Y-77409523D02*
X121041474Y-77371428D01*
X121041474Y-77371428D02*
X120850998Y-77371428D01*
X120850998Y-77371428D02*
X120774807Y-77409523D01*
X120774807Y-77409523D02*
X120736712Y-77447618D01*
X120736712Y-77447618D02*
X120698617Y-77523809D01*
X120698617Y-77523809D02*
X120698617Y-77676190D01*
X120698617Y-77676190D02*
X120736712Y-77752380D01*
X120736712Y-77752380D02*
X120774807Y-77790475D01*
X120774807Y-77790475D02*
X120850998Y-77828571D01*
D10*
X99666666Y-63500119D02*
X99666666Y-64214404D01*
X99666666Y-64214404D02*
X99619047Y-64357261D01*
X99619047Y-64357261D02*
X99523809Y-64452500D01*
X99523809Y-64452500D02*
X99380952Y-64500119D01*
X99380952Y-64500119D02*
X99285714Y-64500119D01*
X100666666Y-64500119D02*
X100095238Y-64500119D01*
X100380952Y-64500119D02*
X100380952Y-63500119D01*
X100380952Y-63500119D02*
X100285714Y-63642976D01*
X100285714Y-63642976D02*
X100190476Y-63738214D01*
X100190476Y-63738214D02*
X100095238Y-63785833D01*
X92190476Y-108657200D02*
X92333333Y-108704819D01*
X92333333Y-108704819D02*
X92571428Y-108704819D01*
X92571428Y-108704819D02*
X92666666Y-108657200D01*
X92666666Y-108657200D02*
X92714285Y-108609580D01*
X92714285Y-108609580D02*
X92761904Y-108514342D01*
X92761904Y-108514342D02*
X92761904Y-108419104D01*
X92761904Y-108419104D02*
X92714285Y-108323866D01*
X92714285Y-108323866D02*
X92666666Y-108276247D01*
X92666666Y-108276247D02*
X92571428Y-108228628D01*
X92571428Y-108228628D02*
X92380952Y-108181009D01*
X92380952Y-108181009D02*
X92285714Y-108133390D01*
X92285714Y-108133390D02*
X92238095Y-108085771D01*
X92238095Y-108085771D02*
X92190476Y-107990533D01*
X92190476Y-107990533D02*
X92190476Y-107895295D01*
X92190476Y-107895295D02*
X92238095Y-107800057D01*
X92238095Y-107800057D02*
X92285714Y-107752438D01*
X92285714Y-107752438D02*
X92380952Y-107704819D01*
X92380952Y-107704819D02*
X92619047Y-107704819D01*
X92619047Y-107704819D02*
X92761904Y-107752438D01*
X93095238Y-107704819D02*
X93333333Y-108704819D01*
X93333333Y-108704819D02*
X93523809Y-107990533D01*
X93523809Y-107990533D02*
X93714285Y-108704819D01*
X93714285Y-108704819D02*
X93952381Y-107704819D01*
X94857142Y-108704819D02*
X94285714Y-108704819D01*
X94571428Y-108704819D02*
X94571428Y-107704819D01*
X94571428Y-107704819D02*
X94476190Y-107847676D01*
X94476190Y-107847676D02*
X94380952Y-107942914D01*
X94380952Y-107942914D02*
X94285714Y-107990533D01*
X95476190Y-107704819D02*
X95571428Y-107704819D01*
X95571428Y-107704819D02*
X95666666Y-107752438D01*
X95666666Y-107752438D02*
X95714285Y-107800057D01*
X95714285Y-107800057D02*
X95761904Y-107895295D01*
X95761904Y-107895295D02*
X95809523Y-108085771D01*
X95809523Y-108085771D02*
X95809523Y-108323866D01*
X95809523Y-108323866D02*
X95761904Y-108514342D01*
X95761904Y-108514342D02*
X95714285Y-108609580D01*
X95714285Y-108609580D02*
X95666666Y-108657200D01*
X95666666Y-108657200D02*
X95571428Y-108704819D01*
X95571428Y-108704819D02*
X95476190Y-108704819D01*
X95476190Y-108704819D02*
X95380952Y-108657200D01*
X95380952Y-108657200D02*
X95333333Y-108609580D01*
X95333333Y-108609580D02*
X95285714Y-108514342D01*
X95285714Y-108514342D02*
X95238095Y-108323866D01*
X95238095Y-108323866D02*
X95238095Y-108085771D01*
X95238095Y-108085771D02*
X95285714Y-107895295D01*
X95285714Y-107895295D02*
X95333333Y-107800057D01*
X95333333Y-107800057D02*
X95380952Y-107752438D01*
X95380952Y-107752438D02*
X95476190Y-107704819D01*
D11*
X88193855Y-122133332D02*
X87812902Y-122399999D01*
X88193855Y-122590475D02*
X87393855Y-122590475D01*
X87393855Y-122590475D02*
X87393855Y-122285713D01*
X87393855Y-122285713D02*
X87431950Y-122209523D01*
X87431950Y-122209523D02*
X87470045Y-122171428D01*
X87470045Y-122171428D02*
X87546236Y-122133332D01*
X87546236Y-122133332D02*
X87660521Y-122133332D01*
X87660521Y-122133332D02*
X87736712Y-122171428D01*
X87736712Y-122171428D02*
X87774807Y-122209523D01*
X87774807Y-122209523D02*
X87812902Y-122285713D01*
X87812902Y-122285713D02*
X87812902Y-122590475D01*
X88193855Y-121371428D02*
X88193855Y-121828571D01*
X88193855Y-121599999D02*
X87393855Y-121599999D01*
X87393855Y-121599999D02*
X87508140Y-121676190D01*
X87508140Y-121676190D02*
X87584331Y-121752380D01*
X87584331Y-121752380D02*
X87622426Y-121828571D01*
X97857664Y-84133332D02*
X97895760Y-84171428D01*
X97895760Y-84171428D02*
X97933855Y-84285713D01*
X97933855Y-84285713D02*
X97933855Y-84361904D01*
X97933855Y-84361904D02*
X97895760Y-84476190D01*
X97895760Y-84476190D02*
X97819569Y-84552380D01*
X97819569Y-84552380D02*
X97743379Y-84590475D01*
X97743379Y-84590475D02*
X97590998Y-84628571D01*
X97590998Y-84628571D02*
X97476712Y-84628571D01*
X97476712Y-84628571D02*
X97324331Y-84590475D01*
X97324331Y-84590475D02*
X97248140Y-84552380D01*
X97248140Y-84552380D02*
X97171950Y-84476190D01*
X97171950Y-84476190D02*
X97133855Y-84361904D01*
X97133855Y-84361904D02*
X97133855Y-84285713D01*
X97133855Y-84285713D02*
X97171950Y-84171428D01*
X97171950Y-84171428D02*
X97210045Y-84133332D01*
X97133855Y-83447618D02*
X97133855Y-83599999D01*
X97133855Y-83599999D02*
X97171950Y-83676190D01*
X97171950Y-83676190D02*
X97210045Y-83714285D01*
X97210045Y-83714285D02*
X97324331Y-83790475D01*
X97324331Y-83790475D02*
X97476712Y-83828571D01*
X97476712Y-83828571D02*
X97781474Y-83828571D01*
X97781474Y-83828571D02*
X97857664Y-83790475D01*
X97857664Y-83790475D02*
X97895760Y-83752380D01*
X97895760Y-83752380D02*
X97933855Y-83676190D01*
X97933855Y-83676190D02*
X97933855Y-83523809D01*
X97933855Y-83523809D02*
X97895760Y-83447618D01*
X97895760Y-83447618D02*
X97857664Y-83409523D01*
X97857664Y-83409523D02*
X97781474Y-83371428D01*
X97781474Y-83371428D02*
X97590998Y-83371428D01*
X97590998Y-83371428D02*
X97514807Y-83409523D01*
X97514807Y-83409523D02*
X97476712Y-83447618D01*
X97476712Y-83447618D02*
X97438617Y-83523809D01*
X97438617Y-83523809D02*
X97438617Y-83676190D01*
X97438617Y-83676190D02*
X97476712Y-83752380D01*
X97476712Y-83752380D02*
X97514807Y-83790475D01*
X97514807Y-83790475D02*
X97590998Y-83828571D01*
X88193855Y-118133332D02*
X87812902Y-118399999D01*
X88193855Y-118590475D02*
X87393855Y-118590475D01*
X87393855Y-118590475D02*
X87393855Y-118285713D01*
X87393855Y-118285713D02*
X87431950Y-118209523D01*
X87431950Y-118209523D02*
X87470045Y-118171428D01*
X87470045Y-118171428D02*
X87546236Y-118133332D01*
X87546236Y-118133332D02*
X87660521Y-118133332D01*
X87660521Y-118133332D02*
X87736712Y-118171428D01*
X87736712Y-118171428D02*
X87774807Y-118209523D01*
X87774807Y-118209523D02*
X87812902Y-118285713D01*
X87812902Y-118285713D02*
X87812902Y-118590475D01*
X87470045Y-117828571D02*
X87431950Y-117790475D01*
X87431950Y-117790475D02*
X87393855Y-117714285D01*
X87393855Y-117714285D02*
X87393855Y-117523809D01*
X87393855Y-117523809D02*
X87431950Y-117447618D01*
X87431950Y-117447618D02*
X87470045Y-117409523D01*
X87470045Y-117409523D02*
X87546236Y-117371428D01*
X87546236Y-117371428D02*
X87622426Y-117371428D01*
X87622426Y-117371428D02*
X87736712Y-117409523D01*
X87736712Y-117409523D02*
X88193855Y-117866666D01*
X88193855Y-117866666D02*
X88193855Y-117371428D01*
D10*
X111261905Y-76454819D02*
X111261905Y-75454819D01*
X111261905Y-75454819D02*
X111500000Y-75454819D01*
X111500000Y-75454819D02*
X111642857Y-75502438D01*
X111642857Y-75502438D02*
X111738095Y-75597676D01*
X111738095Y-75597676D02*
X111785714Y-75692914D01*
X111785714Y-75692914D02*
X111833333Y-75883390D01*
X111833333Y-75883390D02*
X111833333Y-76026247D01*
X111833333Y-76026247D02*
X111785714Y-76216723D01*
X111785714Y-76216723D02*
X111738095Y-76311961D01*
X111738095Y-76311961D02*
X111642857Y-76407200D01*
X111642857Y-76407200D02*
X111500000Y-76454819D01*
X111500000Y-76454819D02*
X111261905Y-76454819D01*
X112785714Y-76454819D02*
X112214286Y-76454819D01*
X112500000Y-76454819D02*
X112500000Y-75454819D01*
X112500000Y-75454819D02*
X112404762Y-75597676D01*
X112404762Y-75597676D02*
X112309524Y-75692914D01*
X112309524Y-75692914D02*
X112214286Y-75740533D01*
D11*
X93627664Y-87514285D02*
X93665760Y-87552381D01*
X93665760Y-87552381D02*
X93703855Y-87666666D01*
X93703855Y-87666666D02*
X93703855Y-87742857D01*
X93703855Y-87742857D02*
X93665760Y-87857143D01*
X93665760Y-87857143D02*
X93589569Y-87933333D01*
X93589569Y-87933333D02*
X93513379Y-87971428D01*
X93513379Y-87971428D02*
X93360998Y-88009524D01*
X93360998Y-88009524D02*
X93246712Y-88009524D01*
X93246712Y-88009524D02*
X93094331Y-87971428D01*
X93094331Y-87971428D02*
X93018140Y-87933333D01*
X93018140Y-87933333D02*
X92941950Y-87857143D01*
X92941950Y-87857143D02*
X92903855Y-87742857D01*
X92903855Y-87742857D02*
X92903855Y-87666666D01*
X92903855Y-87666666D02*
X92941950Y-87552381D01*
X92941950Y-87552381D02*
X92980045Y-87514285D01*
X93703855Y-86752381D02*
X93703855Y-87209524D01*
X93703855Y-86980952D02*
X92903855Y-86980952D01*
X92903855Y-86980952D02*
X93018140Y-87057143D01*
X93018140Y-87057143D02*
X93094331Y-87133333D01*
X93094331Y-87133333D02*
X93132426Y-87209524D01*
X93170521Y-86066666D02*
X93703855Y-86066666D01*
X92865760Y-86257142D02*
X93437188Y-86447619D01*
X93437188Y-86447619D02*
X93437188Y-85952380D01*
X121857664Y-72133332D02*
X121895760Y-72171428D01*
X121895760Y-72171428D02*
X121933855Y-72285713D01*
X121933855Y-72285713D02*
X121933855Y-72361904D01*
X121933855Y-72361904D02*
X121895760Y-72476190D01*
X121895760Y-72476190D02*
X121819569Y-72552380D01*
X121819569Y-72552380D02*
X121743379Y-72590475D01*
X121743379Y-72590475D02*
X121590998Y-72628571D01*
X121590998Y-72628571D02*
X121476712Y-72628571D01*
X121476712Y-72628571D02*
X121324331Y-72590475D01*
X121324331Y-72590475D02*
X121248140Y-72552380D01*
X121248140Y-72552380D02*
X121171950Y-72476190D01*
X121171950Y-72476190D02*
X121133855Y-72361904D01*
X121133855Y-72361904D02*
X121133855Y-72285713D01*
X121133855Y-72285713D02*
X121171950Y-72171428D01*
X121171950Y-72171428D02*
X121210045Y-72133332D01*
X121133855Y-71409523D02*
X121133855Y-71790475D01*
X121133855Y-71790475D02*
X121514807Y-71828571D01*
X121514807Y-71828571D02*
X121476712Y-71790475D01*
X121476712Y-71790475D02*
X121438617Y-71714285D01*
X121438617Y-71714285D02*
X121438617Y-71523809D01*
X121438617Y-71523809D02*
X121476712Y-71447618D01*
X121476712Y-71447618D02*
X121514807Y-71409523D01*
X121514807Y-71409523D02*
X121590998Y-71371428D01*
X121590998Y-71371428D02*
X121781474Y-71371428D01*
X121781474Y-71371428D02*
X121857664Y-71409523D01*
X121857664Y-71409523D02*
X121895760Y-71447618D01*
X121895760Y-71447618D02*
X121933855Y-71523809D01*
X121933855Y-71523809D02*
X121933855Y-71714285D01*
X121933855Y-71714285D02*
X121895760Y-71790475D01*
X121895760Y-71790475D02*
X121857664Y-71828571D01*
X88127664Y-126133332D02*
X88165760Y-126171428D01*
X88165760Y-126171428D02*
X88203855Y-126285713D01*
X88203855Y-126285713D02*
X88203855Y-126361904D01*
X88203855Y-126361904D02*
X88165760Y-126476190D01*
X88165760Y-126476190D02*
X88089569Y-126552380D01*
X88089569Y-126552380D02*
X88013379Y-126590475D01*
X88013379Y-126590475D02*
X87860998Y-126628571D01*
X87860998Y-126628571D02*
X87746712Y-126628571D01*
X87746712Y-126628571D02*
X87594331Y-126590475D01*
X87594331Y-126590475D02*
X87518140Y-126552380D01*
X87518140Y-126552380D02*
X87441950Y-126476190D01*
X87441950Y-126476190D02*
X87403855Y-126361904D01*
X87403855Y-126361904D02*
X87403855Y-126285713D01*
X87403855Y-126285713D02*
X87441950Y-126171428D01*
X87441950Y-126171428D02*
X87480045Y-126133332D01*
X87403855Y-125866666D02*
X87403855Y-125371428D01*
X87403855Y-125371428D02*
X87708617Y-125638094D01*
X87708617Y-125638094D02*
X87708617Y-125523809D01*
X87708617Y-125523809D02*
X87746712Y-125447618D01*
X87746712Y-125447618D02*
X87784807Y-125409523D01*
X87784807Y-125409523D02*
X87860998Y-125371428D01*
X87860998Y-125371428D02*
X88051474Y-125371428D01*
X88051474Y-125371428D02*
X88127664Y-125409523D01*
X88127664Y-125409523D02*
X88165760Y-125447618D01*
X88165760Y-125447618D02*
X88203855Y-125523809D01*
X88203855Y-125523809D02*
X88203855Y-125752380D01*
X88203855Y-125752380D02*
X88165760Y-125828571D01*
X88165760Y-125828571D02*
X88127664Y-125866666D01*
X119127664Y-113133332D02*
X119165760Y-113171428D01*
X119165760Y-113171428D02*
X119203855Y-113285713D01*
X119203855Y-113285713D02*
X119203855Y-113361904D01*
X119203855Y-113361904D02*
X119165760Y-113476190D01*
X119165760Y-113476190D02*
X119089569Y-113552380D01*
X119089569Y-113552380D02*
X119013379Y-113590475D01*
X119013379Y-113590475D02*
X118860998Y-113628571D01*
X118860998Y-113628571D02*
X118746712Y-113628571D01*
X118746712Y-113628571D02*
X118594331Y-113590475D01*
X118594331Y-113590475D02*
X118518140Y-113552380D01*
X118518140Y-113552380D02*
X118441950Y-113476190D01*
X118441950Y-113476190D02*
X118403855Y-113361904D01*
X118403855Y-113361904D02*
X118403855Y-113285713D01*
X118403855Y-113285713D02*
X118441950Y-113171428D01*
X118441950Y-113171428D02*
X118480045Y-113133332D01*
X118746712Y-112676190D02*
X118708617Y-112752380D01*
X118708617Y-112752380D02*
X118670521Y-112790475D01*
X118670521Y-112790475D02*
X118594331Y-112828571D01*
X118594331Y-112828571D02*
X118556236Y-112828571D01*
X118556236Y-112828571D02*
X118480045Y-112790475D01*
X118480045Y-112790475D02*
X118441950Y-112752380D01*
X118441950Y-112752380D02*
X118403855Y-112676190D01*
X118403855Y-112676190D02*
X118403855Y-112523809D01*
X118403855Y-112523809D02*
X118441950Y-112447618D01*
X118441950Y-112447618D02*
X118480045Y-112409523D01*
X118480045Y-112409523D02*
X118556236Y-112371428D01*
X118556236Y-112371428D02*
X118594331Y-112371428D01*
X118594331Y-112371428D02*
X118670521Y-112409523D01*
X118670521Y-112409523D02*
X118708617Y-112447618D01*
X118708617Y-112447618D02*
X118746712Y-112523809D01*
X118746712Y-112523809D02*
X118746712Y-112676190D01*
X118746712Y-112676190D02*
X118784807Y-112752380D01*
X118784807Y-112752380D02*
X118822902Y-112790475D01*
X118822902Y-112790475D02*
X118899093Y-112828571D01*
X118899093Y-112828571D02*
X119051474Y-112828571D01*
X119051474Y-112828571D02*
X119127664Y-112790475D01*
X119127664Y-112790475D02*
X119165760Y-112752380D01*
X119165760Y-112752380D02*
X119203855Y-112676190D01*
X119203855Y-112676190D02*
X119203855Y-112523809D01*
X119203855Y-112523809D02*
X119165760Y-112447618D01*
X119165760Y-112447618D02*
X119127664Y-112409523D01*
X119127664Y-112409523D02*
X119051474Y-112371428D01*
X119051474Y-112371428D02*
X118899093Y-112371428D01*
X118899093Y-112371428D02*
X118822902Y-112409523D01*
X118822902Y-112409523D02*
X118784807Y-112447618D01*
X118784807Y-112447618D02*
X118746712Y-112523809D01*
D10*
X83666667Y-65357200D02*
X83809524Y-65404819D01*
X83809524Y-65404819D02*
X84047619Y-65404819D01*
X84047619Y-65404819D02*
X84142857Y-65357200D01*
X84142857Y-65357200D02*
X84190476Y-65309580D01*
X84190476Y-65309580D02*
X84238095Y-65214342D01*
X84238095Y-65214342D02*
X84238095Y-65119104D01*
X84238095Y-65119104D02*
X84190476Y-65023866D01*
X84190476Y-65023866D02*
X84142857Y-64976247D01*
X84142857Y-64976247D02*
X84047619Y-64928628D01*
X84047619Y-64928628D02*
X83857143Y-64881009D01*
X83857143Y-64881009D02*
X83761905Y-64833390D01*
X83761905Y-64833390D02*
X83714286Y-64785771D01*
X83714286Y-64785771D02*
X83666667Y-64690533D01*
X83666667Y-64690533D02*
X83666667Y-64595295D01*
X83666667Y-64595295D02*
X83714286Y-64500057D01*
X83714286Y-64500057D02*
X83761905Y-64452438D01*
X83761905Y-64452438D02*
X83857143Y-64404819D01*
X83857143Y-64404819D02*
X84095238Y-64404819D01*
X84095238Y-64404819D02*
X84238095Y-64452438D01*
X84571429Y-64404819D02*
X84809524Y-65404819D01*
X84809524Y-65404819D02*
X85000000Y-64690533D01*
X85000000Y-64690533D02*
X85190476Y-65404819D01*
X85190476Y-65404819D02*
X85428572Y-64404819D01*
X86333333Y-65404819D02*
X85761905Y-65404819D01*
X86047619Y-65404819D02*
X86047619Y-64404819D01*
X86047619Y-64404819D02*
X85952381Y-64547676D01*
X85952381Y-64547676D02*
X85857143Y-64642914D01*
X85857143Y-64642914D02*
X85761905Y-64690533D01*
X103238095Y-82054819D02*
X103238095Y-82864342D01*
X103238095Y-82864342D02*
X103285714Y-82959580D01*
X103285714Y-82959580D02*
X103333333Y-83007200D01*
X103333333Y-83007200D02*
X103428571Y-83054819D01*
X103428571Y-83054819D02*
X103619047Y-83054819D01*
X103619047Y-83054819D02*
X103714285Y-83007200D01*
X103714285Y-83007200D02*
X103761904Y-82959580D01*
X103761904Y-82959580D02*
X103809523Y-82864342D01*
X103809523Y-82864342D02*
X103809523Y-82054819D01*
X104714285Y-82388152D02*
X104714285Y-83054819D01*
X104476190Y-82007200D02*
X104238095Y-82721485D01*
X104238095Y-82721485D02*
X104857142Y-82721485D01*
X118666667Y-60357200D02*
X118809524Y-60404819D01*
X118809524Y-60404819D02*
X119047619Y-60404819D01*
X119047619Y-60404819D02*
X119142857Y-60357200D01*
X119142857Y-60357200D02*
X119190476Y-60309580D01*
X119190476Y-60309580D02*
X119238095Y-60214342D01*
X119238095Y-60214342D02*
X119238095Y-60119104D01*
X119238095Y-60119104D02*
X119190476Y-60023866D01*
X119190476Y-60023866D02*
X119142857Y-59976247D01*
X119142857Y-59976247D02*
X119047619Y-59928628D01*
X119047619Y-59928628D02*
X118857143Y-59881009D01*
X118857143Y-59881009D02*
X118761905Y-59833390D01*
X118761905Y-59833390D02*
X118714286Y-59785771D01*
X118714286Y-59785771D02*
X118666667Y-59690533D01*
X118666667Y-59690533D02*
X118666667Y-59595295D01*
X118666667Y-59595295D02*
X118714286Y-59500057D01*
X118714286Y-59500057D02*
X118761905Y-59452438D01*
X118761905Y-59452438D02*
X118857143Y-59404819D01*
X118857143Y-59404819D02*
X119095238Y-59404819D01*
X119095238Y-59404819D02*
X119238095Y-59452438D01*
X119571429Y-59404819D02*
X119809524Y-60404819D01*
X119809524Y-60404819D02*
X120000000Y-59690533D01*
X120000000Y-59690533D02*
X120190476Y-60404819D01*
X120190476Y-60404819D02*
X120428572Y-59404819D01*
X120714286Y-59404819D02*
X121333333Y-59404819D01*
X121333333Y-59404819D02*
X121000000Y-59785771D01*
X121000000Y-59785771D02*
X121142857Y-59785771D01*
X121142857Y-59785771D02*
X121238095Y-59833390D01*
X121238095Y-59833390D02*
X121285714Y-59881009D01*
X121285714Y-59881009D02*
X121333333Y-59976247D01*
X121333333Y-59976247D02*
X121333333Y-60214342D01*
X121333333Y-60214342D02*
X121285714Y-60309580D01*
X121285714Y-60309580D02*
X121238095Y-60357200D01*
X121238095Y-60357200D02*
X121142857Y-60404819D01*
X121142857Y-60404819D02*
X120857143Y-60404819D01*
X120857143Y-60404819D02*
X120761905Y-60357200D01*
X120761905Y-60357200D02*
X120714286Y-60309580D01*
X136666667Y-71357200D02*
X136809524Y-71404819D01*
X136809524Y-71404819D02*
X137047619Y-71404819D01*
X137047619Y-71404819D02*
X137142857Y-71357200D01*
X137142857Y-71357200D02*
X137190476Y-71309580D01*
X137190476Y-71309580D02*
X137238095Y-71214342D01*
X137238095Y-71214342D02*
X137238095Y-71119104D01*
X137238095Y-71119104D02*
X137190476Y-71023866D01*
X137190476Y-71023866D02*
X137142857Y-70976247D01*
X137142857Y-70976247D02*
X137047619Y-70928628D01*
X137047619Y-70928628D02*
X136857143Y-70881009D01*
X136857143Y-70881009D02*
X136761905Y-70833390D01*
X136761905Y-70833390D02*
X136714286Y-70785771D01*
X136714286Y-70785771D02*
X136666667Y-70690533D01*
X136666667Y-70690533D02*
X136666667Y-70595295D01*
X136666667Y-70595295D02*
X136714286Y-70500057D01*
X136714286Y-70500057D02*
X136761905Y-70452438D01*
X136761905Y-70452438D02*
X136857143Y-70404819D01*
X136857143Y-70404819D02*
X137095238Y-70404819D01*
X137095238Y-70404819D02*
X137238095Y-70452438D01*
X137571429Y-70404819D02*
X137809524Y-71404819D01*
X137809524Y-71404819D02*
X138000000Y-70690533D01*
X138000000Y-70690533D02*
X138190476Y-71404819D01*
X138190476Y-71404819D02*
X138428572Y-70404819D01*
X139238095Y-70738152D02*
X139238095Y-71404819D01*
X139000000Y-70357200D02*
X138761905Y-71071485D01*
X138761905Y-71071485D02*
X139380952Y-71071485D01*
D11*
%TO.C,SW12*%
X127550000Y-58595300D02*
X127550000Y-59385300D01*
X129600000Y-60435300D02*
X129400000Y-60435300D01*
X131100000Y-56295300D02*
X131100000Y-57585300D01*
X131100000Y-56295300D02*
X131300000Y-56085300D01*
X132200000Y-56085300D02*
X131300000Y-56085300D01*
X132400000Y-56295300D02*
X132200000Y-56085300D01*
X132400000Y-57585300D02*
X132400000Y-56295300D01*
X132600000Y-60435300D02*
X130900000Y-60435300D01*
X133850000Y-57585300D02*
X128150000Y-57585300D01*
X134450000Y-59385300D02*
X134450000Y-58595300D01*
%TO.C,ENC1*%
X92200000Y-93900000D02*
X92800000Y-93900000D01*
X92500000Y-94200000D02*
X92200000Y-93900000D01*
X92800000Y-93900000D02*
X92500000Y-94200000D01*
X93900000Y-92100000D02*
X93900000Y-103900000D01*
X98000000Y-92100000D02*
X93900000Y-92100000D01*
X98000000Y-103900000D02*
X93900000Y-103900000D01*
X99500000Y-98000000D02*
X100500000Y-98000000D01*
X100000000Y-97500000D02*
X100000000Y-98500000D01*
X102000000Y-92100000D02*
X106100000Y-92100000D01*
X106100000Y-92100000D02*
X106100000Y-94500000D01*
X106100000Y-96700000D02*
X106100000Y-99300000D01*
X106100000Y-101500000D02*
X106100000Y-103900000D01*
X106100000Y-103900000D02*
X102000000Y-103900000D01*
X103000000Y-98000000D02*
G75*
G02*
X97000000Y-98000000I-3000000J0D01*
G01*
X97000000Y-98000000D02*
G75*
G02*
X103000000Y-98000000I3000000J0D01*
G01*
%TO.C,R4*%
X106620000Y-62153641D02*
X106620000Y-61846359D01*
X107380000Y-62153641D02*
X107380000Y-61846359D01*
%TO.C,C7*%
X108490000Y-89140580D02*
X108490000Y-88859420D01*
X109510000Y-89140580D02*
X109510000Y-88859420D01*
%TO.C,Q1*%
X112000000Y-81440000D02*
X111350000Y-81440000D01*
X112000000Y-81440000D02*
X112650000Y-81440000D01*
X112000000Y-84560000D02*
X111350000Y-84560000D01*
X112000000Y-84560000D02*
X112650000Y-84560000D01*
X110837500Y-81490000D02*
X110597500Y-81160000D01*
X111077500Y-81160000D01*
X110837500Y-81490000D01*
G36*
X110837500Y-81490000D02*
G01*
X110597500Y-81160000D01*
X111077500Y-81160000D01*
X110837500Y-81490000D01*
G37*
%TO.C,C9*%
X88640000Y-80107836D02*
X88640000Y-79892164D01*
X89360000Y-80107836D02*
X89360000Y-79892164D01*
%TO.C,R16*%
X89620000Y-87153641D02*
X89620000Y-86846359D01*
X90380000Y-87153641D02*
X90380000Y-86846359D01*
%TO.C,SW11*%
X100250000Y-111000000D02*
X100250000Y-113000000D01*
X101300000Y-109700000D02*
X101750000Y-109250000D01*
X101300000Y-114300000D02*
X101750000Y-114750000D01*
X101750000Y-109250000D02*
X104250000Y-109250000D01*
X101750000Y-114750000D02*
X104250000Y-114750000D01*
X104700000Y-109700000D02*
X104250000Y-109250000D01*
X104700000Y-114300000D02*
X104250000Y-114750000D01*
X105750000Y-111000000D02*
X105750000Y-113000000D01*
%TO.C,U3*%
X118000000Y-72440000D02*
X117200000Y-72440000D01*
X118000000Y-72440000D02*
X118800000Y-72440000D01*
X118000000Y-75560000D02*
X117200000Y-75560000D01*
X118000000Y-75560000D02*
X118800000Y-75560000D01*
X116700000Y-72490000D02*
X116460000Y-72160000D01*
X116940000Y-72160000D01*
X116700000Y-72490000D01*
G36*
X116700000Y-72490000D02*
G01*
X116460000Y-72160000D01*
X116940000Y-72160000D01*
X116700000Y-72490000D01*
G37*
%TO.C,C4*%
X112490000Y-73140580D02*
X112490000Y-72859420D01*
X113510000Y-73140580D02*
X113510000Y-72859420D01*
%TO.C,R9*%
X116620000Y-113153641D02*
X116620000Y-112846359D01*
X117380000Y-113153641D02*
X117380000Y-112846359D01*
%TO.C,R8*%
X113620000Y-113153641D02*
X113620000Y-112846359D01*
X114380000Y-113153641D02*
X114380000Y-112846359D01*
%TO.C,R7*%
X121620000Y-82153641D02*
X121620000Y-81846359D01*
X122380000Y-82153641D02*
X122380000Y-81846359D01*
%TO.C,J2*%
X76690000Y-101940000D02*
X76690000Y-102960000D01*
X76690000Y-102960000D02*
X78290000Y-102960000D01*
X76690000Y-109040000D02*
X78290000Y-109040000D01*
X76690000Y-110060000D02*
X76690000Y-109040000D01*
X78290000Y-102960000D02*
X78290000Y-104240000D01*
X78290000Y-107760000D02*
X75400000Y-107760000D01*
X78290000Y-109040000D02*
X78290000Y-107760000D01*
X80940000Y-101940000D02*
X76690000Y-101940000D01*
X80940000Y-110060000D02*
X76690000Y-110060000D01*
X84510000Y-108340000D02*
X84510000Y-103660000D01*
%TO.C,R13*%
X107620000Y-107153641D02*
X107620000Y-106846359D01*
X108380000Y-107153641D02*
X108380000Y-106846359D01*
%TO.C,R14*%
X109620000Y-107153641D02*
X109620000Y-106846359D01*
X110380000Y-107153641D02*
X110380000Y-106846359D01*
%TO.C,R10*%
X124620000Y-82153641D02*
X124620000Y-81846359D01*
X125380000Y-82153641D02*
X125380000Y-81846359D01*
%TO.C,C2*%
X110640000Y-128107836D02*
X110640000Y-127892164D01*
X111360000Y-128107836D02*
X111360000Y-127892164D01*
%TO.C,SW9*%
X56770000Y-90770000D02*
X56800000Y-90770000D01*
X56770000Y-97230000D02*
X56770000Y-90770000D01*
X56800000Y-97230000D02*
X56770000Y-97230000D01*
X58700000Y-90770000D02*
X61300000Y-90770000D01*
X58700000Y-97230000D02*
X61300000Y-97230000D01*
X63230000Y-90770000D02*
X63200000Y-90770000D01*
X63230000Y-97230000D02*
X63200000Y-97230000D01*
X63230000Y-97230000D02*
X63230000Y-90770000D01*
%TO.C,SW6*%
X62770000Y-116770000D02*
X69230000Y-116770000D01*
X62770000Y-116800000D02*
X62770000Y-116770000D01*
X62770000Y-118700000D02*
X62770000Y-121300000D01*
X62770000Y-123230000D02*
X62770000Y-123200000D01*
X62770000Y-123230000D02*
X69230000Y-123230000D01*
X69230000Y-116770000D02*
X69230000Y-116800000D01*
X69230000Y-118700000D02*
X69230000Y-121300000D01*
X69230000Y-123230000D02*
X69230000Y-123200000D01*
%TO.C,U1*%
X90800000Y-115550000D02*
X90800000Y-116550000D01*
X90800000Y-115550000D02*
X92300000Y-115550000D01*
X90800000Y-141400000D02*
X90800000Y-135200000D01*
X109200000Y-115550000D02*
X107700000Y-115550000D01*
X109200000Y-116550000D02*
X109200000Y-115550000D01*
X109200000Y-141400000D02*
X90800000Y-141400000D01*
X109200000Y-141400000D02*
X109200000Y-135200000D01*
X109200000Y-135025000D02*
X109200000Y-134525000D01*
X109700000Y-134525000D01*
X109200000Y-135025000D01*
G36*
X109200000Y-135025000D02*
G01*
X109200000Y-134525000D01*
X109700000Y-134525000D01*
X109200000Y-135025000D01*
G37*
%TO.C,SW8*%
X132770000Y-121770000D02*
X139230000Y-121770000D01*
X132770000Y-121800000D02*
X132770000Y-121770000D01*
X132770000Y-123700000D02*
X132770000Y-126300000D01*
X132770000Y-128230000D02*
X132770000Y-128200000D01*
X132770000Y-128230000D02*
X139230000Y-128230000D01*
X139230000Y-121770000D02*
X139230000Y-121800000D01*
X139230000Y-123700000D02*
X139230000Y-126300000D01*
X139230000Y-128230000D02*
X139230000Y-128200000D01*
%TO.C,R11*%
X118620000Y-90153641D02*
X118620000Y-89846359D01*
X119380000Y-90153641D02*
X119380000Y-89846359D01*
%TO.C,C15*%
X110265000Y-132261252D02*
X110265000Y-131738748D01*
X111735000Y-132261252D02*
X111735000Y-131738748D01*
%TO.C,C11*%
X112140000Y-107107836D02*
X112140000Y-106892164D01*
X112860000Y-107107836D02*
X112860000Y-106892164D01*
%TO.C,U2*%
X94000000Y-69440000D02*
X93200000Y-69440000D01*
X94000000Y-69440000D02*
X94800000Y-69440000D01*
X94000000Y-72560000D02*
X93200000Y-72560000D01*
X94000000Y-72560000D02*
X94800000Y-72560000D01*
X92700000Y-69490000D02*
X92460000Y-69160000D01*
X92940000Y-69160000D01*
X92700000Y-69490000D01*
G36*
X92700000Y-69490000D02*
G01*
X92460000Y-69160000D01*
X92940000Y-69160000D01*
X92700000Y-69490000D01*
G37*
%TO.C,C1*%
X110490000Y-124140580D02*
X110490000Y-123859420D01*
X111510000Y-124140580D02*
X111510000Y-123859420D01*
%TO.C,C12*%
X114140000Y-107107836D02*
X114140000Y-106892164D01*
X114860000Y-107107836D02*
X114860000Y-106892164D01*
%TO.C,U5*%
X92000000Y-76940000D02*
X91200000Y-76940000D01*
X92000000Y-76940000D02*
X92800000Y-76940000D01*
X92000000Y-80060000D02*
X91200000Y-80060000D01*
X92000000Y-80060000D02*
X92800000Y-80060000D01*
X90700000Y-76990000D02*
X90460000Y-76660000D01*
X90940000Y-76660000D01*
X90700000Y-76990000D01*
G36*
X90700000Y-76990000D02*
G01*
X90460000Y-76660000D01*
X90940000Y-76660000D01*
X90700000Y-76990000D01*
G37*
%TO.C,R3*%
X92620000Y-62153641D02*
X92620000Y-61846359D01*
X93380000Y-62153641D02*
X93380000Y-61846359D01*
%TO.C,SW2*%
X99770000Y-65770000D02*
X106230000Y-65770000D01*
X99770000Y-65800000D02*
X99770000Y-65770000D01*
X99770000Y-67700000D02*
X99770000Y-70300000D01*
X99770000Y-72230000D02*
X99770000Y-72200000D01*
X99770000Y-72230000D02*
X106230000Y-72230000D01*
X106230000Y-65770000D02*
X106230000Y-65800000D01*
X106230000Y-67700000D02*
X106230000Y-70300000D01*
X106230000Y-72230000D02*
X106230000Y-72200000D01*
%TO.C,D2*%
X80500000Y-77250000D02*
X80500000Y-82750000D01*
X80500000Y-77250000D02*
X87500000Y-77250000D01*
X80500000Y-82750000D02*
X87050000Y-82750000D01*
X81300000Y-80900000D02*
X81300000Y-79100000D01*
X86700000Y-80900000D02*
X86700000Y-79100000D01*
X87050000Y-82750000D02*
X87500000Y-82300000D01*
X87500000Y-82300000D02*
X87500000Y-77250000D01*
%TO.C,SW7*%
X114770000Y-122770000D02*
X121230000Y-122770000D01*
X114770000Y-122800000D02*
X114770000Y-122770000D01*
X114770000Y-124700000D02*
X114770000Y-127300000D01*
X114770000Y-129230000D02*
X114770000Y-129200000D01*
X114770000Y-129230000D02*
X121230000Y-129230000D01*
X121230000Y-122770000D02*
X121230000Y-122800000D01*
X121230000Y-124700000D02*
X121230000Y-127300000D01*
X121230000Y-129230000D02*
X121230000Y-129200000D01*
%TO.C,SW5*%
X132770000Y-101770000D02*
X139230000Y-101770000D01*
X132770000Y-101800000D02*
X132770000Y-101770000D01*
X132770000Y-103700000D02*
X132770000Y-106300000D01*
X132770000Y-108230000D02*
X132770000Y-108200000D01*
X132770000Y-108230000D02*
X139230000Y-108230000D01*
X139230000Y-101770000D02*
X139230000Y-101800000D01*
X139230000Y-103700000D02*
X139230000Y-106300000D01*
X139230000Y-108230000D02*
X139230000Y-108200000D01*
%TO.C,C13*%
X92140000Y-87107836D02*
X92140000Y-86892164D01*
X92860000Y-87107836D02*
X92860000Y-86892164D01*
%TO.C,R15*%
X87620000Y-87153641D02*
X87620000Y-86846359D01*
X88380000Y-87153641D02*
X88380000Y-86846359D01*
%TO.C,R12*%
X121620000Y-90153641D02*
X121620000Y-89846359D01*
X122380000Y-90153641D02*
X122380000Y-89846359D01*
%TO.C,C10*%
X94640000Y-78607836D02*
X94640000Y-78392164D01*
X95360000Y-78607836D02*
X95360000Y-78392164D01*
%TO.C,ENC2*%
X76300000Y-100300000D02*
X82700000Y-100300000D01*
X82700000Y-87700000D01*
X76300000Y-87700000D01*
X76300000Y-100300000D01*
%TO.C,R5*%
X115846359Y-85620000D02*
X116153641Y-85620000D01*
X115846359Y-86380000D02*
X116153641Y-86380000D01*
%TO.C,R6*%
X121620000Y-78153641D02*
X121620000Y-77846359D01*
X122380000Y-78153641D02*
X122380000Y-77846359D01*
%TO.C,J1*%
X95300000Y-56400300D02*
X95300000Y-54500300D01*
X95300000Y-60300300D02*
X95300000Y-58300300D01*
X104700000Y-54500300D02*
X95300000Y-54500300D01*
X104700000Y-56400300D02*
X104700000Y-54500300D01*
X104700000Y-60300300D02*
X104700000Y-58300300D01*
%TO.C,SW10*%
X91250000Y-111000000D02*
X91250000Y-113000000D01*
X92300000Y-109700000D02*
X92750000Y-109250000D01*
X92300000Y-114300000D02*
X92750000Y-114750000D01*
X92750000Y-109250000D02*
X95250000Y-109250000D01*
X92750000Y-114750000D02*
X95250000Y-114750000D01*
X95700000Y-109700000D02*
X95250000Y-109250000D01*
X95700000Y-114300000D02*
X95250000Y-114750000D01*
X96750000Y-111000000D02*
X96750000Y-113000000D01*
%TO.C,R1*%
X88620000Y-122153641D02*
X88620000Y-121846359D01*
X89380000Y-122153641D02*
X89380000Y-121846359D01*
%TO.C,C6*%
X98490000Y-84140580D02*
X98490000Y-83859420D01*
X99510000Y-84140580D02*
X99510000Y-83859420D01*
%TO.C,R2*%
X88620000Y-118153641D02*
X88620000Y-117846359D01*
X89380000Y-118153641D02*
X89380000Y-117846359D01*
%TO.C,D1*%
X109640000Y-77000000D02*
X109640000Y-79000000D01*
X109640000Y-77000000D02*
X113650000Y-77000000D01*
X109640000Y-79000000D02*
X113650000Y-79000000D01*
%TO.C,C14*%
X94140000Y-87107836D02*
X94140000Y-86892164D01*
X94860000Y-87107836D02*
X94860000Y-86892164D01*
%TO.C,C5*%
X122490000Y-72140580D02*
X122490000Y-71859420D01*
X123510000Y-72140580D02*
X123510000Y-71859420D01*
%TO.C,C3*%
X88640000Y-126107836D02*
X88640000Y-125892164D01*
X89360000Y-126107836D02*
X89360000Y-125892164D01*
%TO.C,C8*%
X119640000Y-113107836D02*
X119640000Y-112892164D01*
X120360000Y-113107836D02*
X120360000Y-112892164D01*
%TO.C,SW1*%
X81770000Y-65770000D02*
X88230000Y-65770000D01*
X81770000Y-65800000D02*
X81770000Y-65770000D01*
X81770000Y-67700000D02*
X81770000Y-70300000D01*
X81770000Y-72230000D02*
X81770000Y-72200000D01*
X81770000Y-72230000D02*
X88230000Y-72230000D01*
X88230000Y-65770000D02*
X88230000Y-65800000D01*
X88230000Y-67700000D02*
X88230000Y-70300000D01*
X88230000Y-72230000D02*
X88230000Y-72200000D01*
%TO.C,U4*%
X104000000Y-83440000D02*
X103200000Y-83440000D01*
X104000000Y-83440000D02*
X104800000Y-83440000D01*
X104000000Y-86560000D02*
X103200000Y-86560000D01*
X104000000Y-86560000D02*
X104800000Y-86560000D01*
X102700000Y-83490000D02*
X102460000Y-83160000D01*
X102940000Y-83160000D01*
X102700000Y-83490000D01*
G36*
X102700000Y-83490000D02*
G01*
X102460000Y-83160000D01*
X102940000Y-83160000D01*
X102700000Y-83490000D01*
G37*
%TO.C,SW3*%
X116770000Y-60770000D02*
X123230000Y-60770000D01*
X116770000Y-60800000D02*
X116770000Y-60770000D01*
X116770000Y-62700000D02*
X116770000Y-65300000D01*
X116770000Y-67230000D02*
X116770000Y-67200000D01*
X116770000Y-67230000D02*
X123230000Y-67230000D01*
X123230000Y-60770000D02*
X123230000Y-60800000D01*
X123230000Y-62700000D02*
X123230000Y-65300000D01*
X123230000Y-67230000D02*
X123230000Y-67200000D01*
%TO.C,SW4*%
X134770000Y-71770000D02*
X141230000Y-71770000D01*
X134770000Y-71800000D02*
X134770000Y-71770000D01*
X134770000Y-73700000D02*
X134770000Y-76300000D01*
X134770000Y-78230000D02*
X134770000Y-78200000D01*
X134770000Y-78230000D02*
X141230000Y-78230000D01*
X141230000Y-71770000D02*
X141230000Y-71800000D01*
X141230000Y-73700000D02*
X141230000Y-76300000D01*
X141230000Y-78230000D02*
X141230000Y-78200000D01*
%TD*%
M02*
