%TF.GenerationSoftware,KiCad,Pcbnew,9.0.2+dfsg-1*%
%TF.CreationDate,2026-10-08T02:08:59+08:00*%
%TF.ProjectId,creative-controller,63726561-7469-4766-952d-636f6e74726f,rev?*%
%TF.SameCoordinates,Original*%
%TF.FileFunction,Profile,NP*%
%FSLAX46Y46*%
G04 Gerber Fmt 4.6, Leading zero omitted, Abs format (unit mm)*
G04 Created by KiCad (PCBNEW 9.0.2+dfsg-1) date 2026-10-08 02:08:59*
%MOMM*%
%LPD*%
G01*
G04 APERTURE LIST*
%TA.AperFunction,Profile*%
%ADD10C,0.100000*%
%TD*%
G04 APERTURE END LIST*
D10*
X65703499Y-57230900D02*
X66673700Y-56946000D01*
X93490300Y-55272700D02*
X93500600Y-54900600D01*
X58982500Y-62128100D02*
X59527500Y-61329400D01*
X132477800Y-55915500D02*
X134043900Y-56316600D01*
X63770000Y-57979500D02*
X64592299Y-57626900D01*
X143849699Y-75408000D02*
X143934500Y-81479100D01*
X92996500Y-55674700D02*
X93233600Y-55616800D01*
X107003500Y-55674700D02*
X119209400Y-55631100D01*
X137383800Y-140743000D02*
X136031900Y-141297100D01*
X141757600Y-136282800D02*
X141177800Y-137342600D01*
X56586900Y-69810000D02*
X56865900Y-68065800D01*
X75982300Y-142390200D02*
X71545700Y-142400600D01*
X57278400Y-66238400D02*
X57709000Y-64837899D01*
X141177800Y-137342600D02*
X140418000Y-138399600D01*
X139499400Y-59120600D02*
X139502300Y-60052900D01*
X75265100Y-55783900D02*
X77827300Y-55684000D01*
X73300000Y-83000000D02*
G75*
G02*
X75300000Y-85000000I0J-2000000D01*
G01*
X138545300Y-140081500D02*
X137383800Y-140743000D01*
X58296800Y-63395200D02*
X58982500Y-62128100D01*
X75300000Y-103000000D02*
X75300000Y-85000000D01*
X143708200Y-127226000D02*
X143523900Y-129242799D01*
X119209400Y-55631100D02*
X123493300Y-55727700D01*
X136031900Y-141297100D02*
X134474200Y-141739900D01*
X138808100Y-58568100D02*
X139499400Y-59120600D01*
X56344100Y-72073800D02*
X56586900Y-69810000D01*
X123493300Y-55727700D02*
X126764400Y-55914700D01*
X62145900Y-58878600D02*
X62835700Y-58458300D01*
X128457100Y-142400600D02*
X125210000Y-142413300D01*
X143013900Y-132448700D02*
X142635700Y-133951200D01*
X136773100Y-57351700D02*
X138112000Y-58093000D01*
X140472500Y-61329400D02*
X141222600Y-62471600D01*
X57507300Y-134418400D02*
X56986100Y-132448700D01*
X141222600Y-62471600D02*
X141879600Y-63785300D01*
X66264700Y-141896000D02*
X64830199Y-141563300D01*
X56069300Y-82624300D02*
X56102000Y-77084800D01*
X65700000Y-103000000D02*
X65700000Y-85000000D01*
X135480200Y-56797000D02*
X136773100Y-57351700D01*
X57981100Y-135703000D02*
X57507300Y-134418400D01*
X142264600Y-135080600D02*
X141757600Y-136282800D01*
X58621900Y-137006399D02*
X57981100Y-135703000D01*
X71545700Y-142400600D02*
X69617100Y-142310299D01*
X143274600Y-131065499D02*
X143013900Y-132448700D01*
X143906600Y-122473600D02*
X143833500Y-124986700D01*
X100020000Y-141800100D02*
X91987800Y-141878600D01*
X61361400Y-59445200D02*
X62145900Y-58878600D01*
X61153900Y-139872300D02*
X60194300Y-139063500D01*
X62261800Y-140562700D02*
X61153900Y-139872300D01*
X134474200Y-141739900D02*
X132959100Y-142030400D01*
X141879600Y-63785300D02*
X142368600Y-65063600D01*
X63557200Y-141148200D02*
X62261800Y-140562700D01*
X56267100Y-126872100D02*
X56112400Y-123348100D01*
X56112400Y-123348100D02*
X56066900Y-117958600D01*
X142720800Y-66235400D02*
X142968200Y-67252700D01*
X67700000Y-105000000D02*
G75*
G02*
X65700000Y-103000000I0J2000000D01*
G01*
X59527500Y-61329400D02*
X60006300Y-60737200D01*
X56552300Y-129874800D02*
X56267100Y-126872100D01*
X143934500Y-81479100D02*
X143800000Y-100011200D01*
X93500600Y-54900600D02*
X106487700Y-54900000D01*
X56865900Y-68065800D02*
X57278400Y-66238400D01*
X93415000Y-55453600D02*
X93490300Y-55272700D01*
X60194300Y-139063500D02*
X59354000Y-138113700D01*
X69108600Y-56417000D02*
X71946400Y-56033300D01*
X81335000Y-55626500D02*
X92996500Y-55674700D01*
X56200000Y-99990400D02*
X56069300Y-82624300D01*
X56102000Y-77084800D02*
X56201100Y-74237700D01*
X64592299Y-57626900D02*
X65703499Y-57230900D01*
X143833500Y-124986700D02*
X143708200Y-127226000D01*
X142968200Y-67252700D02*
X143370700Y-69503199D01*
X60653400Y-60060600D02*
X61361400Y-59445200D01*
X69617100Y-142310299D02*
X67855300Y-142143600D01*
X67855300Y-142143600D02*
X66264700Y-141896000D01*
X125210000Y-142413300D02*
X110234500Y-141928100D01*
X143655700Y-72070600D02*
X143849699Y-75408000D01*
X104752900Y-141827700D02*
X100020000Y-141800100D01*
X139502300Y-60052900D02*
X139555700Y-60234700D01*
X67700000Y-105000000D02*
X73300000Y-105000000D01*
X139545300Y-139307400D02*
X138545300Y-140081500D01*
X140418000Y-138399600D02*
X139545300Y-139307400D01*
X132959100Y-142030400D02*
X130991800Y-142263300D01*
X67700000Y-83000000D02*
X73300000Y-83000000D01*
X126764400Y-55914700D02*
X132477800Y-55915500D01*
X93233600Y-55616800D02*
X93415000Y-55453600D01*
X106766400Y-55616800D02*
X107003500Y-55674700D01*
X77827300Y-55684000D02*
X81335000Y-55626500D01*
X106509700Y-55272700D02*
X106585000Y-55453600D01*
X138112000Y-58093000D02*
X138808100Y-58568100D01*
X56201100Y-74237700D02*
X56344100Y-72073800D01*
X59354000Y-138113700D02*
X58621900Y-137006399D01*
X65700000Y-85000000D02*
G75*
G02*
X67700000Y-83000000I2000000J0D01*
G01*
X60006300Y-60737200D02*
X60653400Y-60060600D01*
X142635700Y-133951200D02*
X142264600Y-135080600D01*
X64830199Y-141563300D02*
X63557200Y-141148200D01*
X75300000Y-103000000D02*
G75*
G02*
X73300000Y-105000000I-2000000J0D01*
G01*
X142368600Y-65063600D02*
X142720800Y-66235400D01*
X62835700Y-58458300D02*
X63770000Y-57979500D01*
X106487700Y-54900000D02*
X106509700Y-55272700D01*
X143523900Y-129242799D02*
X143274600Y-131065499D01*
X56066900Y-117958600D02*
X56200000Y-99990400D01*
X139555700Y-60234700D02*
X140472500Y-61329400D01*
X57709000Y-64837899D02*
X58296800Y-63395200D01*
X110234500Y-141928100D02*
X104752900Y-141827700D01*
X66673700Y-56946000D02*
X69108600Y-56417000D01*
X106585000Y-55453600D02*
X106766400Y-55616800D01*
X143370700Y-69503199D02*
X143655700Y-72070600D01*
X143934900Y-119064100D02*
X143906600Y-122473600D01*
X143800000Y-100011200D02*
X143934900Y-119064100D01*
X134043900Y-56316600D02*
X135480200Y-56797000D01*
X71946400Y-56033300D02*
X75265100Y-55783900D01*
X130991800Y-142263300D02*
X128457100Y-142400600D01*
X91987800Y-141878600D02*
X75982300Y-142390200D01*
X56986100Y-132448700D02*
X56552300Y-129874800D01*
M02*
