M48
; DRILL file {KiCad 9.0.2+dfsg-1} date 2026-10-08T02:08:59+0800
; FORMAT={-:-/ absolute / metric / decimal}
; #@! TF.CreationDate,2026-10-08T02:08:59+08:00
; #@! TF.GenerationSoftware,Kicad,Pcbnew,9.0.2+dfsg-1
; #@! TF.FileFunction,Plated,1,2,PTH
FMAT,2
METRIC
; #@! TA.AperFunction,Plated,PTH,ViaDrill
T1C0.300
; #@! TA.AperFunction,Plated,PTH,ComponentDrill
T2C0.300
; #@! TA.AperFunction,Plated,PTH,ViaDrill
T3C0.400
; #@! TA.AperFunction,Plated,PTH,ComponentDrill
T4C0.600
; #@! TA.AperFunction,Plated,PTH,ComponentDrill
T5C1.000
; #@! TA.AperFunction,Plated,PTH,ComponentDrill
T6C1.500
%
G90
G05
T1
X60.0Y-64.0
X60.0Y-68.0
X60.0Y-72.0
X60.0Y-80.0
X60.0Y-84.0
X60.0Y-88.0
X60.0Y-100.0
X60.0Y-104.0
X60.0Y-108.0
X60.0Y-112.0
X60.0Y-116.0
X60.0Y-120.0
X60.0Y-124.0
X60.0Y-128.0
X64.0Y-60.0
X64.0Y-64.0
X64.0Y-68.0
X64.0Y-72.0
X64.0Y-76.0
X64.0Y-80.0
X64.0Y-84.0
X64.0Y-88.0
X64.0Y-92.0
X64.0Y-96.0
X64.0Y-100.0
X64.0Y-104.0
X64.0Y-108.0
X64.0Y-112.0
X64.0Y-116.0
X64.0Y-124.0
X64.0Y-128.0
X68.0Y-60.0
X68.0Y-64.0
X68.0Y-68.0
X68.0Y-72.0
X68.0Y-76.0
X68.0Y-80.0
X68.0Y-108.0
X68.0Y-112.0
X68.0Y-116.0
X68.0Y-124.0
X68.0Y-128.0
X68.0Y-132.0
X68.0Y-136.0
X68.0Y-140.0
X72.0Y-60.0
X72.0Y-64.0
X72.0Y-68.0
X72.0Y-72.0
X72.0Y-76.0
X72.0Y-80.0
X72.0Y-108.0
X72.0Y-112.0
X72.0Y-116.0
X72.0Y-124.0
X72.0Y-128.0
X72.0Y-132.0
X72.0Y-136.0
X72.0Y-140.0
X76.0Y-60.0
X76.0Y-64.0
X76.0Y-68.0
X76.0Y-72.0
X76.0Y-76.0
X76.0Y-80.0
X76.0Y-112.0
X80.0Y-60.0
X80.0Y-64.0
X80.0Y-76.0
X80.0Y-80.0
X80.0Y-84.0
X80.0Y-112.0
X84.0Y-60.0
X84.0Y-64.0
X84.0Y-84.0
X84.0Y-92.0
X84.0Y-100.0
X84.0Y-112.0
X86.685Y-120.584
X87.98Y-122.568
X88.0Y-60.0
X88.0Y-64.0
X88.0Y-84.0
X88.0Y-92.0
X88.0Y-100.0
X88.0Y-104.0
X88.0Y-108.0
X89.662Y-78.714
X89.972Y-125.682
X91.673Y-111.553
X91.697Y-71.25
X92.0Y-60.0
X92.0Y-64.0
X92.0Y-68.0
X92.0Y-84.0
X93.047Y-118.439
X93.111Y-123.76
X93.136Y-117.266
X94.433Y-114.725
X94.706Y-120.584
X96.0Y-64.0
X96.0Y-68.0
X96.0Y-76.0
X96.0Y-80.0
X96.0Y-84.0
X96.0Y-88.0
X96.0Y-108.0
X96.804Y-71.95
X98.392Y-61.183
X99.133Y-128.903
X99.401Y-63.845
X99.799Y-131.192
X99.951Y-61.183
X100.0Y-76.0
X100.0Y-88.0
X100.005Y-128.597
X101.212Y-114.037
X102.562Y-71.25
X103.047Y-117.259
X103.095Y-111.813
X104.0Y-76.0
X104.0Y-80.0
X104.0Y-88.0
X104.211Y-117.252
X104.689Y-106.013
X104.93Y-62.908
X105.297Y-125.26
X105.705Y-68.441
X106.282Y-128.227
X106.464Y-117.936
X107.178Y-121.06
X107.48Y-126.675
X107.914Y-114.037
X108.0Y-60.0
X108.0Y-64.0
X108.351Y-67.123
X110.137Y-65.48
X110.163Y-126.389
X110.955Y-70.448
X111.117Y-115.623
X112.0Y-60.0
X112.0Y-68.0
X112.0Y-76.0
X112.0Y-80.0
X112.0Y-88.0
X112.707Y-123.563
X113.789Y-124.912
X116.0Y-60.0
X116.0Y-68.0
X116.0Y-80.0
X116.0Y-92.0
X116.0Y-96.0
X116.0Y-100.0
X116.0Y-104.0
X116.048Y-112.787
X120.0Y-60.0
X120.0Y-68.0
X120.0Y-88.0
X123.307Y-80.264
X124.0Y-60.0
X124.0Y-68.0
X124.0Y-76.0
X124.0Y-84.0
X124.0Y-88.0
X124.0Y-92.0
X124.0Y-96.0
X124.0Y-100.0
X124.0Y-104.0
X124.0Y-108.0
X124.036Y-82.51
X128.0Y-64.0
X128.0Y-72.0
X128.0Y-80.0
X128.0Y-84.0
X128.0Y-88.0
X128.0Y-92.0
X128.0Y-96.0
X128.0Y-100.0
X128.0Y-104.0
X128.0Y-116.0
X128.0Y-120.0
X128.0Y-124.0
X128.0Y-128.0
X128.0Y-132.0
X128.0Y-136.0
X128.0Y-140.0
X132.0Y-68.0
X132.0Y-72.0
X132.0Y-76.0
X132.0Y-80.0
X132.0Y-84.0
X132.0Y-88.0
X132.0Y-92.0
X132.0Y-96.0
X132.0Y-100.0
X132.0Y-112.0
X132.0Y-116.0
X132.0Y-120.0
X132.0Y-132.0
X132.0Y-136.0
X132.0Y-140.0
X136.0Y-64.0
X136.0Y-68.0
X136.0Y-80.0
X136.0Y-84.0
X136.0Y-88.0
X136.0Y-92.0
X136.0Y-96.0
X136.0Y-100.0
X136.0Y-112.0
X136.0Y-116.0
X136.0Y-120.0
X136.0Y-132.0
X136.0Y-136.0
X140.0Y-64.0
X140.0Y-68.0
X140.0Y-80.0
X140.0Y-84.0
X140.0Y-92.0
X140.0Y-96.0
X140.0Y-100.0
X140.0Y-112.0
X140.0Y-116.0
X140.0Y-120.0
X140.0Y-132.0
X140.0Y-136.0
T2
X100.1Y-125.34
X100.1Y-126.74
X100.8Y-124.64
X100.8Y-126.04
X100.8Y-127.44
X101.5Y-125.34
X101.5Y-126.74
X102.2Y-124.64
X102.2Y-126.04
X102.2Y-127.44
X102.9Y-125.34
X102.9Y-126.74
T3
X87.79Y-123.821
X100.99Y-132.259
X102.816Y-93.786
X114.917Y-83.293
X117.008Y-75.889
X122.735Y-73.859
X124.458Y-70.388
T5
X77.0Y-94.0
X79.5Y-94.0
X82.0Y-94.0
X92.5Y-95.5
X92.5Y-98.0
X92.5Y-100.5
X107.0Y-95.5
X107.0Y-100.5
T4
X95.68Y-57.65G85X95.68Y-57.05
G05
X95.68Y-62.08G85X95.68Y-60.98
G05
X104.32Y-57.65G85X104.32Y-57.05
G05
X104.32Y-62.08G85X104.32Y-60.98
G05
T6
X99.35Y-92.4G85X100.65Y-92.4
G05
X99.35Y-103.6G85X100.65Y-103.6
G05
M30
